<mxfile host="Electron" agent="Mozilla/5.0 (Windows NT 10.0; Win64; x64) AppleWebKit/537.36 (KHTML, like Gecko) draw.io/26.2.2 Chrome/134.0.6998.178 Electron/35.1.2 Safari/537.36" version="26.2.2">
  <diagram name="第 1 页" id="kOKMuqHtZnY4cSqnzjGH">
    <mxGraphModel dx="2047" dy="763" grid="1" gridSize="10" guides="1" tooltips="1" connect="1" arrows="1" fold="1" page="1" pageScale="1" pageWidth="827" pageHeight="1169" math="0" shadow="0">
      <root>
        <mxCell id="0" />
        <mxCell id="1" parent="0" />
        <mxCell id="ZNWlbsZwltuI7lcsnE4K-41" value="" style="shape=image;verticalLabelPosition=bottom;labelBackgroundColor=default;verticalAlign=top;aspect=fixed;imageAspect=0;editableCssRules=.*;image=data:image/svg+xml,PHN2ZyB4bWxucz0iaHR0cDovL3d3dy53My5vcmcvMjAwMC9zdmciIHhtbG5zOnhsaW5rPSJodHRwOi8vd3d3LnczLm9yZy8xOTk5L3hsaW5rIiB2ZXJzaW9uPSIxLjEiIHZpZXdCb3g9IjAgMCA1NjAuNjI3MzE5MzM1OTM3NSAzNTAuMzk5OTkzODk2NDg0NCIgaGVpZ2h0PSIzNTAuMzk5OTkzODk2NDg0NCIgd2lkdGg9IjU2MC42MjczMTkzMzU5Mzc1Ij4mI3hhOyA8bWV0YWRhdGE+JiN4YTsgICYjeGE7ICAgJiN4YTsgICAgJiN4YTsgICAgMjAyNS0wNi0wMlQwMDozMjo0NC4zNzQ2NDYmI3hhOyAgICBpbWFnZS9zdmcreG1sJiN4YTsgICAgJiN4YTsgICAgICYjeGE7ICAgICAgTWF0cGxvdGxpYiB2My45LjIsIGh0dHBzOi8vbWF0cGxvdGxpYi5vcmcvJiN4YTsgICAgICYjeGE7ICAgICYjeGE7ICAgJiN4YTsgICYjeGE7IDwvbWV0YWRhdGE+JiN4YTsgPGRlZnM+JiN4YTsgIDxzdHlsZSB0eXBlPSJ0ZXh0L2NzcyI+KntzdHJva2UtbGluZWpvaW46IHJvdW5kOyBzdHJva2UtbGluZWNhcDogYnV0dH08L3N0eWxlPiYjeGE7IDwvZGVmcz4mI3hhOyA8ZyBpZD0iZmlndXJlXzEiPiYjeGE7ICA8ZyBpZD0icGF0Y2hfMSI+JiN4YTsgICA8cGF0aCBzdHlsZT0iZmlsbDogI2ZmZmZmZiIgZD0iTSAwIDM1MC40ICYjMTA7TCA1NTkuNjI3MzQ0IDM1MC40ICYjMTA7TCA1NTkuNjI3MzQ0IDAgJiMxMDtMIDAgMCAmIzEwO3oiLz4mI3hhOyAgPC9nPiYjeGE7ICA8ZyBpZD0iYXhlc18xIj4mI3hhOyAgIDxnIGlkPSJwYXRjaF8yIj4mI3hhOyAgICA8cGF0aCBzdHlsZT0iZmlsbDogI2ZmZmZmZiIgZD0iTSA0NS41NDczNDQgMjk4LjggJiMxMDtMIDU1Mi40MjczNDQgMjk4LjggJiMxMDtMIDU1Mi40MjczNDQgNy4yICYjMTA7TCA0NS41NDczNDQgNy4yICYjMTA7eiIvPiYjeGE7ICAgPC9nPiYjeGE7ICAgPGcgaWQ9Im1hdHBsb3RsaWIuYXhpc18xIj4mI3hhOyAgICA8ZyBpZD0ieHRpY2tfMSI+JiN4YTsgICAgIDxnIGlkPSJsaW5lMmRfMSI+JiN4YTsgICAgICA8cGF0aCBzdHlsZT0iZmlsbDogbm9uZTsgc3Ryb2tlOiAjZjJmMmYyOyBzdHJva2Utd2lkdGg6IDAuODsgc3Ryb2tlLWxpbmVjYXA6IHJvdW5kIiBjbGlwLXBhdGg9InVybCgjcGIwN2RkMzIwMzMpIiBkPSJNIDY3LjExNjcwNSAyOTguOCAmIzEwO0wgNjcuMTE2NzA1IDcuMiIvPiYjeGE7ICAgICA8L2c+JiN4YTsgICAgIDxnIGlkPSJ0ZXh0XzEiPiYjeGE7ICAgICAgJiN4YTsgICAgICA8ZyB0cmFuc2Zvcm09InRyYW5zbGF0ZSg2My41MDIwOTYgMzE2LjEwNTE1Nikgc2NhbGUoMC4xMyAtMC4xMykiIHN0eWxlPSJmaWxsOiAjMjYyNjI2Ij4mI3hhOyAgICAgICA8ZGVmcz4mI3hhOyAgICAgICAgPHBhdGggdHJhbnNmb3JtPSJzY2FsZSgwLjAxNTYyNSkiIGQ9Ik0gMjY2IDIyNTkgJiMxMDtRIDI2NiAzMDcyIDQzMyAzNTY3ICYjMTA7USA2MDAgNDA2MyA5MjkgNDMzMSAmIzEwO1EgMTI1OSA0NjAwIDE3NTkgNDYwMCAmIzEwO1EgMjEyOCA0NjAwIDI0MDYgNDQ1MSAmIzEwO1EgMjY4NCA0MzAzIDI4NjUgNDAyMyAmIzEwO1EgMzA0NyAzNzQ0IDMxNTAgMzM0MiAmIzEwO1EgMzI1MyAyOTQxIDMyNTMgMjI1OSAmIzEwO1EgMzI1MyAxNDUzIDMwODcgOTU4ICYjMTA7USAyOTIyIDQ2MyAyNTkyIDE5MiAmIzEwO1EgMjI2MyAtNzggMTc1OSAtNzggJiMxMDtRIDEwOTcgLTc4IDcxOSAzOTcgJiMxMDtRIDI2NiA5NjkgMjY2IDIyNTkgJiMxMDt6JiMxMDtNIDg0NCAyMjU5ICYjMTA7USA4NDQgMTEzMSAxMTA4IDc1NyAmIzEwO1EgMTM3MiAzODQgMTc1OSAzODQgJiMxMDtRIDIxNDcgMzg0IDI0MTEgNzU5ICYjMTA7USAyNjc1IDExMzQgMjY3NSAyMjU5ICYjMTA7USAyNjc1IDMzOTEgMjQxMSAzNzYyICYjMTA7USAyMTQ3IDQxMzQgMTc1MyA0MTM0ICYjMTA7USAxMzY2IDQxMzQgMTEzNCAzODA2ICYjMTA7USA4NDQgMzM4OCA4NDQgMjI1OSAmIzEwO3oiIGlkPSJBcmlhbE1ULTMwIi8+JiN4YTsgICAgICAgPC9kZWZzPiYjeGE7ICAgICAgIDx1c2UgeGxpbms6aHJlZj0iI0FyaWFsTVQtMzAiLz4mI3hhOyAgICAgIDwvZz4mI3hhOyAgICAgPC9nPiYjeGE7ICAgIDwvZz4mI3hhOyAgICA8ZyBpZD0ieHRpY2tfMiI+JiN4YTsgICAgIDxnIGlkPSJsaW5lMmRfMiI+JiN4YTsgICAgICA8cGF0aCBzdHlsZT0iZmlsbDogbm9uZTsgc3Ryb2tlOiAjZjJmMmYyOyBzdHJva2Utd2lkdGg6IDAuODsgc3Ryb2tlLWxpbmVjYXA6IHJvdW5kIiBjbGlwLXBhdGg9InVybCgjcGIwN2RkMzIwMzMpIiBkPSJNIDE3NC45NjM1MTQgMjk4LjggJiMxMDtMIDE3NC45NjM1MTQgNy4yIi8+JiN4YTsgICAgIDwvZz4mI3hhOyAgICAgPGcgaWQ9InRleHRfMiI+JiN4YTsgICAgICAmI3hhOyAgICAgIDxnIHRyYW5zZm9ybT0idHJhbnNsYXRlKDE2Ny43MzQyOTUgMzE2LjEwNTE1Nikgc2NhbGUoMC4xMyAtMC4xMykiIHN0eWxlPSJmaWxsOiAjMjYyNjI2Ij4mI3hhOyAgICAgICA8ZGVmcz4mI3hhOyAgICAgICAgPHBhdGggdHJhbnNmb3JtPSJzY2FsZSgwLjAxNTYyNSkiIGQ9Ik0gMjM4NCAwICYjMTA7TCAxODIyIDAgJiMxMDtMIDE4MjIgMzU4NCAmIzEwO1EgMTYxOSAzMzkxIDEyODkgMzE5NyAmIzEwO1EgOTU5IDMwMDMgNjk3IDI5MDYgJiMxMDtMIDY5NyAzNDUwICYjMTA7USAxMTY5IDM2NzIgMTUyMiAzOTg3ICYjMTA7USAxODc1IDQzMDMgMjAyMiA0NjAwICYjMTA7TCAyMzg0IDQ2MDAgJiMxMDtMIDIzODQgMCAmIzEwO3oiIGlkPSJBcmlhbE1ULTMxIi8+JiN4YTsgICAgICAgPC9kZWZzPiYjeGE7ICAgICAgIDx1c2UgeGxpbms6aHJlZj0iI0FyaWFsTVQtMzEiLz4mI3hhOyAgICAgICA8dXNlIHg9IjU1LjYxNTIzNCIgeGxpbms6aHJlZj0iI0FyaWFsTVQtMzAiLz4mI3hhOyAgICAgIDwvZz4mI3hhOyAgICAgPC9nPiYjeGE7ICAgIDwvZz4mI3hhOyAgICA8ZyBpZD0ieHRpY2tfMyI+JiN4YTsgICAgIDxnIGlkPSJsaW5lMmRfMyI+JiN4YTsgICAgICA8cGF0aCBzdHlsZT0iZmlsbDogbm9uZTsgc3Ryb2tlOiAjZjJmMmYyOyBzdHJva2Utd2lkdGg6IDAuODsgc3Ryb2tlLWxpbmVjYXA6IHJvdW5kIiBjbGlwLXBhdGg9InVybCgjcGIwN2RkMzIwMzMpIiBkPSJNIDI4Mi44MTAzMjIgMjk4LjggJiMxMDtMIDI4Mi44MTAzMjIgNy4yIi8+JiN4YTsgICAgIDwvZz4mI3hhOyAgICAgPGcgaWQ9InRleHRfMyI+JiN4YTsgICAgICAmI3hhOyAgICAgIDxnIHRyYW5zZm9ybT0idHJhbnNsYXRlKDI3NS41ODExMDQgMzE2LjEwNTE1Nikgc2NhbGUoMC4xMyAtMC4xMykiIHN0eWxlPSJmaWxsOiAjMjYyNjI2Ij4mI3hhOyAgICAgICA8ZGVmcz4mI3hhOyAgICAgICAgPHBhdGggdHJhbnNmb3JtPSJzY2FsZSgwLjAxNTYyNSkiIGQ9Ik0gMzIyMiA1NDEgJiMxMDtMIDMyMjIgMCAmIzEwO0wgMTk0IDAgJiMxMDtRIDE4OCAyMDMgMjU5IDM5MSAmIzEwO1EgMzc1IDcwMCA2MjkgMTAwMCAmIzEwO1EgODg0IDEzMDAgMTM2NiAxNjk0ICYjMTA7USAyMTEzIDIzMDYgMjM3NSAyNjY0ICYjMTA7USAyNjM4IDMwMjIgMjYzOCAzMzQxICYjMTA7USAyNjM4IDM2NzUgMjM5OCAzOTA0ICYjMTA7USAyMTU5IDQxMzQgMTc3NSA0MTM0ICYjMTA7USAxMzY5IDQxMzQgMTEyNSAzODkwICYjMTA7USA4ODEgMzY0NyA4NzggMzIxNiAmIzEwO0wgMzAwIDMyNzUgJiMxMDtRIDM1OSAzOTIyIDc0NiA0MjYxICYjMTA7USAxMTM0IDQ2MDAgMTc4OCA0NjAwICYjMTA7USAyNDQ3IDQ2MDAgMjgzMSA0MjM0ICYjMTA7USAzMjE2IDM4NjkgMzIxNiAzMzI4ICYjMTA7USAzMjE2IDMwNTMgMzEwMyAyNzg3ICYjMTA7USAyOTkxIDI1MjIgMjczMCAyMjI4ICYjMTA7USAyNDY5IDE5MzQgMTg2MyAxNDIyICYjMTA7USAxMzU2IDk5NyAxMjEyIDg0NSAmIzEwO1EgMTA2OSA2OTQgOTc1IDU0MSAmIzEwO0wgMzIyMiA1NDEgJiMxMDt6IiBpZD0iQXJpYWxNVC0zMiIvPiYjeGE7ICAgICAgIDwvZGVmcz4mI3hhOyAgICAgICA8dXNlIHhsaW5rOmhyZWY9IiNBcmlhbE1ULTMyIi8+JiN4YTsgICAgICAgPHVzZSB4PSI1NS42MTUyMzQiIHhsaW5rOmhyZWY9IiNBcmlhbE1ULTMwIi8+JiN4YTsgICAgICA8L2c+JiN4YTsgICAgIDwvZz4mI3hhOyAgICA8L2c+JiN4YTsgICAgPGcgaWQ9Inh0aWNrXzQiPiYjeGE7ICAgICA8ZyBpZD0ibGluZTJkXzQiPiYjeGE7ICAgICAgPHBhdGggc3R5bGU9ImZpbGw6IG5vbmU7IHN0cm9rZTogI2YyZjJmMjsgc3Ryb2tlLXdpZHRoOiAwLjg7IHN0cm9rZS1saW5lY2FwOiByb3VuZCIgY2xpcC1wYXRoPSJ1cmwoI3BiMDdkZDMyMDMzKSIgZD0iTSAzOTAuNjU3MTMxIDI5OC44ICYjMTA7TCAzOTAuNjU3MTMxIDcuMiIvPiYjeGE7ICAgICA8L2c+JiN4YTsgICAgIDxnIGlkPSJ0ZXh0XzQiPiYjeGE7ICAgICAgJiN4YTsgICAgICA8ZyB0cmFuc2Zvcm09InRyYW5zbGF0ZSgzODMuNDI3OTEyIDMxNi4xMDUxNTYpIHNjYWxlKDAuMTMgLTAuMTMpIiBzdHlsZT0iZmlsbDogIzI2MjYyNiI+JiN4YTsgICAgICAgPGRlZnM+JiN4YTsgICAgICAgIDxwYXRoIHRyYW5zZm9ybT0ic2NhbGUoMC4wMTU2MjUpIiBkPSJNIDI2OSAxMjA5ICYjMTA7TCA4MzEgMTI4NCAmIzEwO1EgOTI4IDgwNiAxMTYxIDU5NSAmIzEwO1EgMTM5NCAzODQgMTcyOCAzODQgJiMxMDtRIDIxMjUgMzg0IDIzOTggNjU5ICYjMTA7USAyNjcyIDkzNCAyNjcyIDEzNDEgJiMxMDtRIDI2NzIgMTcyOCAyNDE5IDE5NzkgJiMxMDtRIDIxNjYgMjIzMSAxNzc1IDIyMzEgJiMxMDtRIDE2MTYgMjIzMSAxMzc4IDIxNjkgJiMxMDtMIDE0NDEgMjY2MyAmIzEwO1EgMTQ5NyAyNjU2IDE1MzEgMjY1NiAmIzEwO1EgMTg5MSAyNjU2IDIxNzggMjg0MyAmIzEwO1EgMjQ2NiAzMDMxIDI0NjYgMzQyMiAmIzEwO1EgMjQ2NiAzNzMxIDIyNTYgMzkzNCAmIzEwO1EgMjA0NyA0MTM4IDE3MTYgNDEzOCAmIzEwO1EgMTM4OCA0MTM4IDExNjkgMzkzMSAmIzEwO1EgOTUwIDM3MjUgODg4IDMzMTMgJiMxMDtMIDMyNSAzNDEzICYjMTA7USA0MjggMzk3OCA3OTMgNDI4OSAmIzEwO1EgMTE1OSA0NjAwIDE3MDMgNDYwMCAmIzEwO1EgMjA3OCA0NjAwIDIzOTMgNDQzOSAmIzEwO1EgMjcwOSA0Mjc4IDI4NzYgNDAwMCAmIzEwO1EgMzA0NCAzNzIyIDMwNDQgMzQwOSAmIzEwO1EgMzA0NCAzMTEzIDI4ODQgMjg2OSAmIzEwO1EgMjcyNSAyNjI1IDI0MTMgMjQ4MSAmIzEwO1EgMjgxOSAyMzg4IDMwNDQgMjA5MiAmIzEwO1EgMzI2OSAxNzk3IDMyNjkgMTM1MyAmIzEwO1EgMzI2OSA3NTMgMjgzMSAzMzYgJiMxMDtRIDIzOTQgLTgxIDE3MjUgLTgxICYjMTA7USAxMTIyIC04MSA3MjMgMjc4ICYjMTA7USAzMjUgNjM4IDI2OSAxMjA5ICYjMTA7eiIgaWQ9IkFyaWFsTVQtMzMiLz4mI3hhOyAgICAgICA8L2RlZnM+JiN4YTsgICAgICAgPHVzZSB4bGluazpocmVmPSIjQXJpYWxNVC0zMyIvPiYjeGE7ICAgICAgIDx1c2UgeD0iNTUuNjE1MjM0IiB4bGluazpocmVmPSIjQXJpYWxNVC0zMCIvPiYjeGE7ICAgICAgPC9nPiYjeGE7ICAgICA8L2c+JiN4YTsgICAgPC9nPiYjeGE7ICAgIDxnIGlkPSJ4dGlja181Ij4mI3hhOyAgICAgPGcgaWQ9ImxpbmUyZF81Ij4mI3hhOyAgICAgIDxwYXRoIHN0eWxlPSJmaWxsOiBub25lOyBzdHJva2U6ICNmMmYyZjI7IHN0cm9rZS13aWR0aDogMC44OyBzdHJva2UtbGluZWNhcDogcm91bmQiIGNsaXAtcGF0aD0idXJsKCNwYjA3ZGQzMjAzMykiIGQ9Ik0gNDk4LjUwMzkzOSAyOTguOCAmIzEwO0wgNDk4LjUwMzkzOSA3LjIiLz4mI3hhOyAgICAgPC9nPiYjeGE7ICAgICA8ZyBpZD0idGV4dF81Ij4mI3hhOyAgICAgICYjeGE7ICAgICAgPGcgdHJhbnNmb3JtPSJ0cmFuc2xhdGUoNDkxLjI3NDcyMSAzMTYuMTA1MTU2KSBzY2FsZSgwLjEzIC0wLjEzKSIgc3R5bGU9ImZpbGw6ICMyNjI2MjYiPiYjeGE7ICAgICAgIDxkZWZzPiYjeGE7ICAgICAgICA8cGF0aCB0cmFuc2Zvcm09InNjYWxlKDAuMDE1NjI1KSIgZD0iTSAyMDY5IDAgJiMxMDtMIDIwNjkgMTA5NyAmIzEwO0wgODEgMTA5NyAmIzEwO0wgODEgMTYxMyAmIzEwO0wgMjE3MiA0NTgxICYjMTA7TCAyNjMxIDQ1ODEgJiMxMDtMIDI2MzEgMTYxMyAmIzEwO0wgMzI1MCAxNjEzICYjMTA7TCAzMjUwIDEwOTcgJiMxMDtMIDI2MzEgMTA5NyAmIzEwO0wgMjYzMSAwICYjMTA7TCAyMDY5IDAgJiMxMDt6JiMxMDtNIDIwNjkgMTYxMyAmIzEwO0wgMjA2OSAzNjc4ICYjMTA7TCA2MzQgMTYxMyAmIzEwO0wgMjA2OSAxNjEzICYjMTA7eiIgaWQ9IkFyaWFsTVQtMzQiLz4mI3hhOyAgICAgICA8L2RlZnM+JiN4YTsgICAgICAgPHVzZSB4bGluazpocmVmPSIjQXJpYWxNVC0zNCIvPiYjeGE7ICAgICAgIDx1c2UgeD0iNTUuNjE1MjM0IiB4bGluazpocmVmPSIjQXJpYWxNVC0zMCIvPiYjeGE7ICAgICAgPC9nPiYjeGE7ICAgICA8L2c+JiN4YTsgICAgPC9nPiYjeGE7ICAgPC9nPiYjeGE7ICAgPGcgaWQ9Im1hdHBsb3RsaWIuYXhpc18yIj4mI3hhOyAgICA8ZyBpZD0ieXRpY2tfMSI+JiN4YTsgICAgIDxnIGlkPSJsaW5lMmRfNiI+JiN4YTsgICAgICA8cGF0aCBzdHlsZT0iZmlsbDogbm9uZTsgc3Ryb2tlOiAjZjJmMmYyOyBzdHJva2Utd2lkdGg6IDAuODsgc3Ryb2tlLWxpbmVjYXA6IHJvdW5kIiBjbGlwLXBhdGg9InVybCgjcGIwN2RkMzIwMzMpIiBkPSJNIDQ1LjU0NzM0NCAyNzcuOTcxNDI5ICYjMTA7TCA1NTIuNDI3MzQ0IDI3Ny45NzE0MjkiLz4mI3hhOyAgICAgPC9nPiYjeGE7ICAgICA8ZyBpZD0idGV4dF82Ij4mI3hhOyAgICAgICYjeGE7ICAgICAgPGcgdHJhbnNmb3JtPSJ0cmFuc2xhdGUoMzAuMzE4MTI1IDI4Mi42MjQwMDcpIHNjYWxlKDAuMTMgLTAuMTMpIiBzdHlsZT0iZmlsbDogIzI2MjYyNiI+JiN4YTsgICAgICAgPHVzZSB4bGluazpocmVmPSIjQXJpYWxNVC0zMCIvPiYjeGE7ICAgICAgPC9nPiYjeGE7ICAgICA8L2c+JiN4YTsgICAgPC9nPiYjeGE7ICAgIDxnIGlkPSJ5dGlja18yIj4mI3hhOyAgICAgPGcgaWQ9ImxpbmUyZF83Ij4mI3hhOyAgICAgIDxwYXRoIHN0eWxlPSJmaWxsOiBub25lOyBzdHJva2U6ICNmMmYyZjI7IHN0cm9rZS13aWR0aDogMC44OyBzdHJva2UtbGluZWNhcDogcm91bmQiIGNsaXAtcGF0aD0idXJsKCNwYjA3ZGQzMjAzMykiIGQ9Ik0gNDUuNTQ3MzQ0IDIzNi4zMTQyODYgJiMxMDtMIDU1Mi40MjczNDQgMjM2LjMxNDI4NiIvPiYjeGE7ICAgICA8L2c+JiN4YTsgICAgIDxnIGlkPSJ0ZXh0XzciPiYjeGE7ICAgICAgJiN4YTsgICAgICA8ZyB0cmFuc2Zvcm09InRyYW5zbGF0ZSgzMC4zMTgxMjUgMjQwLjk2Njg2NCkgc2NhbGUoMC4xMyAtMC4xMykiIHN0eWxlPSJmaWxsOiAjMjYyNjI2Ij4mI3hhOyAgICAgICA8dXNlIHhsaW5rOmhyZWY9IiNBcmlhbE1ULTM0Ii8+JiN4YTsgICAgICA8L2c+JiN4YTsgICAgIDwvZz4mI3hhOyAgICA8L2c+JiN4YTsgICAgPGcgaWQ9Inl0aWNrXzMiPiYjeGE7ICAgICA8ZyBpZD0ibGluZTJkXzgiPiYjeGE7ICAgICAgPHBhdGggc3R5bGU9ImZpbGw6IG5vbmU7IHN0cm9rZTogI2YyZjJmMjsgc3Ryb2tlLXdpZHRoOiAwLjg7IHN0cm9rZS1saW5lY2FwOiByb3VuZCIgY2xpcC1wYXRoPSJ1cmwoI3BiMDdkZDMyMDMzKSIgZD0iTSA0NS41NDczNDQgMTk0LjY1NzE0MyAmIzEwO0wgNTUyLjQyNzM0NCAxOTQuNjU3MTQzIi8+JiN4YTsgICAgIDwvZz4mI3hhOyAgICAgPGcgaWQ9InRleHRfOCI+JiN4YTsgICAgICAmI3hhOyAgICAgIDxnIHRyYW5zZm9ybT0idHJhbnNsYXRlKDMwLjMxODEyNSAxOTkuMzA5NzIxKSBzY2FsZSgwLjEzIC0wLjEzKSIgc3R5bGU9ImZpbGw6ICMyNjI2MjYiPiYjeGE7ICAgICAgIDxkZWZzPiYjeGE7ICAgICAgICA8cGF0aCB0cmFuc2Zvcm09InNjYWxlKDAuMDE1NjI1KSIgZD0iTSAxMTMxIDI0ODQgJiMxMDtRIDc4MSAyNjEzIDYxMiAyODUwICYjMTA7USA0NDQgMzA4OCA0NDQgMzQxOSAmIzEwO1EgNDQ0IDM5MTkgODAzIDQyNTkgJiMxMDtRIDExNjMgNDYwMCAxNzU5IDQ2MDAgJiMxMDtRIDIzNTkgNDYwMCAyNzI1IDQyNTEgJiMxMDtRIDMwOTEgMzkwMyAzMDkxIDM0MDMgJiMxMDtRIDMwOTEgMzA4NCAyOTIzIDI4NDggJiMxMDtRIDI3NTYgMjYxMyAyNDE2IDI0ODQgJiMxMDtRIDI4MzggMjM0NyAzMDU4IDIwNDAgJiMxMDtRIDMyNzggMTczNCAzMjc4IDEzMDkgJiMxMDtRIDMyNzggNzIyIDI4NjIgMzIyICYjMTA7USAyNDQ3IC03OCAxNzY5IC03OCAmIzEwO1EgMTA5MSAtNzggNjc1IDMyMyAmIzEwO1EgMjU5IDcyNSAyNTkgMTMyNSAmIzEwO1EgMjU5IDE3NzIgNDg2IDIwNzMgJiMxMDtRIDcxMyAyMzc1IDExMzEgMjQ4NCAmIzEwO3omIzEwO00gMTAxOSAzNDM4ICYjMTA7USAxMDE5IDMxMTMgMTIyOCAyOTA2ICYjMTA7USAxNDM4IDI3MDAgMTc3MiAyNzAwICYjMTA7USAyMDk3IDI3MDAgMjMwNSAyOTA0ICYjMTA7USAyNTEzIDMxMDkgMjUxMyAzNDA2ICYjMTA7USAyNTEzIDM3MTYgMjI5OCAzOTI3ICYjMTA7USAyMDg0IDQxMzggMTc2NiA0MTM4ICYjMTA7USAxNDQ0IDQxMzggMTIzMSAzOTMxICYjMTA7USAxMDE5IDM3MjUgMTAxOSAzNDM4ICYjMTA7eiYjMTA7TSA4MzggMTMyMiAmIzEwO1EgODM4IDEwODEgOTUyIDg1NiAmIzEwO1EgMTA2NiA2MzEgMTI5MSA1MDcgJiMxMDtRIDE1MTYgMzg0IDE3NzUgMzg0ICYjMTA7USAyMTc4IDM4NCAyNDQwIDY0MyAmIzEwO1EgMjcwMyA5MDMgMjcwMyAxMzAzICYjMTA7USAyNzAzIDE3MDkgMjQzMyAxOTc1ICYjMTA7USAyMTYzIDIyNDEgMTc1NiAyMjQxICYjMTA7USAxMzU5IDIyNDEgMTA5OCAxOTc4ICYjMTA7USA4MzggMTcxNiA4MzggMTMyMiAmIzEwO3oiIGlkPSJBcmlhbE1ULTM4Ii8+JiN4YTsgICAgICAgPC9kZWZzPiYjeGE7ICAgICAgIDx1c2UgeGxpbms6aHJlZj0iI0FyaWFsTVQtMzgiLz4mI3hhOyAgICAgIDwvZz4mI3hhOyAgICAgPC9nPiYjeGE7ICAgIDwvZz4mI3hhOyAgICA8ZyBpZD0ieXRpY2tfNCI+JiN4YTsgICAgIDxnIGlkPSJsaW5lMmRfOSI+JiN4YTsgICAgICA8cGF0aCBzdHlsZT0iZmlsbDogbm9uZTsgc3Ryb2tlOiAjZjJmMmYyOyBzdHJva2Utd2lkdGg6IDAuODsgc3Ryb2tlLWxpbmVjYXA6IHJvdW5kIiBjbGlwLXBhdGg9InVybCgjcGIwN2RkMzIwMzMpIiBkPSJNIDQ1LjU0NzM0NCAxNTMgJiMxMDtMIDU1Mi40MjczNDQgMTUzIi8+JiN4YTsgICAgIDwvZz4mI3hhOyAgICAgPGcgaWQ9InRleHRfOSI+JiN4YTsgICAgICAmI3hhOyAgICAgIDxnIHRyYW5zZm9ybT0idHJhbnNsYXRlKDIzLjA4ODkwNiAxNTcuNjUyNTc4KSBzY2FsZSgwLjEzIC0wLjEzKSIgc3R5bGU9ImZpbGw6ICMyNjI2MjYiPiYjeGE7ICAgICAgIDx1c2UgeGxpbms6aHJlZj0iI0FyaWFsTVQtMzEiLz4mI3hhOyAgICAgICA8dXNlIHg9IjU1LjYxNTIzNCIgeGxpbms6aHJlZj0iI0FyaWFsTVQtMzIiLz4mI3hhOyAgICAgIDwvZz4mI3hhOyAgICAgPC9nPiYjeGE7ICAgIDwvZz4mI3hhOyAgICA8ZyBpZD0ieXRpY2tfNSI+JiN4YTsgICAgIDxnIGlkPSJsaW5lMmRfMTAiPiYjeGE7ICAgICAgPHBhdGggc3R5bGU9ImZpbGw6IG5vbmU7IHN0cm9rZTogI2YyZjJmMjsgc3Ryb2tlLXdpZHRoOiAwLjg7IHN0cm9rZS1saW5lY2FwOiByb3VuZCIgY2xpcC1wYXRoPSJ1cmwoI3BiMDdkZDMyMDMzKSIgZD0iTSA0NS41NDczNDQgMTExLjM0Mjg1NyAmIzEwO0wgNTUyLjQyNzM0NCAxMTEuMzQyODU3Ii8+JiN4YTsgICAgIDwvZz4mI3hhOyAgICAgPGcgaWQ9InRleHRfMTAiPiYjeGE7ICAgICAgJiN4YTsgICAgICA8ZyB0cmFuc2Zvcm09InRyYW5zbGF0ZSgyMy4wODg5MDYgMTE1Ljk5NTQzNSkgc2NhbGUoMC4xMyAtMC4xMykiIHN0eWxlPSJmaWxsOiAjMjYyNjI2Ij4mI3hhOyAgICAgICA8ZGVmcz4mI3hhOyAgICAgICAgPHBhdGggdHJhbnNmb3JtPSJzY2FsZSgwLjAxNTYyNSkiIGQ9Ik0gMzE4NCAzNDU5ICYjMTA7TCAyNjI1IDM0MTYgJiMxMDtRIDI1NTAgMzc0NyAyNDEzIDM4OTcgJiMxMDtRIDIxODQgNDEzOCAxODUwIDQxMzggJiMxMDtRIDE1ODEgNDEzOCAxMzc4IDM5ODggJiMxMDtRIDExMTMgMzc5NCA5NTkgMzQyMiAmIzEwO1EgODA2IDMwNTAgODAwIDIzNjMgJiMxMDtRIDEwMDMgMjY3MiAxMjk3IDI4MjIgJiMxMDtRIDE1OTEgMjk3MiAxOTEzIDI5NzIgJiMxMDtRIDI0NzUgMjk3MiAyODcwIDI1NTggJiMxMDtRIDMyNjYgMjE0NCAzMjY2IDE0ODggJiMxMDtRIDMyNjYgMTA1NiAzMDgwIDY4NiAmIzEwO1EgMjg5NCAzMTYgMjU2OSAxMTkgJiMxMDtRIDIyNDQgLTc4IDE4MzEgLTc4ICYjMTA7USAxMTI4IC03OCA2ODQgNDM5ICYjMTA7USAyNDEgOTU2IDI0MSAyMTQ0ICYjMTA7USAyNDEgMzQ3MiA3MzEgNDA3NSAmIzEwO1EgMTE1OSA0NjAwIDE4ODQgNDYwMCAmIzEwO1EgMjQyNSA0NjAwIDI3NzAgNDI5NyAmIzEwO1EgMzExNiAzOTk0IDMxODQgMzQ1OSAmIzEwO3omIzEwO00gODg4IDE0ODQgJiMxMDtRIDg4OCAxMTk0IDEwMTEgOTI4ICYjMTA7USAxMTM0IDY2MyAxMzU2IDUyMyAmIzEwO1EgMTU3OCAzODQgMTgyMiAzODQgJiMxMDtRIDIxNzggMzg0IDI0MzQgNjcxICYjMTA7USAyNjkxIDk1OSAyNjkxIDE0NTMgJiMxMDtRIDI2OTEgMTkyOCAyNDM3IDIyMDEgJiMxMDtRIDIxODQgMjQ3NSAxODAwIDI0NzUgJiMxMDtRIDE0MTkgMjQ3NSAxMTUzIDIyMDEgJiMxMDtRIDg4OCAxOTI4IDg4OCAxNDg0ICYjMTA7eiIgaWQ9IkFyaWFsTVQtMzYiLz4mI3hhOyAgICAgICA8L2RlZnM+JiN4YTsgICAgICAgPHVzZSB4bGluazpocmVmPSIjQXJpYWxNVC0zMSIvPiYjeGE7ICAgICAgIDx1c2UgeD0iNTUuNjE1MjM0IiB4bGluazpocmVmPSIjQXJpYWxNVC0zNiIvPiYjeGE7ICAgICAgPC9nPiYjeGE7ICAgICA8L2c+JiN4YTsgICAgPC9nPiYjeGE7ICAgIDxnIGlkPSJ5dGlja182Ij4mI3hhOyAgICAgPGcgaWQ9ImxpbmUyZF8xMSI+JiN4YTsgICAgICA8cGF0aCBzdHlsZT0iZmlsbDogbm9uZTsgc3Ryb2tlOiAjZjJmMmYyOyBzdHJva2Utd2lkdGg6IDAuODsgc3Ryb2tlLWxpbmVjYXA6IHJvdW5kIiBjbGlwLXBhdGg9InVybCgjcGIwN2RkMzIwMzMpIiBkPSJNIDQ1LjU0NzM0NCA2OS42ODU3MTQgJiMxMDtMIDU1Mi40MjczNDQgNjkuNjg1NzE0Ii8+JiN4YTsgICAgIDwvZz4mI3hhOyAgICAgPGcgaWQ9InRleHRfMTEiPiYjeGE7ICAgICAgJiN4YTsgICAgICA8ZyB0cmFuc2Zvcm09InRyYW5zbGF0ZSgyMy4wODg5MDYgNzQuMzM4MjkyKSBzY2FsZSgwLjEzIC0wLjEzKSIgc3R5bGU9ImZpbGw6ICMyNjI2MjYiPiYjeGE7ICAgICAgIDx1c2UgeGxpbms6aHJlZj0iI0FyaWFsTVQtMzIiLz4mI3hhOyAgICAgICA8dXNlIHg9IjU1LjYxNTIzNCIgeGxpbms6aHJlZj0iI0FyaWFsTVQtMzAiLz4mI3hhOyAgICAgIDwvZz4mI3hhOyAgICAgPC9nPiYjeGE7ICAgIDwvZz4mI3hhOyAgICA8ZyBpZD0ieXRpY2tfNyI+JiN4YTsgICAgIDxnIGlkPSJsaW5lMmRfMTIiPiYjeGE7ICAgICAgPHBhdGggc3R5bGU9ImZpbGw6IG5vbmU7IHN0cm9rZTogI2YyZjJmMjsgc3Ryb2tlLXdpZHRoOiAwLjg7IHN0cm9rZS1saW5lY2FwOiByb3VuZCIgY2xpcC1wYXRoPSJ1cmwoI3BiMDdkZDMyMDMzKSIgZD0iTSA0NS41NDczNDQgMjguMDI4NTcxICYjMTA7TCA1NTIuNDI3MzQ0IDI4LjAyODU3MSIvPiYjeGE7ICAgICA8L2c+JiN4YTsgICAgIDxnIGlkPSJ0ZXh0XzEyIj4mI3hhOyAgICAgICYjeGE7ICAgICAgPGcgdHJhbnNmb3JtPSJ0cmFuc2xhdGUoMjMuMDg4OTA2IDMyLjY4MTE1KSBzY2FsZSgwLjEzIC0wLjEzKSIgc3R5bGU9ImZpbGw6ICMyNjI2MjYiPiYjeGE7ICAgICAgIDx1c2UgeGxpbms6aHJlZj0iI0FyaWFsTVQtMzIiLz4mI3hhOyAgICAgICA8dXNlIHg9IjU1LjYxNTIzNCIgeGxpbms6aHJlZj0iI0FyaWFsTVQtMzQiLz4mI3hhOyAgICAgIDwvZz4mI3hhOyAgICAgPC9nPiYjeGE7ICAgIDwvZz4mI3hhOyAgICA8ZyBpZD0idGV4dF8xMyI+JiN4YTsgICAgICYjeGE7ICAgICA8ZyB0cmFuc2Zvcm09InRyYW5zbGF0ZSgxNi41MDUxNTYgMjI0LjE1MzY3Mikgcm90YXRlKC05MCkgc2NhbGUoMC4xMyAtMC4xMykiIHN0eWxlPSJmaWxsOiAjMjYyNjI2Ij4mI3hhOyAgICAgIDxkZWZzPiYjeGE7ICAgICAgIDxwYXRoIHRyYW5zZm9ybT0ic2NhbGUoMC4wMTU2MjUpIiBkPSJNIDQ4OCAwICYjMTA7TCA0ODggNDU4MSAmIzEwO0wgMTEwOSA0NTgxICYjMTA7TCAzNTE2IDk4NCAmIzEwO0wgMzUxNiA0NTgxICYjMTA7TCA0MDk3IDQ1ODEgJiMxMDtMIDQwOTcgMCAmIzEwO0wgMzQ3NSAwICYjMTA7TCAxMDY5IDM2MDAgJiMxMDtMIDEwNjkgMCAmIzEwO0wgNDg4IDAgJiMxMDt6IiBpZD0iQXJpYWxNVC00ZSIvPiYjeGE7ICAgICAgIDxwYXRoIHRyYW5zZm9ybT0ic2NhbGUoMC4wMTU2MjUpIiBkPSJNIDI1OTcgMCAmIzEwO0wgMjU5NyA0ODggJiMxMDtRIDIyMDkgLTc1IDE1NDQgLTc1ICYjMTA7USAxMjUwIC03NSA5OTUgMzcgJiMxMDtRIDc0MSAxNTAgNjE3IDMyMCAmIzEwO1EgNDk0IDQ5MSA0NDQgNzM4ICYjMTA7USA0MDkgOTAzIDQwOSAxMjYzICYjMTA7TCA0MDkgMzMxOSAmIzEwO0wgOTcyIDMzMTkgJiMxMDtMIDk3MiAxNDc4ICYjMTA7USA5NzIgMTAzOCAxMDA2IDg4NCAmIzEwO1EgMTA1OSA2NjMgMTIzMSA1MzYgJiMxMDtRIDE0MDMgNDA5IDE2NTYgNDA5ICYjMTA7USAxOTA5IDQwOSAyMTMxIDUzOSAmIzEwO1EgMjM1MyA2NjkgMjQ0NSA4OTIgJiMxMDtRIDI1MzggMTExNiAyNTM4IDE1NDEgJiMxMDtMIDI1MzggMzMxOSAmIzEwO0wgMzEwMCAzMzE5ICYjMTA7TCAzMTAwIDAgJiMxMDtMIDI1OTcgMCAmIzEwO3oiIGlkPSJBcmlhbE1ULTc1Ii8+JiN4YTsgICAgICAgPHBhdGggdHJhbnNmb3JtPSJzY2FsZSgwLjAxNTYyNSkiIGQ9Ik0gNDIyIDAgJiMxMDtMIDQyMiAzMzE5ICYjMTA7TCA5MjUgMzMxOSAmIzEwO0wgOTI1IDI4NTMgJiMxMDtRIDEwODEgMzA5NyAxMzQwIDMyNDUgJiMxMDtRIDE2MDAgMzM5NCAxOTMxIDMzOTQgJiMxMDtRIDIzMDAgMzM5NCAyNTM2IDMyNDEgJiMxMDtRIDI3NzIgMzA4OCAyODY5IDI4MTMgJiMxMDtRIDMyNjMgMzM5NCAzODk0IDMzOTQgJiMxMDtRIDQzODggMzM5NCA0NjUzIDMxMjAgJiMxMDtRIDQ5MTkgMjg0NyA0OTE5IDIyNzggJiMxMDtMIDQ5MTkgMCAmIzEwO0wgNDM1OSAwICYjMTA7TCA0MzU5IDIwOTEgJiMxMDtRIDQzNTkgMjQyOCA0MzA0IDI1NzYgJiMxMDtRIDQyNTAgMjcyNSA0MTA2IDI4MTUgJiMxMDtRIDM5NjMgMjkwNiAzNzY5IDI5MDYgJiMxMDtRIDM0MTkgMjkwNiAzMTg3IDI2NzMgJiMxMDtRIDI5NTYgMjQ0MSAyOTU2IDE5MjggJiMxMDtMIDI5NTYgMCAmIzEwO0wgMjM5NCAwICYjMTA7TCAyMzk0IDIxNTYgJiMxMDtRIDIzOTQgMjUzMSAyMjU2IDI3MTggJiMxMDtRIDIxMTkgMjkwNiAxODA2IDI5MDYgJiMxMDtRIDE1NjkgMjkwNiAxMzY3IDI3ODEgJiMxMDtRIDExNjYgMjY1NiAxMDc1IDI0MTUgJiMxMDtRIDk4NCAyMTc1IDk4NCAxNzIyICYjMTA7TCA5ODQgMCAmIzEwO0wgNDIyIDAgJiMxMDt6IiBpZD0iQXJpYWxNVC02ZCIvPiYjeGE7ICAgICAgIDxwYXRoIHRyYW5zZm9ybT0ic2NhbGUoMC4wMTU2MjUpIiBkPSJNIDk0MSAwICYjMTA7TCA0MTkgMCAmIzEwO0wgNDE5IDQ1ODEgJiMxMDtMIDk4MSA0NTgxICYjMTA7TCA5ODEgMjk0NyAmIzEwO1EgMTMzOCAzMzk0IDE4OTEgMzM5NCAmIzEwO1EgMjE5NyAzMzk0IDI0NzAgMzI3MCAmIzEwO1EgMjc0NCAzMTQ3IDI5MjAgMjkyMyAmIzEwO1EgMzA5NyAyNzAwIDMxOTcgMjM4NCAmIzEwO1EgMzI5NyAyMDY5IDMyOTcgMTcwOSAmIzEwO1EgMzI5NyA4NTYgMjg3NSAzOTAgJiMxMDtRIDI0NTMgLTc1IDE4NjMgLTc1ICYjMTA7USAxMjc1IC03NSA5NDEgNDE2ICYjMTA7TCA5NDEgMCAmIzEwO3omIzEwO00gOTM0IDE2ODQgJiMxMDtRIDkzNCAxMDg4IDEwOTcgODIyICYjMTA7USAxMzYzIDM4OCAxODE2IDM4OCAmIzEwO1EgMjE4NCAzODggMjQ1MyA3MDggJiMxMDtRIDI3MjIgMTAyOCAyNzIyIDE2NjMgJiMxMDtRIDI3MjIgMjMxMyAyNDY0IDI2MjIgJiMxMDtRIDIyMDYgMjkzMSAxODQxIDI5MzEgJiMxMDtRIDE0NzIgMjkzMSAxMjAzIDI2MTEgJiMxMDtRIDkzNCAyMjkxIDkzNCAxNjg0ICYjMTA7eiIgaWQ9IkFyaWFsTVQtNjIiLz4mI3hhOyAgICAgICA8cGF0aCB0cmFuc2Zvcm09InNjYWxlKDAuMDE1NjI1KSIgZD0iTSAyNjk0IDEwNjkgJiMxMDtMIDMyNzUgOTk3ICYjMTA7USAzMTM4IDQ4OCAyNzY2IDIwNiAmIzEwO1EgMjM5NCAtNzUgMTgxNiAtNzUgJiMxMDtRIDEwODggLTc1IDY2MSAzNzMgJiMxMDtRIDIzNCA4MjIgMjM0IDE2MzEgJiMxMDtRIDIzNCAyNDY5IDY2NSAyOTMxICYjMTA7USAxMDk3IDMzOTQgMTc4NCAzMzk0ICYjMTA7USAyNDUwIDMzOTQgMjg3MiAyOTQxICYjMTA7USAzMjk0IDI0ODggMzI5NCAxNjY2ICYjMTA7USAzMjk0IDE2MTYgMzI5MSAxNTE2ICYjMTA7TCA4MTYgMTUxNiAmIzEwO1EgODQ3IDk2OSAxMTI1IDY3OCAmIzEwO1EgMTQwMyAzODggMTgxOSAzODggJiMxMDtRIDIxMjggMzg4IDIzNDcgNTUwICYjMTA7USAyNTY2IDcxMyAyNjk0IDEwNjkgJiMxMDt6JiMxMDtNIDg0NyAxOTc4ICYjMTA7TCAyNzAwIDE5NzggJiMxMDtRIDI2NjMgMjM5NyAyNDg4IDI2MDYgJiMxMDtRIDIyMTkgMjkzMSAxNzkxIDI5MzEgJiMxMDtRIDE0MDMgMjkzMSAxMTM5IDI2NzIgJiMxMDtRIDg3NSAyNDEzIDg0NyAxOTc4ICYjMTA7eiIgaWQ9IkFyaWFsTVQtNjUiLz4mI3hhOyAgICAgICA8cGF0aCB0cmFuc2Zvcm09InNjYWxlKDAuMDE1NjI1KSIgZD0iTSA0MTYgMCAmIzEwO0wgNDE2IDMzMTkgJiMxMDtMIDkyMiAzMzE5ICYjMTA7TCA5MjIgMjgxNiAmIzEwO1EgMTExNiAzMTY5IDEyODAgMzI4MSAmIzEwO1EgMTQ0NCAzMzk0IDE2NDEgMzM5NCAmIzEwO1EgMTkyNSAzMzk0IDIyMTkgMzIxMyAmIzEwO0wgMjAyNSAyNjkxICYjMTA7USAxODE5IDI4MTMgMTYxMyAyODEzICYjMTA7USAxNDI4IDI4MTMgMTI4MSAyNzAyICYjMTA7USAxMTM0IDI1OTEgMTA3MiAyMzk0ICYjMTA7USA5NzggMjA5NCA5NzggMTczOCAmIzEwO0wgOTc4IDAgJiMxMDtMIDQxNiAwICYjMTA7eiIgaWQ9IkFyaWFsTVQtNzIiLz4mI3hhOyAgICAgICA8cGF0aCB0cmFuc2Zvcm09InNjYWxlKDAuMDE1NjI1KSIgaWQ9IkFyaWFsTVQtMjAiLz4mI3hhOyAgICAgICA8cGF0aCB0cmFuc2Zvcm09InNjYWxlKDAuMDE1NjI1KSIgZD0iTSAyMTMgMTY1OSAmIzEwO1EgMjEzIDI1ODEgNzI1IDMwMjUgJiMxMDtRIDExNTMgMzM5NCAxNzY5IDMzOTQgJiMxMDtRIDI0NTMgMzM5NCAyODg3IDI5NDUgJiMxMDtRIDMzMjIgMjQ5NyAzMzIyIDE3MDYgJiMxMDtRIDMzMjIgMTA2NiAzMTMwIDY5OCAmIzEwO1EgMjkzOCAzMzEgMjU3MCAxMjggJiMxMDtRIDIyMDMgLTc1IDE3NjkgLTc1ICYjMTA7USAxMDcyIC03NSA2NDIgMzcyICYjMTA7USAyMTMgODE5IDIxMyAxNjU5ICYjMTA7eiYjMTA7TSA3OTEgMTY1OSAmIzEwO1EgNzkxIDEwMjIgMTA2OSA3MDUgJiMxMDtRIDEzNDcgMzg4IDE3NjkgMzg4ICYjMTA7USAyMTg4IDM4OCAyNDY2IDcwNiAmIzEwO1EgMjc0NCAxMDI1IDI3NDQgMTY3OCAmIzEwO1EgMjc0NCAyMjk0IDI0NjQgMjYxMSAmIzEwO1EgMjE4NCAyOTI4IDE3NjkgMjkyOCAmIzEwO1EgMTM0NyAyOTI4IDEwNjkgMjYxMiAmIzEwO1EgNzkxIDIyOTcgNzkxIDE2NTkgJiMxMDt6IiBpZD0iQXJpYWxNVC02ZiIvPiYjeGE7ICAgICAgIDxwYXRoIHRyYW5zZm9ybT0ic2NhbGUoMC4wMTU2MjUpIiBkPSJNIDU1NiAwICYjMTA7TCA1NTYgMjg4MSAmIzEwO0wgNTkgMjg4MSAmIzEwO0wgNTkgMzMxOSAmIzEwO0wgNTU2IDMzMTkgJiMxMDtMIDU1NiAzNjcyICYjMTA7USA1NTYgNDAwNiA2MTYgNDE2OSAmIzEwO1EgNjk3IDQzODggOTAxIDQ1MjMgJiMxMDtRIDExMDYgNDY1OSAxNDc1IDQ2NTkgJiMxMDtRIDE3MTMgNDY1OSAyMDAwIDQ2MDMgJiMxMDtMIDE5MTYgNDExMyAmIzEwO1EgMTc0MSA0MTQ0IDE1ODQgNDE0NCAmIzEwO1EgMTMyOCA0MTQ0IDEyMjIgNDAzNCAmIzEwO1EgMTExNiAzOTI1IDExMTYgMzYyNSAmIzEwO0wgMTExNiAzMzE5ICYjMTA7TCAxNzYzIDMzMTkgJiMxMDtMIDE3NjMgMjg4MSAmIzEwO0wgMTExNiAyODgxICYjMTA7TCAxMTE2IDAgJiMxMDtMIDU1NiAwICYjMTA7eiIgaWQ9IkFyaWFsTVQtNjYiLz4mI3hhOyAgICAgICA8cGF0aCB0cmFuc2Zvcm09InNjYWxlKDAuMDE1NjI1KSIgZD0iTSA0OTQgMCAmIzEwO0wgNDk0IDQ1ODEgJiMxMDtMIDIwNzIgNDU4MSAmIzEwO1EgMjYwNiA0NTgxIDI4ODggNDUxNiAmIzEwO1EgMzI4MSA0NDI1IDM1NTkgNDE4OCAmIzEwO1EgMzkyMiAzODgxIDQxMDEgMzQwNCAmIzEwO1EgNDI4MSAyOTI4IDQyODEgMjMxNiAmIzEwO1EgNDI4MSAxNzk0IDQxNTkgMTM5MSAmIzEwO1EgNDAzOCA5ODggMzg0NyA3MjMgJiMxMDtRIDM2NTYgNDU5IDM0MjkgMzA3ICYjMTA7USAzMjAzIDE1NiAyODgzIDc4ICYjMTA7USAyNTYzIDAgMjE0NyAwICYjMTA7TCA0OTQgMCAmIzEwO3omIzEwO00gMTEwMCA1NDEgJiMxMDtMIDIwNzggNTQxICYjMTA7USAyNTMxIDU0MSAyNzg5IDYyNSAmIzEwO1EgMzA0NyA3MDkgMzIwMCA4NjMgJiMxMDtRIDM0MTYgMTA3OCAzNTM2IDE0NDIgJiMxMDtRIDM2NTYgMTgwNiAzNjU2IDIzMjUgJiMxMDtRIDM2NTYgMzA0NCAzNDIwIDM0MzAgJiMxMDtRIDMxODQgMzgxNiAyODQ3IDM5NDcgJiMxMDtRIDI2MDMgNDA0MSAyMDYzIDQwNDEgJiMxMDtMIDExMDAgNDA0MSAmIzEwO0wgMTEwMCA1NDEgJiMxMDt6IiBpZD0iQXJpYWxNVC00NCIvPiYjeGE7ICAgICAgIDxwYXRoIHRyYW5zZm9ybT0ic2NhbGUoMC4wMTU2MjUpIiBkPSJNIDQyNSAzOTM0ICYjMTA7TCA0MjUgNDU4MSAmIzEwO0wgOTg4IDQ1ODEgJiMxMDtMIDk4OCAzOTM0ICYjMTA7TCA0MjUgMzkzNCAmIzEwO3omIzEwO00gNDI1IDAgJiMxMDtMIDQyNSAzMzE5ICYjMTA7TCA5ODggMzMxOSAmIzEwO0wgOTg4IDAgJiMxMDtMIDQyNSAwICYjMTA7eiIgaWQ9IkFyaWFsTVQtNjkiLz4mI3hhOyAgICAgICA8cGF0aCB0cmFuc2Zvcm09InNjYWxlKDAuMDE1NjI1KSIgZD0iTSAxOTcgOTkxICYjMTA7TCA3NTMgMTA3OCAmIzEwO1EgODAwIDc0NCAxMDE0IDU2NiAmIzEwO1EgMTIyOCAzODggMTYxMyAzODggJiMxMDtRIDIwMDAgMzg4IDIxODcgNTQ1ICYjMTA7USAyMzc1IDcwMyAyMzc1IDkxNiAmIzEwO1EgMjM3NSAxMTA2IDIyMDkgMTIxNiAmIzEwO1EgMjA5NCAxMjkxIDE2MzQgMTQwNiAmIzEwO1EgMTAxNiAxNTYzIDc3NyAxNjc3ICYjMTA7USA1MzggMTc5MSA0MTQgMTk5MiAmIzEwO1EgMjkxIDIxOTQgMjkxIDI0MzggJiMxMDtRIDI5MSAyNjU5IDM5MiAyODQ4ICYjMTA7USA0OTQgMzAzOCA2NjkgMzE2MyAmIzEwO1EgODAwIDMyNTkgMTAyNiAzMzI2ICYjMTA7USAxMjUzIDMzOTQgMTUxMyAzMzk0ICYjMTA7USAxOTAzIDMzOTQgMjE5OCAzMjgxICYjMTA7USAyNDk0IDMxNjkgMjYzNCAyOTc2ICYjMTA7USAyNzc1IDI3ODQgMjgyOCAyNDYzICYjMTA7TCAyMjc4IDIzODggJiMxMDtRIDIyNDEgMjY0NCAyMDYxIDI3ODcgJiMxMDtRIDE4ODEgMjkzMSAxNTUzIDI5MzEgJiMxMDtRIDExNjYgMjkzMSAxMDAwIDI4MDMgJiMxMDtRIDgzNCAyNjc1IDgzNCAyNTAzICYjMTA7USA4MzQgMjM5NCA5MDMgMjMwNiAmIzEwO1EgOTcyIDIyMTYgMTExOSAyMTU2ICYjMTA7USAxMjAzIDIxMjUgMTYxNiAyMDEzICYjMTA7USAyMjEzIDE4NTMgMjQ0OCAxNzUxICYjMTA7USAyNjg0IDE2NTAgMjgxOCAxNDU2ICYjMTA7USAyOTUzIDEyNjMgMjk1MyA5NzUgJiMxMDtRIDI5NTMgNjk0IDI3ODkgNDQ1ICYjMTA7USAyNjI1IDE5NyAyMzE1IDYxICYjMTA7USAyMDA2IC03NSAxNjE2IC03NSAmIzEwO1EgOTY5IC03NSA2MzAgMTk0ICYjMTA7USAyOTEgNDYzIDE5NyA5OTEgJiMxMDt6IiBpZD0iQXJpYWxNVC03MyIvPiYjeGE7ICAgICAgIDxwYXRoIHRyYW5zZm9ybT0ic2NhbGUoMC4wMTU2MjUpIiBkPSJNIDE2NTAgNTAzICYjMTA7TCAxNzMxIDYgJiMxMDtRIDE0OTQgLTQ0IDEzMDYgLTQ0ICYjMTA7USAxMDAwIC00NCA4MzEgNTMgJiMxMDtRIDY2MyAxNTAgNTk0IDMwOCAmIzEwO1EgNTI1IDQ2NiA1MjUgOTcyICYjMTA7TCA1MjUgMjg4MSAmIzEwO0wgMTEzIDI4ODEgJiMxMDtMIDExMyAzMzE5ICYjMTA7TCA1MjUgMzMxOSAmIzEwO0wgNTI1IDQxNDEgJiMxMDtMIDEwODQgNDQ3OCAmIzEwO0wgMTA4NCAzMzE5ICYjMTA7TCAxNjUwIDMzMTkgJiMxMDtMIDE2NTAgMjg4MSAmIzEwO0wgMTA4NCAyODgxICYjMTA7TCAxMDg0IDk0MSAmIzEwO1EgMTA4NCA3MDAgMTExNCA2MzEgJiMxMDtRIDExNDQgNTYzIDEyMTEgNTIyICYjMTA7USAxMjc4IDQ4MSAxNDAzIDQ4MSAmIzEwO1EgMTQ5NyA0ODEgMTY1MCA1MDMgJiMxMDt6IiBpZD0iQXJpYWxNVC03NCIvPiYjeGE7ICAgICAgIDxwYXRoIHRyYW5zZm9ybT0ic2NhbGUoMC4wMTU2MjUpIiBkPSJNIDQyMiAwICYjMTA7TCA0MjIgMzMxOSAmIzEwO0wgOTI4IDMzMTkgJiMxMDtMIDkyOCAyODQ3ICYjMTA7USAxMjk0IDMzOTQgMTk4NCAzMzk0ICYjMTA7USAyMjg0IDMzOTQgMjUzNiAzMjg2ICYjMTA7USAyNzg4IDMxNzggMjkxMyAzMDAzICYjMTA7USAzMDM4IDI4MjggMzA4OCAyNTg4ICYjMTA7USAzMTE5IDI0MzEgMzExOSAyMDQxICYjMTA7TCAzMTE5IDAgJiMxMDtMIDI1NTYgMCAmIzEwO0wgMjU1NiAyMDE5ICYjMTA7USAyNTU2IDIzNjMgMjQ5MCAyNTMzICYjMTA7USAyNDI1IDI3MDMgMjI1OCAyODA0ICYjMTA7USAyMDkxIDI5MDYgMTg2NiAyOTA2ICYjMTA7USAxNTA2IDI5MDYgMTI0NSAyNjc4ICYjMTA7USA5ODQgMjQ1MCA5ODQgMTgxMyAmIzEwO0wgOTg0IDAgJiMxMDtMIDQyMiAwICYjMTA7eiIgaWQ9IkFyaWFsTVQtNmUiLz4mI3hhOyAgICAgICA8cGF0aCB0cmFuc2Zvcm09InNjYWxlKDAuMDE1NjI1KSIgZD0iTSAyNTg4IDEyMTYgJiMxMDtMIDMxNDEgMTE0NCAmIzEwO1EgMzA1MCA1NzIgMjY3NiAyNDggJiMxMDtRIDIzMDMgLTc1IDE3NTkgLTc1ICYjMTA7USAxMDc4IC03NSA2NjQgMzcwICYjMTA7USAyNTAgODE2IDI1MCAxNjQ3ICYjMTA7USAyNTAgMjE4NCA0MjggMjU4NyAmIzEwO1EgNjA2IDI5OTEgOTcwIDMxOTIgJiMxMDtRIDEzMzQgMzM5NCAxNzYzIDMzOTQgJiMxMDtRIDIzMDMgMzM5NCAyNjQ3IDMxMjAgJiMxMDtRIDI5OTEgMjg0NyAzMDg4IDIzNDQgJiMxMDtMIDI1NDEgMjI1OSAmIzEwO1EgMjQ2MyAyNTk0IDIyNjQgMjc2MiAmIzEwO1EgMjA2NiAyOTMxIDE3ODQgMjkzMSAmIzEwO1EgMTM1OSAyOTMxIDEwOTMgMjYyNiAmIzEwO1EgODI4IDIzMjIgODI4IDE2NjMgJiMxMDtRIDgyOCA5OTQgMTA4NCA2OTEgJiMxMDtRIDEzNDEgMzg4IDE3NTMgMzg4ICYjMTA7USAyMDg0IDM4OCAyMzA2IDU5MSAmIzEwO1EgMjUyOCA3OTQgMjU4OCAxMjE2ICYjMTA7eiIgaWQ9IkFyaWFsTVQtNjMiLz4mI3hhOyAgICAgICA8cGF0aCB0cmFuc2Zvcm09InNjYWxlKDAuMDE1NjI1KSIgZD0iTSA1OTcgMCAmIzEwO0wgNTk3IDQ1ODEgJiMxMDtMIDEyMDMgNDU4MSAmIzEwO0wgMTIwMyAwICYjMTA7TCA1OTcgMCAmIzEwO3oiIGlkPSJBcmlhbE1ULTQ5Ii8+JiN4YTsgICAgICA8L2RlZnM+JiN4YTsgICAgICA8dXNlIHhsaW5rOmhyZWY9IiNBcmlhbE1ULTRlIi8+JiN4YTsgICAgICA8dXNlIHg9IjcyLjIxNjc5NyIgeGxpbms6aHJlZj0iI0FyaWFsTVQtNzUiLz4mI3hhOyAgICAgIDx1c2UgeD0iMTI3LjgzMjAzMSIgeGxpbms6aHJlZj0iI0FyaWFsTVQtNmQiLz4mI3hhOyAgICAgIDx1c2UgeD0iMjExLjEzMjgxMiIgeGxpbms6aHJlZj0iI0FyaWFsTVQtNjIiLz4mI3hhOyAgICAgIDx1c2UgeD0iMjY2Ljc0ODA0NyIgeGxpbms6aHJlZj0iI0FyaWFsTVQtNjUiLz4mI3hhOyAgICAgIDx1c2UgeD0iMzIyLjM2MzI4MSIgeGxpbms6aHJlZj0iI0FyaWFsTVQtNzIiLz4mI3hhOyAgICAgIDx1c2UgeD0iMzU1LjY2NDA2MiIgeGxpbms6aHJlZj0iI0FyaWFsTVQtMjAiLz4mI3hhOyAgICAgIDx1c2UgeD0iMzgzLjQ0NzI2NiIgeGxpbms6aHJlZj0iI0FyaWFsTVQtNmYiLz4mI3hhOyAgICAgIDx1c2UgeD0iNDM5LjA2MjUiIHhsaW5rOmhyZWY9IiNBcmlhbE1ULTY2Ii8+JiN4YTsgICAgICA8dXNlIHg9IjQ2Ni44NDU3MDMiIHhsaW5rOmhyZWY9IiNBcmlhbE1ULTIwIi8+JiN4YTsgICAgICA8dXNlIHg9IjQ5NC42Mjg5MDYiIHhsaW5rOmhyZWY9IiNBcmlhbE1ULTQ0Ii8+JiN4YTsgICAgICA8dXNlIHg9IjU2Ni44NDU3MDMiIHhsaW5rOmhyZWY9IiNBcmlhbE1ULTY5Ii8+JiN4YTsgICAgICA8dXNlIHg9IjU4OS4wNjI1IiB4bGluazpocmVmPSIjQXJpYWxNVC03MyIvPiYjeGE7ICAgICAgPHVzZSB4PSI2MzkuMDYyNSIgeGxpbms6aHJlZj0iI0FyaWFsTVQtNzQiLz4mI3hhOyAgICAgIDx1c2UgeD0iNjY2Ljg0NTcwMyIgeGxpbms6aHJlZj0iI0FyaWFsTVQtNjkiLz4mI3hhOyAgICAgIDx1c2UgeD0iNjg5LjA2MjUiIHhsaW5rOmhyZWY9IiNBcmlhbE1ULTZlIi8+JiN4YTsgICAgICA8dXNlIHg9Ijc0NC42Nzc3MzQiIHhsaW5rOmhyZWY9IiNBcmlhbE1ULTYzIi8+JiN4YTsgICAgICA8dXNlIHg9Ijc5NC42Nzc3MzQiIHhsaW5rOmhyZWY9IiNBcmlhbE1ULTc0Ii8+JiN4YTsgICAgICA8dXNlIHg9IjgyMi40NjA5MzgiIHhsaW5rOmhyZWY9IiNBcmlhbE1ULTIwIi8+JiN4YTsgICAgICA8dXNlIHg9Ijg1MC4yNDQxNDEiIHhsaW5rOmhyZWY9IiNBcmlhbE1ULTQ5Ii8+JiN4YTsgICAgICA8dXNlIHg9Ijg3OC4wMjczNDQiIHhsaW5rOmhyZWY9IiNBcmlhbE1ULTc0Ii8+JiN4YTsgICAgICA8dXNlIHg9IjkwNS44MTA1NDciIHhsaW5rOmhyZWY9IiNBcmlhbE1ULTY1Ii8+JiN4YTsgICAgICA8dXNlIHg9Ijk2MS40MjU3ODEiIHhsaW5rOmhyZWY9IiNBcmlhbE1ULTZkIi8+JiN4YTsgICAgICA8dXNlIHg9IjEwNDQuNzI2NTYyIiB4bGluazpocmVmPSIjQXJpYWxNVC03MyIvPiYjeGE7ICAgICA8L2c+JiN4YTsgICAgPC9nPiYjeGE7ICAgPC9nPiYjeGE7ICAgPGcgaWQ9ImxpbmUyZF8xMyI+JiN4YTsgICAgPHBhdGggc3R5bGU9ImZpbGw6IG5vbmU7IHN0cm9rZTogI2ZmYTUwMDsgc3Ryb2tlLXdpZHRoOiAyLjUiIGNsaXAtcGF0aD0idXJsKCNwYjA3ZGQzMjAzMykiIGQ9Ik0gNjcuMTE2NzA1IDI3Ny45NzE0MjkgJiMxMDtMIDc3LjkwMTM4NiAyNjcuNTU3MTQzICYjMTA7TCAxNjQuMTc4ODMzIDI2Ny41NTcxNDMgJiMxMDtMIDE3NC45NjM1MTQgMjI1LjkgJiMxMDtMIDE5Ni41MzI4NzYgMjI1LjkgJiMxMDtMIDIwNy4zMTc1NTcgMjE1LjQ4NTcxNCAmIzEwO0wgMjE4LjEwMjIzNyAyMTUuNDg1NzE0ICYjMTA7TCAyMjguODg2OTE4IDIwNS4wNzE0MjkgJiMxMDtMIDIzOS42NzE1OTkgMjA1LjA3MTQyOSAmIzEwO0wgMjUwLjQ1NjI4IDE5NC42NTcxNDMgJiMxMDtMIDI2MS4yNDA5NjEgMTg0LjI0Mjg1NyAmIzEwO0wgMjcyLjAyNTY0MiAxODQuMjQyODU3ICYjMTA7TCAyODIuODEwMzIyIDE3My44Mjg1NzEgJiMxMDtMIDI5My41OTUwMDMgMTczLjgyODU3MSAmIzEwO0wgMzA0LjM3OTY4NCAxNjMuNDE0Mjg2ICYjMTA7TCAzMTUuMTY0MzY1IDE2My40MTQyODYgJiMxMDtMIDMyNS45NDkwNDYgMTQyLjU4NTcxNCAmIzEwO0wgMzU4LjMwMzA4OCAxNDIuNTg1NzE0ICYjMTA7TCAzNjkuMDg3NzY5IDEzMi4xNzE0MjkgJiMxMDtMIDM3OS44NzI0NSAxMzIuMTcxNDI5ICYjMTA7TCAzOTAuNjU3MTMxIDEyMS43NTcxNDMgJiMxMDtMIDQyMy4wMTExNzQgMTIxLjc1NzE0MyAmIzEwO0wgNDMzLjc5NTg1NCAxMTEuMzQyODU3ICYjMTA7TCA0NDQuNTgwNTM1IDExMS4zNDI4NTcgJiMxMDtMIDQ1NS4zNjUyMTYgMTAwLjkyODU3MSAmIzEwO0wgNDY2LjE0OTg5NyA5MC41MTQyODYgJiMxMDtMIDQ3Ni45MzQ1NzggODAuMSAmIzEwO0wgNDg3LjcxOTI1OSA2OS42ODU3MTQgJiMxMDtMIDQ5OC41MDM5MzkgNjkuNjg1NzE0ICYjMTA7TCA1MDkuMjg4NjIgNTkuMjcxNDI5ICYjMTA7TCA1MjAuMDczMzAxIDQ4Ljg1NzE0MyAmIzEwO0wgNTYwLjYyNzM0NCA0OC44NTcxNDMiLz4mI3hhOyAgIDwvZz4mI3hhOyAgIDxnIGlkPSJsaW5lMmRfMTQiPiYjeGE7ICAgIDxwYXRoIHN0eWxlPSJmaWxsOiBub25lOyBzdHJva2U6ICM4MDAwODA7IHN0cm9rZS13aWR0aDogMi41IiBjbGlwLXBhdGg9InVybCgjcGIwN2RkMzIwMzMpIiBkPSJNIDY3LjExNjcwNSAyNzcuOTcxNDI5ICYjMTA7TCA3Ny45MDEzODYgMjY3LjU1NzE0MyAmIzEwO0wgODguNjg2MDY3IDI1Ny4xNDI4NTcgJiMxMDtMIDE4NS43NDgxOTUgMjU3LjE0Mjg1NyAmIzEwO0wgMTk2LjUzMjg3NiAyMjUuOSAmIzEwO0wgMjA3LjMxNzU1NyAyMTUuNDg1NzE0ICYjMTA7TCAyMTguMTAyMjM3IDIxNS40ODU3MTQgJiMxMDtMIDIyOC44ODY5MTggMjA1LjA3MTQyOSAmIzEwO0wgMjM5LjY3MTU5OSAxOTQuNjU3MTQzICYjMTA7TCAyNzIuMDI1NjQyIDE5NC42NTcxNDMgJiMxMDtMIDI4Mi44MTAzMjIgMTg0LjI0Mjg1NyAmIzEwO0wgMjkzLjU5NTAwMyAxNzMuODI4NTcxICYjMTA7TCA0NTUuMzY1MjE2IDE3My44Mjg1NzEgJiMxMDtMIDQ2Ni4xNDk4OTcgMTYzLjQxNDI4NiAmIzEwO0wgNTYwLjYyNzM0NCAxNjMuNDE0Mjg2Ii8+JiN4YTsgICA8L2c+JiN4YTsgICA8ZyBpZD0icGF0Y2hfMyI+JiN4YTsgICAgPHBhdGggc3R5bGU9ImZpbGw6IG5vbmU7IHN0cm9rZTogI2NjY2NjYzsgc3Ryb2tlLXdpZHRoOiAwLjg7IHN0cm9rZS1saW5lam9pbjogbWl0ZXI7IHN0cm9rZS1saW5lY2FwOiBzcXVhcmUiIGQ9Ik0gNDUuNTQ3MzQ0IDI5OC44ICYjMTA7TCA0NS41NDczNDQgNy4yIi8+JiN4YTsgICA8L2c+JiN4YTsgICA8ZyBpZD0icGF0Y2hfNCI+JiN4YTsgICAgPHBhdGggc3R5bGU9ImZpbGw6IG5vbmU7IHN0cm9rZTogI2Q5ZDlkOTsgc3Ryb2tlLXdpZHRoOiAwLjU7IHN0cm9rZS1saW5lam9pbjogbWl0ZXI7IHN0cm9rZS1saW5lY2FwOiBzcXVhcmUiIGQ9Ik0gNTUyLjQyNzM0NCAyOTguOCAmIzEwO0wgNTUyLjQyNzM0NCA3LjIiLz4mI3hhOyAgIDwvZz4mI3hhOyAgIDxnIGlkPSJwYXRjaF81Ij4mI3hhOyAgICA8cGF0aCBzdHlsZT0iZmlsbDogbm9uZTsgc3Ryb2tlOiAjY2NjY2NjOyBzdHJva2Utd2lkdGg6IDAuODsgc3Ryb2tlLWxpbmVqb2luOiBtaXRlcjsgc3Ryb2tlLWxpbmVjYXA6IHNxdWFyZSIgZD0iTSA0NS41NDczNDQgMjk4LjggJiMxMDtMIDU1Mi40MjczNDQgMjk4LjgiLz4mI3hhOyAgIDwvZz4mI3hhOyAgIDxnIGlkPSJwYXRjaF82Ij4mI3hhOyAgICA8cGF0aCBzdHlsZT0iZmlsbDogbm9uZTsgc3Ryb2tlOiAjZDlkOWQ5OyBzdHJva2Utd2lkdGg6IDAuNTsgc3Ryb2tlLWxpbmVqb2luOiBtaXRlcjsgc3Ryb2tlLWxpbmVjYXA6IHNxdWFyZSIgZD0iTSA0NS41NDczNDQgNy4yICYjMTA7TCA1NTIuNDI3MzQ0IDcuMiIvPiYjeGE7ICAgPC9nPiYjeGE7ICAgPGcgaWQ9InBhdGNoXzciPiYjeGE7ICAgIDxwYXRoIHN0eWxlPSJmaWxsOiBub25lOyBzdHJva2U6ICMwMDAwMDA7IHN0cm9rZS13aWR0aDogMS41OyBzdHJva2UtbGluZWpvaW46IG1pdGVyOyBzdHJva2UtbGluZWNhcDogcm91bmQiIGQ9Ik0gNDUuNTQ3MzQ0IDI5OC44ICYjMTA7USAyOTguOTg3MzQ0IDI5OC44IDU1MC43NTAyOTMgMjk4LjgiLz4mI3hhOyAgICA8cGF0aCBzdHlsZT0ic3Ryb2tlOiAjMDAwMDAwOyBzdHJva2Utd2lkdGg6IDEuNTsgc3Ryb2tlLWxpbmVqb2luOiBtaXRlcjsgc3Ryb2tlLWxpbmVjYXA6IHJvdW5kIiBkPSJNIDU0NC4zNTAyOTMgMjk1LjYgJiMxMDtMIDU1MC43NTAyOTMgMjk4LjggJiMxMDtMIDU0NC4zNTAyOTMgMzAyICYjMTA7eiIvPiYjeGE7ICAgPC9nPiYjeGE7ICAgPGcgaWQ9InBhdGNoXzgiPiYjeGE7ICAgIDxwYXRoIHN0eWxlPSJmaWxsOiBub25lOyBzdHJva2U6ICMwMDAwMDA7IHN0cm9rZS13aWR0aDogMS41OyBzdHJva2UtbGluZWpvaW46IG1pdGVyOyBzdHJva2UtbGluZWNhcDogcm91bmQiIGQ9Ik0gNDUuNTQ3MzQ0IDI5OC44ICYjMTA7USA0NS41NDczNDQgMTUzIDQ1LjU0NzM0NCA4Ljg3NzA1MSIvPiYjeGE7ICAgIDxwYXRoIHN0eWxlPSJzdHJva2U6ICMwMDAwMDA7IHN0cm9rZS13aWR0aDogMS41OyBzdHJva2UtbGluZWpvaW46IG1pdGVyOyBzdHJva2UtbGluZWNhcDogcm91bmQiIGQ9Ik0gNDIuMzQ3MzQ0IDE1LjI3NzA1MSAmIzEwO0wgNDUuNTQ3MzQ0IDguODc3MDUxICYjMTA7TCA0OC43NDczNDQgMTUuMjc3MDUxICYjMTA7eiIvPiYjeGE7ICAgPC9nPiYjeGE7ICA8L2c+JiN4YTsgIDxnIGlkPSJsZWdlbmRfMSI+JiN4YTsgICA8ZyBpZD0ibGluZTJkXzE1Ij4mI3hhOyAgICA8cGF0aCBzdHlsZT0iZmlsbDogbm9uZTsgc3Ryb2tlOiAjZmZhNTAwOyBzdHJva2Utd2lkdGg6IDIiIGQ9Ik0gMTY0LjAwNDI5NyAzMzIuODc0Mzc1ICYjMTA7TCAxNzYuMDA0Mjk3IDMzMi44NzQzNzUgJiMxMDtMIDE4OC4wMDQyOTcgMzMyLjg3NDM3NSIvPiYjeGE7ICAgPC9nPiYjeGE7ICAgPGcgaWQ9InRleHRfMTQiPiYjeGE7ICAgICYjeGE7ICAgIDxnIHRyYW5zZm9ybT0idHJhbnNsYXRlKDE5Ny42MDQyOTcgMzM3LjA3NDM3NSkgc2NhbGUoMC4xMiAtMC4xMikiIHN0eWxlPSJmaWxsOiAjMjYyNjI2Ij4mI3hhOyAgICAgPGRlZnM+JiN4YTsgICAgICA8cGF0aCB0cmFuc2Zvcm09InNjYWxlKDAuMDE1NjI1KSIgZD0iTSAxODAzIDAgJiMxMDtMIDI4IDQ1ODEgJiMxMDtMIDY4NCA0NTgxICYjMTA7TCAxODc1IDEyNTMgJiMxMDtRIDIwMTkgODUzIDIxMTYgNTAzICYjMTA7USAyMjIyIDg3OCAyMzYzIDEyNTMgJiMxMDtMIDM2MDAgNDU4MSAmIzEwO0wgNDIxOSA0NTgxICYjMTA7TCAyNDI1IDAgJiMxMDtMIDE4MDMgMCAmIzEwO3oiIGlkPSJBcmlhbE1ULTU2Ii8+JiN4YTsgICAgICA8cGF0aCB0cmFuc2Zvcm09InNjYWxlKDAuMDE1NjI1KSIgZD0iTSAzOTcgLTEyNzggJiMxMDtMIDMzNCAtNzUwICYjMTA7USA1MTkgLTgwMCA2NTYgLTgwMCAmIzEwO1EgODQ0IC04MDAgOTU2IC03MzcgJiMxMDtRIDEwNjkgLTY3NSAxMTQxIC01NjMgJiMxMDtRIDExOTQgLTQ3OCAxMzEzIC0xNDQgJiMxMDtRIDEzMjggLTk3IDEzNjMgLTYgJiMxMDtMIDEwMyAzMzE5ICYjMTA7TCA3MDkgMzMxOSAmIzEwO0wgMTQwMCAxMzk3ICYjMTA7USAxNTM0IDEwMzEgMTY0MSA2MjggJiMxMDtRIDE3MzggMTAxNiAxODcyIDEzODQgJiMxMDtMIDI1ODEgMzMxOSAmIzEwO0wgMzE0NCAzMzE5ICYjMTA7TCAxODgxIC01NiAmIzEwO1EgMTY3OCAtNjAzIDE1NjYgLTgwOSAmIzEwO1EgMTQxNiAtMTA4OCAxMjIyIC0xMjE3ICYjMTA7USAxMDI4IC0xMzQ3IDc1OSAtMTM0NyAmIzEwO1EgNTk3IC0xMzQ3IDM5NyAtMTI3OCAmIzEwO3oiIGlkPSJBcmlhbE1ULTc5Ii8+JiN4YTsgICAgICA8cGF0aCB0cmFuc2Zvcm09InNjYWxlKDAuMDE1NjI1KSIgZD0iTSAyNTg4IDQwOSAmIzEwO1EgMjI3NSAxNDQgMTk4NiAzNCAmIzEwO1EgMTY5NyAtNzUgMTM2NiAtNzUgJiMxMDtRIDgxOSAtNzUgNTI1IDE5MiAmIzEwO1EgMjMxIDQ1OSAyMzEgODc1ICYjMTA7USAyMzEgMTExOSAzNDIgMTMyMCAmIzEwO1EgNDUzIDE1MjIgNjMzIDE2NDQgJiMxMDtRIDgxMyAxNzY2IDEwMzggMTgyOCAmIzEwO1EgMTIwMyAxODcyIDE1MzggMTkxMyAmIzEwO1EgMjIxOSAxOTk0IDI1NDEgMjEwNiAmIzEwO1EgMjU0NCAyMjIyIDI1NDQgMjI1MyAmIzEwO1EgMjU0NCAyNTk3IDIzODQgMjczOCAmIzEwO1EgMjE2OSAyOTI4IDE3NDQgMjkyOCAmIzEwO1EgMTM0NyAyOTI4IDExNTggMjc4OSAmIzEwO1EgOTY5IDI2NTAgODc4IDIyOTcgJiMxMDtMIDMyOCAyMzcyICYjMTA7USA0MDMgMjcyNSA1NzUgMjk0MiAmIzEwO1EgNzQ3IDMxNTkgMTA3MiAzMjc2ICYjMTA7USAxMzk3IDMzOTQgMTgyNSAzMzk0ICYjMTA7USAyMjUwIDMzOTQgMjUxNSAzMjk0ICYjMTA7USAyNzgxIDMxOTQgMjkwNiAzMDQyICYjMTA7USAzMDMxIDI4OTEgMzA4MSAyNjU5ICYjMTA7USAzMTA5IDI1MTYgMzEwOSAyMTQxICYjMTA7TCAzMTA5IDEzOTEgJiMxMDtRIDMxMDkgNjA2IDMxNDUgMzk4ICYjMTA7USAzMTgxIDE5MSAzMjg4IDAgJiMxMDtMIDI3MDAgMCAmIzEwO1EgMjYxMyAxNzUgMjU4OCA0MDkgJiMxMDt6JiMxMDtNIDI1NDEgMTY2NiAmIzEwO1EgMjIzNCAxNTQxIDE2MjIgMTQ1MyAmIzEwO1EgMTI3NSAxNDAzIDExMzEgMTM0MCAmIzEwO1EgOTg4IDEyNzggOTA5IDExNTggJiMxMDtRIDgzMSAxMDM4IDgzMSA4OTEgJiMxMDtRIDgzMSA2NjYgMTAwMSA1MTYgJiMxMDtRIDExNzIgMzY2IDE1MDAgMzY2ICYjMTA7USAxODI1IDM2NiAyMDc4IDUwOCAmIzEwO1EgMjMzMSA2NTAgMjQ1MCA4OTcgJiMxMDtRIDI1NDEgMTA4OCAyNTQxIDE0NTkgJiMxMDtMIDI1NDEgMTY2NiAmIzEwO3oiIGlkPSJBcmlhbE1ULTYxIi8+JiN4YTsgICAgICA8cGF0aCB0cmFuc2Zvcm09InNjYWxlKDAuMDE1NjI1KSIgZD0iTSAzMTkgLTI3NSAmIzEwO0wgODY2IC0zNTYgJiMxMDtRIDkwMCAtNjA5IDEwNTYgLTcyNSAmIzEwO1EgMTI2NiAtODgxIDE2MjggLTg4MSAmIzEwO1EgMjAxOSAtODgxIDIyMzEgLTcyNSAmIzEwO1EgMjQ0NCAtNTY5IDI1MTkgLTI4OCAmIzEwO1EgMjU2MyAtMTE2IDI1NTkgNDM0ICYjMTA7USAyMTkxIDAgMTY0MSAwICYjMTA7USA5NTYgMCA1ODEgNDk0ICYjMTA7USAyMDYgOTg4IDIwNiAxNjc4ICYjMTA7USAyMDYgMjE1MyAzNzggMjU1NCAmIzEwO1EgNTUwIDI5NTYgODc2IDMxNzUgJiMxMDtRIDEyMDMgMzM5NCAxNjQ0IDMzOTQgJiMxMDtRIDIyMzEgMzM5NCAyNjEzIDI5MTkgJiMxMDtMIDI2MTMgMzMxOSAmIzEwO0wgMzEzMSAzMzE5ICYjMTA7TCAzMTMxIDQ1MCAmIzEwO1EgMzEzMSAtMzI1IDI5NzMgLTY0OCAmIzEwO1EgMjgxNiAtOTcyIDI0NzMgLTExNTkgJiMxMDtRIDIxMzEgLTEzNDcgMTYzMSAtMTM0NyAmIzEwO1EgMTAzOCAtMTM0NyA2NzIgLTEwODAgJiMxMDtRIDMwNiAtODEzIDMxOSAtMjc1ICYjMTA7eiYjMTA7TSA3ODQgMTcxOSAmIzEwO1EgNzg0IDEwNjYgMTA0MyA3NjYgJiMxMDtRIDEzMDMgNDY2IDE2OTQgNDY2ICYjMTA7USAyMDgxIDQ2NiAyMzQzIDc2NCAmIzEwO1EgMjYwNiAxMDYzIDI2MDYgMTcwMCAmIzEwO1EgMjYwNiAyMzA5IDIzMzYgMjYxOCAmIzEwO1EgMjA2NiAyOTI4IDE2ODQgMjkyOCAmIzEwO1EgMTMwOSAyOTI4IDEwNDYgMjYyMyAmIzEwO1EgNzg0IDIzMTkgNzg0IDE3MTkgJiMxMDt6IiBpZD0iQXJpYWxNVC02NyIvPiYjeGE7ICAgICAgPHBhdGggdHJhbnNmb3JtPSJzY2FsZSgwLjAxNTYyNSkiIGQ9Ik0gMTYwMyA3NDEgJiMxMDtMIDE2MDMgMTk5NyAmIzEwO0wgMzU2IDE5OTcgJiMxMDtMIDM1NiAyNTIyICYjMTA7TCAxNjAzIDI1MjIgJiMxMDtMIDE2MDMgMzc2OSAmIzEwO0wgMjEzNCAzNzY5ICYjMTA7TCAyMTM0IDI1MjIgJiMxMDtMIDMzODEgMjUyMiAmIzEwO0wgMzM4MSAxOTk3ICYjMTA7TCAyMTM0IDE5OTcgJiMxMDtMIDIxMzQgNzQxICYjMTA7TCAxNjAzIDc0MSAmIzEwO3oiIGlkPSJBcmlhbE1ULTJiIi8+JiN4YTsgICAgICA8cGF0aCB0cmFuc2Zvcm09InNjYWxlKDAuMDE1NjI1KSIgZD0iTSAxNDk3IC0xMzQ3ICYjMTA7USAxMDMxIC03NTkgNzA5IDI4ICYjMTA7USAzODggODE2IDM4OCAxNjU5ICYjMTA7USAzODggMjQwMyA2MjggMzA4NCAmIzEwO1EgOTA5IDM4NzUgMTQ5NyA0NjU5ICYjMTA7TCAxOTAwIDQ2NTkgJiMxMDtRIDE1MjIgNDAwOSAxNDAwIDM3MzEgJiMxMDtRIDEyMDkgMzMwMCAxMTAwIDI4MzEgJiMxMDtRIDk2NiAyMjQ3IDk2NiAxNjU2ICYjMTA7USA5NjYgMTUzIDE5MDAgLTEzNDcgJiMxMDtMIDE0OTcgLTEzNDcgJiMxMDt6IiBpZD0iQXJpYWxNVC0yOCIvPiYjeGE7ICAgICAgPHBhdGggdHJhbnNmb3JtPSJzY2FsZSgwLjAxNTYyNSkiIGQ9Ik0gMzA5IDIyMzEgJiMxMDtRIDMwOSAzMzcyIDkyMSA0MDE3ICYjMTA7USAxNTM0IDQ2NjMgMjUwMyA0NjYzICYjMTA7USAzMTM4IDQ2NjMgMzY0NyA0MzU5ICYjMTA7USA0MTU2IDQwNTYgNDQyMyAzNTE0ICYjMTA7USA0NjkxIDI5NzIgNDY5MSAyMjg0ICYjMTA7USA0NjkxIDE1ODggNDQwOSAxMDM4ICYjMTA7USA0MTI4IDQ4OCAzNjEyIDIwNSAmIzEwO1EgMzA5NyAtNzggMjUwMCAtNzggJiMxMDtRIDE4NTMgLTc4IDEzNDMgMjM0ICYjMTA7USA4MzQgNTQ3IDU3MSAxMDg3ICYjMTA7USAzMDkgMTYyOCAzMDkgMjIzMSAmIzEwO3omIzEwO00gOTM0IDIyMjIgJiMxMDtRIDkzNCAxMzk0IDEzNzkgOTE3ICYjMTA7USAxODI1IDQ0MSAyNDk3IDQ0MSAmIzEwO1EgMzE4MSA0NDEgMzYyMyA5MjIgJiMxMDtRIDQwNjYgMTQwMyA0MDY2IDIyODggJiMxMDtRIDQwNjYgMjg0NyAzODc3IDMyNjQgJiMxMDtRIDM2ODggMzY4MSAzMzIzIDM5MTEgJiMxMDtRIDI5NTkgNDE0MSAyNTA2IDQxNDEgJiMxMDtRIDE4NjMgNDE0MSAxMzk4IDM2OTggJiMxMDtRIDkzNCAzMjU2IDkzNCAyMjIyICYjMTA7eiIgaWQ9IkFyaWFsTVQtNGYiLz4mI3hhOyAgICAgIDxwYXRoIHRyYW5zZm9ybT0ic2NhbGUoMC4wMTU2MjUpIiBkPSJNIDc5MSAtMTM0NyAmIzEwO0wgMzg4IC0xMzQ3ICYjMTA7USAxMzIyIDE1MyAxMzIyIDE2NTYgJiMxMDtRIDEzMjIgMjI0NCAxMTg4IDI4MjIgJiMxMDtRIDEwODEgMzI5MSA4OTEgMzcyMiAmIzEwO1EgNzY5IDQwMDMgMzg4IDQ2NTkgJiMxMDtMIDc5MSA0NjU5ICYjMTA7USAxMzc4IDM4NzUgMTY1OSAzMDg0ICYjMTA7USAxOTAwIDI0MDMgMTkwMCAxNjU5ICYjMTA7USAxOTAwIDgxNiAxNTc2IDI4ICYjMTA7USAxMjUzIC03NTkgNzkxIC0xMzQ3ICYjMTA7eiIgaWQ9IkFyaWFsTVQtMjkiLz4mI3hhOyAgICAgPC9kZWZzPiYjeGE7ICAgICA8dXNlIHhsaW5rOmhyZWY9IiNBcmlhbE1ULTU2Ii8+JiN4YTsgICAgIDx1c2UgeD0iNjEuMTk5MjE5IiB4bGluazpocmVmPSIjQXJpYWxNVC02ZiIvPiYjeGE7ICAgICA8dXNlIHg9IjExNi44MTQ0NTMiIHhsaW5rOmhyZWY9IiNBcmlhbE1ULTc5Ii8+JiN4YTsgICAgIDx1c2UgeD0iMTY2LjgxNDQ1MyIgeGxpbms6aHJlZj0iI0FyaWFsTVQtNjEiLz4mI3hhOyAgICAgPHVzZSB4PSIyMjIuNDI5Njg4IiB4bGluazpocmVmPSIjQXJpYWxNVC02NyIvPiYjeGE7ICAgICA8dXNlIHg9IjI3OC4wNDQ5MjIiIHhsaW5rOmhyZWY9IiNBcmlhbE1ULTY1Ii8+JiN4YTsgICAgIDx1c2UgeD0iMzMzLjY2MDE1NiIgeGxpbms6aHJlZj0iI0FyaWFsTVQtNzIiLz4mI3hhOyAgICAgPHVzZSB4PSIzNjYuOTYwOTM4IiB4bGluazpocmVmPSIjQXJpYWxNVC0yYiIvPiYjeGE7ICAgICA8dXNlIHg9IjQyNS4zNTkzNzUiIHhsaW5rOmhyZWY9IiNBcmlhbE1ULTJiIi8+JiN4YTsgICAgIDx1c2UgeD0iNDgzLjc1NzgxMiIgeGxpbms6aHJlZj0iI0FyaWFsTVQtMmIiLz4mI3hhOyAgICAgPHVzZSB4PSI1NDIuMTU2MjUiIHhsaW5rOmhyZWY9IiNBcmlhbE1ULTIwIi8+JiN4YTsgICAgIDx1c2UgeD0iNTY5LjkzOTQ1MyIgeGxpbms6aHJlZj0iI0FyaWFsTVQtMjgiLz4mI3hhOyAgICAgPHVzZSB4PSI2MDMuMjQwMjM0IiB4bGluazpocmVmPSIjQXJpYWxNVC00ZiIvPiYjeGE7ICAgICA8dXNlIHg9IjY4MS4wMjM0MzgiIHhsaW5rOmhyZWY9IiNBcmlhbE1ULTc1Ii8+JiN4YTsgICAgIDx1c2UgeD0iNzM2LjYzODY3MiIgeGxpbms6aHJlZj0iI0FyaWFsTVQtNzIiLz4mI3hhOyAgICAgPHVzZSB4PSI3NjkuOTM5NDUzIiB4bGluazpocmVmPSIjQXJpYWxNVC03MyIvPiYjeGE7ICAgICA8dXNlIHg9IjgxOS45Mzk0NTMiIHhsaW5rOmhyZWY9IiNBcmlhbE1ULTI5Ii8+JiN4YTsgICAgPC9nPiYjeGE7ICAgPC9nPiYjeGE7ICAgPGcgaWQ9ImxpbmUyZF8xNiI+JiN4YTsgICAgPHBhdGggc3R5bGU9ImZpbGw6IG5vbmU7IHN0cm9rZTogIzgwMDA4MDsgc3Ryb2tlLXdpZHRoOiAyIiBkPSJNIDMxNy45OTA1NDcgMzMyLjg3NDM3NSAmIzEwO0wgMzI5Ljk5MDU0NyAzMzIuODc0Mzc1ICYjMTA7TCAzNDEuOTkwNTQ3IDMzMi44NzQzNzUiLz4mI3hhOyAgIDwvZz4mI3hhOyAgIDxnIGlkPSJ0ZXh0XzE1Ij4mI3hhOyAgICAmI3hhOyAgICA8ZyB0cmFuc2Zvcm09InRyYW5zbGF0ZSgzNTEuNTkwNTQ3IDMzNy4wNzQzNzUpIHNjYWxlKDAuMTIgLTAuMTIpIiBzdHlsZT0iZmlsbDogIzI2MjYyNiI+JiN4YTsgICAgIDx1c2UgeGxpbms6aHJlZj0iI0FyaWFsTVQtNTYiLz4mI3hhOyAgICAgPHVzZSB4PSI2MS4xOTkyMTkiIHhsaW5rOmhyZWY9IiNBcmlhbE1ULTZmIi8+JiN4YTsgICAgIDx1c2UgeD0iMTE2LjgxNDQ1MyIgeGxpbms6aHJlZj0iI0FyaWFsTVQtNzkiLz4mI3hhOyAgICAgPHVzZSB4PSIxNjYuODE0NDUzIiB4bGluazpocmVmPSIjQXJpYWxNVC02MSIvPiYjeGE7ICAgICA8dXNlIHg9IjIyMi40Mjk2ODgiIHhsaW5rOmhyZWY9IiNBcmlhbE1ULTY3Ii8+JiN4YTsgICAgIDx1c2UgeD0iMjc4LjA0NDkyMiIgeGxpbms6aHJlZj0iI0FyaWFsTVQtNjUiLz4mI3hhOyAgICAgPHVzZSB4PSIzMzMuNjYwMTU2IiB4bGluazpocmVmPSIjQXJpYWxNVC03MiIvPiYjeGE7ICAgIDwvZz4mI3hhOyAgIDwvZz4mI3hhOyAgPC9nPiYjeGE7IDwvZz4mI3hhOyA8ZGVmcz4mI3hhOyAgPGNsaXBQYXRoIGlkPSJwYjA3ZGQzMjAzMyI+JiN4YTsgICA8cmVjdCBoZWlnaHQ9IjI5MS42IiB3aWR0aD0iNTA2Ljg4IiB5PSI3LjIiIHg9IjQ1LjU0NzM0NCIvPiYjeGE7ICA8L2NsaXBQYXRoPiYjeGE7IDwvZGVmcz4mI3hhOzwvc3ZnPg==;" vertex="1" parent="1">
          <mxGeometry x="-827" width="817.46" height="510" as="geometry" />
        </mxCell>
        <mxCell id="ZNWlbsZwltuI7lcsnE4K-40" value="" style="group" vertex="1" connectable="0" parent="1">
          <mxGeometry x="-750" y="27" width="391.5" height="116" as="geometry" />
        </mxCell>
        <mxCell id="ZNWlbsZwltuI7lcsnE4K-26" value="" style="group" vertex="1" connectable="0" parent="ZNWlbsZwltuI7lcsnE4K-40">
          <mxGeometry x="14.5" y="34" width="351" height="32" as="geometry" />
        </mxCell>
        <mxCell id="ZNWlbsZwltuI7lcsnE4K-16" value="" style="shape=image;verticalLabelPosition=bottom;labelBackgroundColor=default;verticalAlign=top;aspect=fixed;imageAspect=0;image=data:image/png,iVBORw0KGgoAAAANSUhEUgAAAEAAAABACAYAAACqaXHeAAAABGdBTUEAALGPC/xhBQAAAAlwSFlzAAAOwgAADsIBFShKgAAAB4tJREFUeF7tmNFqHVUYRgsa29gmttiGGkoptlosKFZFi0UrglALXggGvBDUi4iXIsUr36D3XvkIPoEvF7uGWeXrnz1zzj6JSVq6YdEzM3v2+b81e+8zzakX7ZjaGxfP7SXj6ee/bZ59ZW/70kYTro3dnr9mQPn3r5+fIq/Rd7zt2W9fXN/cA58ynw3ttTzOfjAO8+y13+9c2wOD/P397QE+//Pr3QGv5XH2A8cZhz35zYLFcITys3z3yY2Bej771vHGrzl5rRaagSoGr7T6Sh1//Nrjb7WwVvHy4NblJzjVJa+17pX6fWMZR99qIa1iJZ9yDTgl4cSKyI0JWsVJBud4KmDrfL13iqyF2sYyD7/xtubODDyxVkGwqHiD2ieDVxaNBdSStR3qm6UvJ76yGr4lIIutofIer2V/sG9S+7T6ObbhwbrHGP3NASRfVmoBWZzFgEGhHkPrfuCcfTxu9c3zQG3WWesfYy1uGtSiAxpe5oohbB5nvwxeyX5Qr6fc2i9ry5rJkJnGmNPt/MaZoaOvpJADGl5qIVPXKnN9ffqS/epMymut8EKmV8+sLSfgtx8+HsgBIC3nF8OyAeb6cm3qKVfqmFlbrfvrT98e6Bbwx4+fDeRs4AuyyFrIXJFJ9uvpW69lLdSW0/2bz28OdAswuPy5e28gLfe+AwhP2vMW7nGdLdk3z1d8BxCDy72Prg50C3AmKEDy5aNHRE51UIDHXk+81qLWUYP75A8soIq4cWlz78FbF/cV0CpSUkTrOqwa/N2tjb2tjfV9wSsrLwEF/PTg1oAC4P0rr+0rqFW0tESsGvzqhfUhvAK+uvPmQCs8LC3g23vX90kABfyyc/uJBARILbAVQlLEKsGlhk8y/Ac3t/oESApwJigAUgC0loZrPdf7FNm3jkPYDA+EnxOwvbk2hO8SwDpPCTz1FODnKQHKyZ35IBhySoCbXIYnuBC+axN0s+NJK0BSAFx+/HubAgwPjpO/zbyY5NtawrV853BTUwBMhVdABofz515+cr1rE1QA8DklICUFiAK8pgDJt7MUQdg8b3AxgAJSiNfeuXbhqeDIILwCujZBBIgCRAFffnhlIAUA/RWwSISzwifuhmXwu+9tDxiSUBkeXN8KILDLQAGOu5IAuLW1vi+EAi5snhlIAaIAx/FePvM9CqAwCrZQAyggzxv87PragAIQZuAMv5IAA6QA4FxKAAWI90IVkPA9QFEKmCIFGFycLSmg4gzqFmCAFAA5I9z8FODyyPvF8FyrAgxYA3vsNDe4G6Hh6VeD379/f6BbgNPbwrdfPz2QAvysAMn9ITfLZQRUCMUSyHVucFFSCjC4eH+3AAKAAgySAvzJU4AzI+/ncwqARQJc/wrwSRvcvSAF1OA7OzsD3QIMYQBRgDJSgHgvEFQBskgAhWZ4g4vBU4D31uDi9W4BooBHjx4N5GyoAjyvAOA4JTBWFeBTUkANTlDWcRVgONjd3R04sAADiMHFpzonAFKAcN+cAEJmcI6d4lMC2Bu4d05A1yaYAVKA5xUA7PwpIAMroEpobYKGVQAvNR4rADI8vwaEXyTAcZYWYMEW//Dhw6cE8BkxChAFzLFIAE/L19kpAf4UKsDZMiegawlksfyLAPCcAoCdPyUgJe93jEoVQIGigAwOhM3w/BoYXgGErQIcd2kBhjAAKAD4nAJEASwRyPvB+2FOgL/nBnd/UIA/hSmAfs4YQudMYEzu7RJgkAzA1FWA51IAIEUBVQT3O0ZLgIEV4E+hAgia4cHQCuDfuhQIv7IA8O8ABgBDufmlAEkJkPdXARbfEuD5FOBGmAKE8AjbWVWARVp4/i0gQ4ACJAVUETlGS4BPWgEZChBgcKl9HCMFuEy6BbheUwDk06wCOMfMaInI+6sAntCcAJfIlIBcKuJS6Bbg9FZAK4DLZEoA8DkFyJQAC00BO4+foJtjS4Bh614BClDSgQVkAAX4k6QA71VAa0YwZhVg0QoguBDetW7w02svDaQA+ziOwbsFWLgCqgiPU4CkACXk50UCCJzwBA0GBk8B3mufnDHg+W4BYuB6DOz8KYDZwTJpSfB+qAIodKcRXgEEZZlkeH4NDA8GVoDBuwTwMkOILDaD5DkFSApwr6j3yZSA/O8s4XNtK8CfQgVMPfGEe6lvjDndFCAUqwCfep5j3acEpngKyHGEMaoAAuT/5wkuCqBPhmcvMDxMBZelBNiyeNZ6CuCzEtz8FOE+ATmG4ywSQNAMDxnS4OL5+uQzOIyx+puFSwqAFABcV4B9UoBUARTpkza4aztDZviWAO4/lOC1ZfGEmRMg9lFIjjEnwODiU50TkPcfavDaFOA6nxPATAEFeH5KgGFq8KQKyND8O5b5/zcFGCQFGFwMLsioAginADE0T94pbnB/dhUwlnX0zSD+QSQFuAQM7vllBUgKsL8CxjKOvynAzS4FiAKgCiBgDZzHPGU2RvuPX3vyWu72uVlWES0BdcoTPjc3BIxfc/KbAhRSJVQBhlcAweVY1/hBW86IFDElgLAZfhzm2W8pAaoAp7kCxtuev6YAN80T83N21K0KGE+/aEfbTp36DxnIIrV7OEM2AAAAAElFTkSuQmCC;" vertex="1" parent="ZNWlbsZwltuI7lcsnE4K-26">
          <mxGeometry x="35" width="32" height="32" as="geometry" />
        </mxCell>
        <mxCell id="ZNWlbsZwltuI7lcsnE4K-17" value="" style="shape=image;verticalLabelPosition=bottom;labelBackgroundColor=default;verticalAlign=top;aspect=fixed;imageAspect=0;image=data:image/png,iVBORw0KGgoAAAANSUhEUgAAAEAAAABACAYAAACqaXHeAAAABGdBTUEAALGPC/xhBQAAAAlwSFlzAAAOwgAADsIBFShKgAAABkxJREFUeF7tlruOHUUURSclshyALGSTYBnJEowIQAIZiZCHyUgIsDTf4JiEnASRIT6BlJg/M9qtWtbyUVV19507c2cGl7R1u+ucqt579WPm7O040Xjx7dNXVpu++yNhv3/25LX+NyBq0H9+f/GGXAuYtuz2DweLHPqvX58v8lx9Mto2t2/UIH//9uOihPzj5deLAGAQ9LEOtW1v/rDpACBQ5LABwF33fOQ17IPaZW7ecPCIcBF3nLvumpWaew3CT1PULnv68fKnz15ZNu0wNVBVBWG5zxBOCiIX96NpkzW4w7mvJ/duBXGtr4YvHMXMv39eLNoTvPbWutcagntT802In2bz+IMLODiqYWzefdEvF5+/7mPOa90beR96gOGavUXN9uUH7zaUHcrGIwy5p/YGQK0h79Wrs7efBvemdjQQbAAALh7ZaMQrkJoNRzY7qtX59AZUD1bPB72u4Z8b12KtDxYib8oFEfMJX40SbhQQbe2rNa4bAaAHor66LeZ4fPflh28siLyhTUWuVZMOVwPOavUarkUE3xIeJceTR/e3Afj0oweLKgibqCZ9YffV3hrWmkGJfA3vGblWfX/y+N1FuwH8/M3TRZWkTdlwjLhWNerNsWteEzkca5Fr8cY3K/ri4/cXXRpA5nqvhk3aVDXmvl4vqn3eI3VD8r7cGPTBg3uLLg3g4ofzRQCoIHgqbJowNmqzvd5ejXXs415q1QeBAUDw3QAeP7y3CABfnT9cBIDU/GpgxAFmxt1nuc56xEcvNa6H3rv/zhLw6AAIPgLA61ENOQwAEPMEdW9Ug9OT8H6/c52ESvijAkioLQDyZPj7MAKBEt7BHHoWPOJJixLeobYCyPxuAAk1A8DrwTw1G44cJuHqU4FSM5QKNCEcKjIAglcAgNkMIB9AAERrAGqN4xrA4Wp41+o6QgIgQQiXecKuAchxizkeAIgIciiA7BXVQHzQohrcTw4BAPDs/NES3gAcNr8A8dxuADE/A+A/kVsAANQQEnB0xwmHtgKgz+EPBhABoQeA41mtAuCcO1yD26g1A+Dz9PTg7AJQwxDI877LhwBgHcExi9EaciuAWjsqAALldysA1td9ItbZbAL2Qu4BkH2oXQkA7ihzFUBvfd2HvshmZwAIRq32JiCBvWd0LQD8UaSWJ4U9vMbrbJYwqAbJMbUrA2CTCTD6qjNHuBEAQ2A+qgBylwmDHCT1HFPrAaAfubYLAIZHADDv3h6AHO8FYOOuAYC7agCZPwmAiH4DSI9D0uN9qGGWgDbuWkLn2AAcOsd1Hee7AWAYAIQDQOoORygDiLKHe4CQGusxNwKQGqFzzq9DcV4D+5z9W8zxwCyGDcA1AgCE0D7OekJHnKdWARAscnhqEfPUOObcgTlPLeEPBhCtAXBwfiPWs4Zz+iLM1jtMKIIg5umJCE0P66gfDCDaAwD15qIZgJjjTmOcGsF64Tyf36yvPbsBxCQGoxg+JQDO1wCwvvYkPPu2mONho5jsBRoB8Bw91E4FwPu2mOORO70GgGAO59peAAlQjUY1yAxAjlmfev5M0uN9W8zx2AqA46oZAM69lwP4Xe2JvjpnAFnPP0m9nhZzPPYCqP8sEdAAeuf02xwAagBEX51bW++eFnM86seup4TgeAYgEI8NgJ5ai2Y11GKOh82NnoQ1APSy3ut6AGKMxzfqAdgCiZrnqlrM8bC5GQD6AJAnJzKcCiBzFQDGAJDfGm7tKak11vXUYo6Hza0BiCoAer2eXub9xNhcwgNg9KWvAFxjPevqX4yoxRwPG60BapAczwBkfi+A/FbjewGg3j4t5njY6OgOWqkbgF8Bw9kCAI0AZM4Acn50AIyYmwHg3D0zAJHnOcac1TNuAA6X+Zynz+Hdk1qLtX8YQI4xzlzCuGcLAO9DSEJEGEcAoI9wPvce7mkxLj8AgHkD4I6OAHCO1gAgAHgufXkKfF7X5rzZPv6YAajhDMw6FECO+QYwVwE0m1c/AFBD1mOfIz8lMZ0P2mUBNFvXPy4LgD9nBOmBQAFQe5qN0w8C9QCMQEQASBjC1TuPDKBd9uaNGtQAeG1cXwOQcwNol7n5wyHXADisAXCeWtv29o01AIQdAWjb3P6xF0BbdvcGAPKXIKoAWtvdHxVAm347rnecnf0H/ruUKfMZS1cAAAAASUVORK5CYII=;" vertex="1" parent="ZNWlbsZwltuI7lcsnE4K-26">
          <mxGeometry width="32" height="32" as="geometry" />
        </mxCell>
        <mxCell id="ZNWlbsZwltuI7lcsnE4K-18" value="" style="shape=image;verticalLabelPosition=bottom;labelBackgroundColor=default;verticalAlign=top;aspect=fixed;imageAspect=0;image=data:image/png,iVBORw0KGgoAAAANSUhEUgAAAEAAAABACAYAAACqaXHeAAAABGdBTUEAALGPC/xhBQAAAAlwSFlzAAAOwgAADsIBFShKgAAAATtJREFUeF7tljFOw0AQRV2HhgaJKkoayAXIGegoOUGK9JyBa0Mzhf20imVtHHs970m/8u5o/ytG7kRERETm4nx6/rtnYmw7lErUJMa2Q6lETWJsO5RK1CTGrhc++PfyNsjP93GQ69f+Znie8z8/Xgbh/XjW4+ADFaCAZAIIH3x43U0KCzEU/L5/GiSesRwKUEByAbVwyXEpUggFxph2UYACkglgYRbkkuN3CmpOiAIUkEwAC0/9sWFBCuH3uLYeFKCAZAJYmA8eK0xYkPP4Pa4thwIUkEwAC09dcmOw4Op+hBSggGQCWJhLqbYwYUEK5ve4Nh8KUEAyASzMB9y78BizFyYKUEAyASw895JbHQpQQDIBLLz0kns4ClBAcgEsyMSx7VIq3U8c2y6l0v3Ese1SKt1PHBMRaZCu+wdfra4r5ssp1AAAAABJRU5ErkJggg==;" vertex="1" parent="ZNWlbsZwltuI7lcsnE4K-26">
          <mxGeometry x="71" width="32" height="32" as="geometry" />
        </mxCell>
        <mxCell id="ZNWlbsZwltuI7lcsnE4K-19" value="" style="shape=image;verticalLabelPosition=bottom;labelBackgroundColor=default;verticalAlign=top;aspect=fixed;imageAspect=0;image=data:image/png,iVBORw0KGgoAAAANSUhEUgAAAEAAAABACAYAAACqaXHeAAAABGdBTUEAALGPC/xhBQAAAAlwSFlzAAAOwgAADsIBFShKgAAABzZJREFUeF7tlj2OVTkQRlkKEQlxExIQMKREpMSIydjCsBJ2wAJndJ580JmS3f16GP5aWPp07XLZt85n39f96Hf7Qe3t27d/Vyv88BuwH//6+EWfPn36ogdtRE9bEwT//Pnzv+b+fP/+4RgBDCrcPH0MQMTMN2dt8+s1ASbQfQ1Qa9ufvwkgxAkI1YCuq8jr57Fe8/O1FknhHVcAFbBzAitvBnJerdf++NaipjxhVdipa9fVILTK+P6tRc3CgOi4J+m8at5t6+ZcDWJ+lfXtGy8v+A5CtVDhVfeY65DrZtx819Sk169ffzsjdgAW1Tii8PY1wCIFn+sd72L0Xbczh30VOavsr28TgP5dAM1xvWMKNE85R9+9lOvpt4buOfepFsb9264Ax26+A7DfmHH3QMTsN69x1HcjDLDvOzq2XufUwrq7zULcoP3GjM8rOPepPEnU/Xa5VdcxPu2vCRphHlqY5/bHy5eXxBbWzee4Ev6k3RrVIqcKNE3rHPvUpOaxz7ObZ9cZ8Pz584tmIVVfhHoDZm5BhVAt8i4Dq7veUb148eKiqwwQHr179+6ibo4K0Bcx1yK7hnFzKbp5NXCurVjrupnH2r7j1atXF93bAMGn+rIdvGqBBUXk7k5trkPEmtv38f4aZh8BijTg6dOnF93bgA8fPlzk+Obm5iJP30ItymIs/gTgenPmfjtzlLnNV0+ePLlIA5QGoIV5bjsD3rx5c5EG+In4YiHva8Acdz/n3Ke59s33emvAbUYszHOrAYJPaYC5AioLE6ZzFl91nYZpQtdplCbM7/vx48cXnYy42gDBBJ6GcAu4GeYhxhTaIgsjxE7CX2Ma+wLcHzgBNWAawRxPYgvz3DQATQP4E4k0QGmA/RY/JbDqjxfwHTcPAeGJT3ghBdWAGV+Y5wac/wtoAOMa4MnvTODpup7q10gAVHgN4Mn1LmjNIeZzYZ6bBtSEjmuAsIIXHpGHeqrzeldc7457kshr39PXCA1ozD7Pqw0ApsBIExyjHfDJAMfzN8G+37YSQAOU8AIJiIRvTBHDIJ4L89xqAEAFYG5CTdUEbhNyzHrUU0b+wO0KRxrQmAJsd/rdwxz6C/PcAKgBiKILUEhzHXe9BmjaXK8BArToijnn55xwfhbVLmdhnlvh6CMLJyaAULcZYI5qjn2LA3Be8c5pgDFznNOAGrHLWZjnZmHIwmvAnGsMCV4D5qdQwwS0+AJMA3amdO6a9Qvz3CwMnSCRp+zY3IIbn59C11kcBXtiBXBeALWLaYDj/2RAi5uQfhKdE6ritvDsuhrgep4WNw2Y8MR4muMPo2PXdR/lHuy5MM+tUEKqGiCEuT1lPxlzu45516ICWnBPrlfaXFQDGJNvnuvdz1xiC/PcCiWIxQpema8BxjWgco589yxUDeDZb9q4uQB1befoz9yrDRC8BkwApCGCaEJzTibUMItEQPrUAPtIqMIhTWqsAt75hXluE7wQwk5wn6oGnEyYBhRqB6/IM5fxvCXIfcxh7moDhGvhxHgKvQMnx7450wD3aW6vJwVSqFACVYVHu7zCIw0gd2GemwagFtw4EkAYcwA2R3DVfXYGtFDkWBDhhdvBzxz3cN+FeW4WiFrwjNcABLjPE7jq3sLWAGHmuKfvOueIM2+O370yd2GemwUWdvZnDHnd6Qs+TXJN19WAntxOnTsZILwGmGfuwjy3FqmA4GnRjqsa0LxdLjFzKcxT1gBPUjjHNWDKeQ0gVvh7GSBAC1YFQ+a4ZqeZwzoN84oKcZtuM8d54ZHgXbMwz01IZJEFRjXFP2euEXCOG7OvARNGUxxbfMeedsdeffeb+6KFeW4UJ7ia33RPUwOcE7B5jivXt1BPbBpQECE1oDoZoK4yANAJrrzKNcBcwZyf/QrD3MPCAKgBxjVgQmqS8Urg3XhhntuERsIWCOgaYK455vlE5NcAJCTFFR5NeHN6S4jxdI+7tDDPbQc+pQGC1wBhC+4n4nrypgGFKrwGOK4BjF3jPkjYrlcL89wstAZYrGNyJrhrhEaC80S7PAsrlCAW33HzUPvmaYpx9nB+YZ4bRRWU58mAAjlXOMGJa4AyRwMEtFDjzqHbbgkyvzk1gvyFeXcTVNUA+sQK7jwxDasBqDfGT6jF+Sx8dbolcx0506yFdf+2M0EDZmz2zakBUwVQgszxPE37jsmhD7wGLIyvb8IKWQOM+VS3GWCsAMqTczwNIOY6JTwCfpX9/7fCVgJVp7mTAT05YZEGIE3ZzTFeZX77Jtw8ZeTcKYeYfYoWSAOEU0LXgMbQKuv7N+GErQHOTdUAQQCdJ78zQBlbZfz4NqHb95ffsSZpAEC9+sLVAJ8asF778zUhBeWpAZ66BiCBevVrwDRivebnbxqA+NGrARqkAfPqe9I1Ym376zUNqAkagITXAG+EBqxtfv2mAdOEE/xa9vCaBszfAA1YaQ+/TQNW+Hf7vu3Ro38Ah+M5//EiY6QAAAAASUVORK5CYII=;" vertex="1" parent="ZNWlbsZwltuI7lcsnE4K-26">
          <mxGeometry x="106" width="32" height="32" as="geometry" />
        </mxCell>
        <mxCell id="ZNWlbsZwltuI7lcsnE4K-20" value="" style="shape=image;verticalLabelPosition=bottom;labelBackgroundColor=default;verticalAlign=top;aspect=fixed;imageAspect=0;image=data:image/png,iVBORw0KGgoAAAANSUhEUgAAAEAAAABACAYAAACqaXHeAAAAAXNSR0IArs4c6QAAAARnQU1BAACxjwv8YQUAAAAJcEhZcwAADsMAAA7DAcdvqGQAABZwSURBVHhexZtZbJzXdccP9+E+3ClxEUlTa+OE8pKwchqlTZXoJbaRxAXiAo381IcmiAwURfpSWS36EPShMvrUp7QvNVDUqVMDQQu0cBLEgh7sSk4lihLVaCEpSlyHw33v/3fuXGpIkVpiSj3Cp2/mm/vde87//M9yvxnm2P+TvPL1ryd1OqVjUseZn7z/forrT1ueOgAyvE2n7+s4kZObm1xbXfXrkjM6Tj9tIJ4aAFkeP6EjWVJaasUlJXxkc7OzNjsz468lTxWIJw5Atsd1JEvLyqyqusZKZPzi4oLl5ORYfn6BLS8v28jduzY9PcVttrK6enpiInXmw7MfPlEgnhgALx15qStZWfGd/Pz8E7m5ecmiRJF17t1nRUVFtrS05GP0mQOwuLhoqdSEX5+fn7fJiZSNjo3ZaggPGPG2gLjBm52WHQcAqs8vLJycnp7B68mGhnrb3dRkxcUllpeXZxUVFbayshIGb5K7d+5YejLlhjNmIjVpU1OBERIPjZ1mxI4BsJnqorAlEgmrqa01Ep1Y4ECUl5eL5tM2q7gnDNbW1pz+6fSkzc3NCaR83b62DhLsGB4etpRYkZHTOnYsND41AKJ6Mjc391R5WekJGZwsl4fLyyvs7t07tiLDdu1u8nGTojjC52s6Q/0y5YNEothpX1hYqPAoFAjzDghCjlhYWHAwJlMpU05w4AoK8q28rOyM1v3UyfI3BiCT1U/Ozy98f2FxMVlVVWUtra1WXV3l3sZzGIKXMXZBRk6Mj7un8xT7ZWXlVl1T44ZzEB4yyOcGEKhPTiAcqBDTU2mfD5bAmiz5VFXjsQGQx53qSmCvlpYUt5WqnJVXVro3iXMoTnKLsct1jAOQSHdCYGlp0UFgPABE47MFb8/IeIxeWFByFAsAMllVbUUKL/JFepI+ysVD43GBeGQAoLpOXsdlUBKjSoqL5eFipzWxjkFkeQzC65slZvnoxYKCAmfIdgBAfe4BhPHxMe8XlvWeHoJSyloAOzjQb3eUQAkfMeZMbU31IzMiL3PeVqD6gf37fyBD35HCX1acJ1paW6y2rtaN9FKVoSQGAYxTV8qr01s3jHEwA6UxHhYQDpwLCwv8+lYSQSA5MhfvS0sDqxDONFSKQVtUvpBK3fl5eT+Qzjk6Lly5enXeB24j2zIgK6u/qqMN7+JlqEdyQmhg1tZWLa1yNT8/59cqK5NWXFri8Q5d6xsara6+3qkPABjPASApUTo3l2RYvm4QIYU4sJJo9Jj6Ahol1oEBrD03O+Pg0FwVFiX0etHXXFxYXG+oJITFm5nX98l9AGSSm1NdHk4WiJ719Q2+KB6PCiEez0pOUBMDMD5ZXe1MmEqnpfSoK5Srz6gGMzPE/pLnCgyF1hhaU1PrYTErg4pkSKVySmRKZMuk4j1r3+DsWhL98XqUajmooCCE07Ry0OjoSPbnWybLDQB87dixV8XwH+klILgSMZ5JPDAAQ1dWSGTKzEKZz/Bsk2o8ymMQyYskyGsUqUySJMvdGECjGWIexvEehfkMQMgRvC4pUXJVguR9BJ4zACKhqoz5WIQKBNtwzl0xZfjOkM/NwRyI9ElpzTf+64MP3vMLkg05oLW19Y+Xlpe/zKQYxc1TQp8Yy8snthflvWJXniaHhgVvUgIjECgKaCQ3gCKBocDSUjAcoxiDwBRA5j1gYEsAvcjnZD7Wi/fBGub2+fUakJa1BkyAhdw3rfUAPkelmKpBknRHyA6114nZuTnlyzv/4QpINgDQ3tZ2XMZ3g6JquyuuOu+xqvbWlaKsAUxaFIfSTB6zeYxjBKNgBMouKCYpY1NTYTzXNo9FmBPwmY9rrMXY+DkCKFxDaJJIjuQhwo9cAPP6rl61CeUMHDAyOurXAsDOlnMPBECnbhRwFOXVqOgCQExMuNH6wBVZXQ3K4pk4lnMU4hoGIKxNB8cYAGZcHAvQeAglMQ6PM2c2SFsJ8xCGhMOwaN/T02O3bt3yeSakKy00r9E1S6+HA1CZrPIWdVXIsggewOtMwpkYGxWy+QoL5p1SIszJyXUwGE+cRq8BJJmba3R0swDIdc19e3DAxuWpcN+y05XXhBfGPwgAvAkDZmbULIlZKSVJmEaFAvTocYAkrAAB3STbA1CVrFIIWDeNDTdA4RKVNFpbJp3xScnELK4trHrz6GGy7d2hIc8TuQKj/+YNGxkZYagDMKdx7A3I0ngZADCAAwZwBlDCDKVZHwOi5yIjoxDfN69fl+dpgOb8PSziHgzl/ipVpDLNFe/FeZLtAdjVuOu4bu5OSEFuYBK8QFnypKYJVldX3EvROwAxlZ7yLixRnPBsv+qKhyRXmElyzNfauseampsziS/PkmJalaoLrwEARRnLgREwAvDwMvmB9xj68ccf28WLF+UQOUVGDwwOevJjDZIm8+I4119HvrOqWKxwZ20PwN7OvcfVmHR7hpcRlcmkG8HEnPEORpJ1s5X1hRNF3v0tiILsBqntZcrcESjYRO0GSABA0QgyACe1FvdTvkZHhgXorBs/JFaR0GBW39U+u6oEB+v4nDgnweF15sXjJENNrBXDNQxnHcZkHrttD8AzHR3HpVA3mxtuSkhJ6FqjXRv0wSsY7mVKi60pCaIY8TuucAiA5Hh9pv5jHHQGPMbF0oZED3MGJOan6SqlX+BzrcNac7Nz7n3KHEapjDkwhA33Aib9CRWA7hAdCCVKZFwLYQ2aM8nDkyC1HdqgMECwCAqSyDCGhQEG49SrSdE1j0OUom/gHpSlEyRhojQg0c7Ois5sopiHOVGY+ZmTbo9+wXOE3t++PahMPuIh4HHuYaB+HyNlEP0//QHGBSbSnZKA83x+BF34HAZMTIxjwzmVxgcDQFwisbajKF6IyrIoNOT9ysqqv8cL7NRC7zDv8QkwUJQ+Yk25A4/Oi7qULMrp8vKKx+WokuWY2tY57lNZ4zXVAVDSqjAYHTvA0Cprv5EJIXSA5ugJAKxBRYIlMAAwAAV9cYA+Pzc+Pr41AC3NLcoBud0kEQzFE8GbJm/ctps3bvgCxGtMSowDXRTyRklgoDgeSygvEBJ5UoK5MILPUJo8grFQO8S7egGBhaLMSxkjufEeb3I/rS5URyfWJFdFqjMvZ9gL+5gjsDV0gTiHs2R7AGqqa44rq3fX1dU5oiyKoXRWbESYYEC1u7e315XA8xiOIiwGONzDtdg+06SkZVgMDcYBBKxiDWeFxqBwZNqEGIPhvMcgQCU3MC/3AhpMYF3mDJ4m9kPDE8ewCWO7w3uqDE6RPIgBzcel0DoAKICCdFf9A/1OR5AHbWhNhoZi1UqIMIHWFQPxHoo4I6S413sZiaH07nlSlvlRjIP5AJdH4YxhDYypq6u3CiVkSi9MYhwhQ0hQjaA6oIRQvPekGTBZL189B+yiVLIO9kivc2PbAbB/3z6vAiQXFMQLNDN4HaWIZ4zhNYtyJtENDAxq8iVrbGx0BngZlQACAjiepR3UEMvadPn9eGVc5Sx2bgAIe3juUFAY+g28ifJ8jkOYNzw9NgeAa4zj4DVrMJ77ABRBXz6XLhuqwL1dRkYijaIwIfV28t6zN0cTcFCaz0H58uXL9uMfv6vwuOxjqBC1lCedmY9z65491qA4joqy4YLuKIuCGMMuj88dCOgv4PAuxhPHeuEVijlhBt5GH+6JwmvGaJDPgVM4otOyZQMAqdSkjApPdh5FUAwgQJnXKPPRRx/Ze+/9q127ds3HwAaMRykWR4mE4pfEGIVrUcEAVpnCqsYBQQgjniBHIBiDl1kPILmWFeOSUB2oZoRQNJwxOC1b7mNAnBThxu0Eo1AawQNMjALcy/tf/eoT+8Uvfm79yh8ISgMWrSmvt3oYR9IiuWF4MDI80KhVToq60OzE7g5hmx2/VMHI0JjRICXWASWkytSdohdjsmV7CyWtra1+eHuZERJbpDWxTSWIQKBsdmjMa3/ArjEmR4RzbX29G7JZtEH2eSObmA+FOeO9KG6UqF1RUelrMYZ7SJAkU5ouxrAWOkYweB1ZFeWBACC7dzfZd7/7PTt27Kuh3EnxRsUxQMRktxkIlPEEqoYmUo4xABElO2ajUDYZh0RPcWYuQKADJPvzvIBxGEXOYu9BZQB0rtGqo0tcg3v5HEA2r7vhXUd7uz8RInkxMFIIBFtaWuzIkZe8O6SsBJqBrhoh/WMRlGERPkNxvIjyzANYnKFhKItzfg/5g7XCviMovlm4h4YG0PEg45mf9WLSZgzMhBnxGvOH9UJpzTwg3b4KYEx5eZkdOnTIu72Ifl/fVacy8uyzn7Vvfutb9uLnP+/KslgFuz8lrWgkR7bQgt66edNfMycHW+YoKMsR8wcAIoyjwkwpxqE187ohApbxvGcsHWRtbZ13hVyPwnyMx2mNjbsyVzfKBgbEvcBzzz/vsc8EHNCYUjigZihXC4B0Q0ODwHjWQeDrKdAGQGo3SqEkwnWkUvFKwzSvZEUbHPqJ0AViSFQbQHlPMostLHPALJJfBBBhjRFtnakIbN0j86LAll27div0QhUaUjuvMeeGh4e3boQiAM0trV6K5AOnHcb6llTK0xgxEVtX4p6uEcYQ33wZghIAxIEBKISRPKDo7Ox0RkFFdnY8cAVgBKPpKuMzBZiAxKpRsCk8ABBgFkVvGrfIICR6vF7JFqewPsfNmze4Z0MrvGUSZHIeKLI1RQiHI0eO2AsvvODNDV5km/vJJ594m4xgXHZoFEnhbAEIQEGhKJEdUfA6uzhAYA4ozSM0kt9mcWClx+6mZk+CvMdwvp9okQN5DSDYAlOYkzHZIYJsCQAdFoI32YtPTqb9Na3ul44etSNf/KIzA+nv77ezZ896jGMQbPj266/bSxqTzCqf2wnKoSQCCzC6rr7BnyhBW45swQjWIRHHLS+5B8M5aJr4HMbCwBiKESCckC1bhgBx49tYLQ5iTEgZYRJikTIEGDCDTRE5gj1+/F0Pj7iI98PPPe9jbt266eHS2bnXn8pAR8KJeTljBMrxMJZkFrM8Z5gQKokyvYPFN0W5blhFRbntaWvXGlUax7Y8AMp4wIm/NkE/9h481pc8/IkQtR+laFZgA/HIN7goFRqN8E0vSu9Rf4/BGIJX+Jw8EZqQhPf+lE8SEkcEAAEsFKZT4zPoTogADGuyBuLPHpzKC54nYF9r6x5ra+/wMXEemARTOdAVRsUw4EyOkjwcALaheB6jearDlw94mIlRlMWuXetzQwABL7e1t3vLirIhdGZUNQbci9AOanKff43l3sfA8CUJRrD748y6KM8R2ty0b20R1mnv6BDVm12PaDh6MA8SHtuHcEIYA5iPBQAZFMVBji0lXsW713/9azt//rw/0yfunPpKlowjLKgEMAK6syg7SLbQHNRxDMS7VJCJ8Qk3EjDwavwuAsUxhvtjQmS+/QcOWltbhwMeDY8eR7jG6wgAwlpc43gsAOJXzMQfxvde7rH9pUOWbyv2v0OTdunSRf8ainHEOkZoUl8IEDjIEXgpeCfsEeglGMPcYYuddhDjb4ZQMh4IzGnd02btojo9ANc3G47BhGm24VGi4egAmA99KlxfVy8A1rp55M3NoA0APE19seqmvdZy0f6nf9H60/lukD8p6r/lbAEIrgEEsc8vvqAsDRXnmJVjfM+L3gBHXPOgpFDjYQRzASB5qLk5UB1dMHqzxzE8grWVeMhlmMR9dIySDQBsKIMM5nkAdI4bHRS8oHqfWgq/KyjMCd+9vb4v3zorc01NhX344S/t3Xf/Zf0ZAMaOjIy6dzEKALq7u72P4DXXoHtlZYWPp3fjGqBRgajjJFau4T2+e8R4HytPA2Lw+r2uLwrXsCOCBUCMR5etZMs+AC8Agv+EZSXsrxerVE9fMOv6Qmhenq3Jte99rtD++muz1lkTnukBxPvv/5tdudLrY1ACgNJpfiyx5mHBXoKmiTViU1IssPftO2AHD/6WexxBYebEmGAoW94Q0wGy+4Wx3IPnEcDjRxfMtR1TNoQA3w3q1I3xKMKNydW0vVw5ZE0dS7arbdn2PrNqb3xjwXJu59rsTIF9Ye+UvXJoybp2L9u1sTwbHF/wPQMg/G6nMnnRbgcCuseeghKJYjAJpak6HR3PuFfjN7xxT4/x2Z7mNXPwWQQQwWiuAxCG86yS6oXh7sB74bN9CEh+zn9kbeKb7wK4qTqRY81lmaGFDX5qbpi2wweHRYUv+fvDu1fsL38nx/5wf4Ed3L3qYXBg4p/s4PDfr9OXMw8taHmjE2ECazCeqpGdzLgOKNkSYj/s8jIGuUSqx6oDIFyjXaaCZVhBHIdtaUY2MEDI9IoF/6g4nZRiXYMDA4ni5dt2tGXMCutXLFGrBZNf0XHUbPSS2bTC4dgfmTWp5V28YunhQqvKKbJvfDNtBz8zZw15K1Kq2K4s73dl6NbwLF6npMbySL+R/YVHtnejYZwBi895HQ9yCbSPHWlkCL8gC/2GhyyG/1DHt89fuPAzLkTZAAAiEFK9vb0/6+m59MPGhsZkbfFi91efuWuJWRnPXI2fUX1qNys4a1anC7Xf0UWBWnDJKg4oXyzmWFH5qnUeWLDCpjUbWcy3nqG9HlJ0liiElwcHB11phITLji4aR5mMhuDlCEr8PApepZwCANdhGNTnGSFjJSzw5zrelOHvybb7fjO4ZRKMcv7C+Tff+aAPV5zWkbLb+n+sS//pyK+U5nppL4b3GWn+7WmrfPEVs0qFhvBZTqx4H3Hj+nX3UBS+NqPPwEDiPlswHJZkG8vrEBKhF+ABDcbzGsP5fpFfjFLr1TxhOD+La5fhZ3Rs+7cGDwQgStff2Fs6HdZx2vKLNfleZcw/Mat52T/XDjycymR4ye+F14TJpYSt3AqdGNWATRGJCYHO/MwWmtJZRgORjPf8fSZ2XRjLPLGhAiR+lY7h/MGF5sDw07p+WEbj9UCxB8gjAYAIhBsA0fXyn7IPhhEy+HN+MnIc4VGwX2Eh4CMIuj47MOt9RPxiJRqZLRiPMdHwKFznGlkdQ0mUMSz4EWS/AHWPZwzXcbjv2rW3dDzyX5c8MgDZ0tX12be6uv6C0IBmKeOHF+d0jBMj4TdDLgeFRU1IZrNzs75PIGltNhThGiBA52g47zH6zp0hZ0J4P+nG09VlGd7+uIZH+Y0AiNLV9Vf8BvewjV8JjJhXWbSfqhVUmV1VvlGaaDqUY3/2XKF1lPsIT3DByAACyY3njDz8pDxifKR6qBIh7kl03tSod1iT4Zon2+MPpfp2cq+T2AG58J9v/K3VNp+0kX+Wy6+Y3TKbzimwvn+vsrGiRrtS3e17eYzuu3rFYxlD2fSwlY5054EHOQKP86sRfpyVYQ2G/oOOtx+U2B5HPhUDNkvX7/8IRihH5BEaRtUoSy3ZnqNpKyyjJwj1nIcekQEwgt8D0RXicYzmSTBUH9BGi1+Fyfj1GM8ktx37C7IdBQBRWKS6jvUEIJZDsqzeN29lhwb8uSGUxmhimj0Cwo8vItXp3MjomV90rce4jH5rJw2PsqMhsJVc+In/8vzkf/dWnvq7dzqsvqFB+/t2B4MfWNATkxihPKBkU13v377U07PjRmfLEwcgyuGuwwBxSgCcZLOF8fTo65uCINHj7z0Jb28lTw2AKK+99gfOCAFwKguAmNxOy3BePzV56gBEESP4k5wTAkDF8ukbHsTs/wCNULKNiDv4QAAAAABJRU5ErkJggg==;" vertex="1" parent="ZNWlbsZwltuI7lcsnE4K-26">
          <mxGeometry x="142" width="32" height="32" as="geometry" />
        </mxCell>
        <mxCell id="ZNWlbsZwltuI7lcsnE4K-21" value="" style="shape=image;verticalLabelPosition=bottom;labelBackgroundColor=default;verticalAlign=top;aspect=fixed;imageAspect=0;image=data:image/png,iVBORw0KGgoAAAANSUhEUgAAAEAAAABACAYAAACqaXHeAAAABGdBTUEAALGPC/xhBQAAAAlwSFlzAAAOwgAADsIBFShKgAAAATdJREFUeF7tmTsOgzAQBelTR6Ki5QS5A02ukZyCmitw26TZwn5ygpD52OyM9Cpsy2+KlSUaAAAAgL0YhuGzZezYekiVyIkdWw+pEjmxY+shVSIndmy56IXneY4yTVOUcRz/Rtfr+cPjHuX97KLYtY5DL4gABDgToOiF27ZdlZSUMNOrj9J3tyh2jfNAAAKcC8hFh5wORRWiAu2YekEAApwJ0ML6sNEhpwJUUHVCEIAAZwK08NqHjRZUIfrdtpUDAhDgTIAWXhpytu0nWhABCEBAWQK08Noht4QWLO4hhAAEOBOghXOH3BJaUH/E6Hfbth8IQIAzAVp46yG3lt0LKwhAgDMBWnjvIVccCECAMwFa+OwhdzgIQIBzAVpQY8uuS6p0GFt2XVKlw9iy65IqHcaWAQBUSNN8AbDZhFryr3+TAAAAAElFTkSuQmCC;" vertex="1" parent="ZNWlbsZwltuI7lcsnE4K-26">
          <mxGeometry x="177" width="32" height="32" as="geometry" />
        </mxCell>
        <mxCell id="ZNWlbsZwltuI7lcsnE4K-22" value="" style="shape=image;verticalLabelPosition=bottom;labelBackgroundColor=default;verticalAlign=top;aspect=fixed;imageAspect=0;image=data:image/png,iVBORw0KGgoAAAANSUhEUgAAAEAAAABACAYAAACqaXHeAAAABGdBTUEAALGPC/xhBQAAAAlwSFlzAAAOwgAADsIBFShKgAAAAVdJREFUeF7tmMFthEAQBAmKXHgRBBkQDRmRDZL9Wcmz7dasMBYcUC3V6+Zmp+txj+sIIYQQQj414zh+ZZSx58aVjpSx58aVjpSx58aVjpSx+8SVyFiWJWWaporyzOfGlcxwpSMIQMDFAtzRGVpgXddD6L7ThbiSGXqwK7UH3YcABBwU4I7O0APckWei9+wW4kpm6IPuqDPRexCAgIYALbRtW4V75JPQexWd/yUEAQhAQCVAf0RaC/8bfa+Ffl8Lap++7ysQgAAE5AKU1gGKzrfQ78/zXKEFFZ3X+xGAAAQcE6C4EpGjhVq4mzIQgAAE5AL0QLckcnVBfU8LKuVvkJ8gAAEvF6DZK+SoAJ1XXImMUuPvQQACXi5As1eIfj4MQ4U7OqOccV0QgICXC9CoEMWViJQ1940rHXGlI2XNfeNKR1zpSFlz37jSEVc6UtYQQgghhFycrvsGbAmsyq3/MOkAAAAASUVORK5CYII=;" vertex="1" parent="ZNWlbsZwltuI7lcsnE4K-26">
          <mxGeometry x="213" width="32" height="32" as="geometry" />
        </mxCell>
        <mxCell id="ZNWlbsZwltuI7lcsnE4K-23" value="" style="shape=image;verticalLabelPosition=bottom;labelBackgroundColor=default;verticalAlign=top;aspect=fixed;imageAspect=0;image=data:image/png,iVBORw0KGgoAAAANSUhEUgAAAEAAAABACAYAAACqaXHeAAAABGdBTUEAALGPC/xhBQAAAAlwSFlzAAAOwgAADsIBFShKgAAAATpJREFUeF7tmbsNgzAURelTR6KiZYJMQJMmaySjZCymYBukpHkFvnKCkPnYvHOkW2Fbvqd4skQFAAAAsBVd133WjB1bDrESKbFjyyFWIiV2bDnESqTEjs0XvfA4jkGGYQjS9/3f6Ho9/367Bnk9miB2rf3QCyIAAc4EKHrhuq4XJSZlmvezDdI2lyB2jeNAAAKcC0hFh5wORRWiAu2YckEAApwJ0ML6sNEhpwJUUHFCEIAAZwK08NKHjRZUIfrdtuUDAhDgTIAWnhtytu0nWhABCEBAXgK08NIhN4cWzO4hhAAEOBOghVOH3BxaUH/E6Hfbth0IQIAzAVp47SG3lM0LKwhAgDMBWnjrIZcdCECAMwFa+OghtzsIQIBzAVpQY8vOS6z0NLbsvMRKT2PLzkus9DS2DACgQKrqCyWtTomuyIhYAAAAAElFTkSuQmCC;" vertex="1" parent="ZNWlbsZwltuI7lcsnE4K-26">
          <mxGeometry x="248" width="32" height="32" as="geometry" />
        </mxCell>
        <mxCell id="ZNWlbsZwltuI7lcsnE4K-24" value="" style="shape=image;verticalLabelPosition=bottom;labelBackgroundColor=default;verticalAlign=top;aspect=fixed;imageAspect=0;image=data:image/png,iVBORw0KGgoAAAANSUhEUgAAAEAAAABACAYAAACqaXHeAAAABGdBTUEAALGPC/xhBQAAAAlwSFlzAAAOwgAADsIBFShKgAAAAWRJREFUeF7tliFOxVAQRbsFEhRB4FkJ9nsWgWQVWByKBM8S/g5IwCExWAyiCZgx72TSl5f/mrbpuclRTWbuHPHSwRhjjDFmrpzd3f+dQozZbrKjWogx2012VAsxZrvJjmohxmwnPGAcxybexp8Czos16w0LZ0dOoQAFbEwAC/Kgm++PSZ5+vwoo4Or4WnB+eyiIGstFAQrYmYDWg3kg4cH8znmLC1GAAhTQJIDfeXDtO+cRBShAAfMKOPVgfid89MjFy3MBH0F+7y5EAQpQQJOA2iOWHTnF5cNjgQIUoIB1CSAsmB01BYVRAA8mClCAAuYVUHvkSFayBQolFKQABSigrwCGC2oHZ6VbqM1jn6g5X7hQAQrYuYDrz/eCWuFWOI8/TuwTNecLFypAATsTwLAAf0z4SBIeRCiE+6LGcmEhBShgZwIYFuxNrFlvstI9iTXrTVa6J7FmvclK9yTWGGNMhwzDP7Cwp91QXD0eAAAAAElFTkSuQmCC;" vertex="1" parent="ZNWlbsZwltuI7lcsnE4K-26">
          <mxGeometry x="284" width="32" height="32" as="geometry" />
        </mxCell>
        <mxCell id="ZNWlbsZwltuI7lcsnE4K-25" value="" style="shape=image;verticalLabelPosition=bottom;labelBackgroundColor=default;verticalAlign=top;aspect=fixed;imageAspect=0;image=data:image/png,iVBORw0KGgoAAAANSUhEUgAAAEAAAABACAYAAACqaXHeAAAABGdBTUEAALGPC/xhBQAAAAlwSFlzAAAOwgAADsIBFShKgAAAAUNJREFUeF7tmTEKwjAUhjsKgpuruEjBUXB1dvEaehSv4BmcvISDN/EWuryh+YmWklaTvu+Df2oS8n/DI9AKAAAAYChmu+2rz9ix5RArkRI7thxiJVJix5ZDrERK7Nh80Qtvno8g6/s1SH27fI2u1/P323mQ02ERxK71O/SCCECAMwGKXniyWnZKTEoz52MdpF5Mg9g1/gcCEOBcQCo65HQoqhAVaMeUCwIQ4EyAFtaHjQ45FaCCihOCAAQ4E6CFuz5stKAK0e+2LR8QgABnArRw25CzbR/RgghAAALyEqCFuw65NrRgdg8hBCDAmQAtnDrk2tCC+iNGv9u24UAAApwJ0MJ9D7muDF5YQQACnAnQwkMPuexAAAKcCdDC/x5yPwcBCHAuQAtqbNl4iZVuxpaNl1jpZmzZeImVbsaWAQAUSFW9AakUXdpMww+IAAAAAElFTkSuQmCC;" vertex="1" parent="ZNWlbsZwltuI7lcsnE4K-26">
          <mxGeometry x="319" width="32" height="32" as="geometry" />
        </mxCell>
        <mxCell id="ZNWlbsZwltuI7lcsnE4K-29" value="" style="endArrow=block;html=1;rounded=0;strokeWidth=2;endFill=1;" edge="1" parent="ZNWlbsZwltuI7lcsnE4K-40">
          <mxGeometry width="50" height="50" relative="1" as="geometry">
            <mxPoint y="77" as="sourcePoint" />
            <mxPoint x="380" y="77" as="targetPoint" />
          </mxGeometry>
        </mxCell>
        <mxCell id="ZNWlbsZwltuI7lcsnE4K-31" value="&lt;b&gt;Minecraft Tech Tree&lt;/b&gt;" style="text;html=1;align=center;verticalAlign=middle;whiteSpace=wrap;rounded=0;fontSize=17;" vertex="1" parent="ZNWlbsZwltuI7lcsnE4K-40">
          <mxGeometry x="49.5" width="280" height="30" as="geometry" />
        </mxCell>
        <mxCell id="ZNWlbsZwltuI7lcsnE4K-32" value="Wooden&lt;br&gt;Tool" style="text;html=1;align=center;verticalAlign=middle;whiteSpace=wrap;rounded=0;fontSize=17;" vertex="1" parent="ZNWlbsZwltuI7lcsnE4K-40">
          <mxGeometry x="61.5" y="86" width="80" height="30" as="geometry" />
        </mxCell>
        <mxCell id="ZNWlbsZwltuI7lcsnE4K-33" value="Stone&lt;br&gt;Tool" style="text;html=1;align=center;verticalAlign=middle;whiteSpace=wrap;rounded=0;fontSize=17;" vertex="1" parent="ZNWlbsZwltuI7lcsnE4K-40">
          <mxGeometry x="168.5" y="86" width="80" height="30" as="geometry" />
        </mxCell>
        <mxCell id="ZNWlbsZwltuI7lcsnE4K-36" value="Iron&lt;br&gt;Tool" style="text;html=1;align=center;verticalAlign=middle;whiteSpace=wrap;rounded=0;fontSize=17;" vertex="1" parent="ZNWlbsZwltuI7lcsnE4K-40">
          <mxGeometry x="239.5" y="86" width="80" height="30" as="geometry" />
        </mxCell>
        <mxCell id="ZNWlbsZwltuI7lcsnE4K-39" value="Diamond&lt;br&gt;Tool" style="text;html=1;align=center;verticalAlign=middle;whiteSpace=wrap;rounded=0;fontSize=17;" vertex="1" parent="ZNWlbsZwltuI7lcsnE4K-40">
          <mxGeometry x="311.5" y="86" width="80" height="30" as="geometry" />
        </mxCell>
        <mxCell id="ZNWlbsZwltuI7lcsnE4K-43" value="" style="shape=image;verticalLabelPosition=bottom;labelBackgroundColor=default;verticalAlign=top;aspect=fixed;imageAspect=0;image=data:image/png,iVBORw0KGgoAAAANSUhEUgAAAEAAAABACAYAAACqaXHeAAAABGdBTUEAALGPC/xhBQAAAAlwSFlzAAAOwgAADsIBFShKgAAABkxJREFUeF7tlruOHUUURSclshyALGSTYBnJEowIQAIZiZCHyUgIsDTf4JiEnASRIT6BlJg/M9qtWtbyUVV19507c2cGl7R1u+ucqt579WPm7O040Xjx7dNXVpu++yNhv3/25LX+NyBq0H9+f/GGXAuYtuz2DweLHPqvX58v8lx9Mto2t2/UIH//9uOihPzj5deLAGAQ9LEOtW1v/rDpACBQ5LABwF33fOQ17IPaZW7ecPCIcBF3nLvumpWaew3CT1PULnv68fKnz15ZNu0wNVBVBWG5zxBOCiIX96NpkzW4w7mvJ/duBXGtr4YvHMXMv39eLNoTvPbWutcagntT802In2bz+IMLODiqYWzefdEvF5+/7mPOa90beR96gOGavUXN9uUH7zaUHcrGIwy5p/YGQK0h79Wrs7efBvemdjQQbAAALh7ZaMQrkJoNRzY7qtX59AZUD1bPB72u4Z8b12KtDxYib8oFEfMJX40SbhQQbe2rNa4bAaAHor66LeZ4fPflh28siLyhTUWuVZMOVwPOavUarkUE3xIeJceTR/e3Afj0oweLKgibqCZ9YffV3hrWmkGJfA3vGblWfX/y+N1FuwH8/M3TRZWkTdlwjLhWNerNsWteEzkca5Fr8cY3K/ri4/cXXRpA5nqvhk3aVDXmvl4vqn3eI3VD8r7cGPTBg3uLLg3g4ofzRQCoIHgqbJowNmqzvd5ejXXs415q1QeBAUDw3QAeP7y3CABfnT9cBIDU/GpgxAFmxt1nuc56xEcvNa6H3rv/zhLw6AAIPgLA61ENOQwAEPMEdW9Ug9OT8H6/c52ESvijAkioLQDyZPj7MAKBEt7BHHoWPOJJixLeobYCyPxuAAk1A8DrwTw1G44cJuHqU4FSM5QKNCEcKjIAglcAgNkMIB9AAERrAGqN4xrA4Wp41+o6QgIgQQiXecKuAchxizkeAIgIciiA7BXVQHzQohrcTw4BAPDs/NES3gAcNr8A8dxuADE/A+A/kVsAANQQEnB0xwmHtgKgz+EPBhABoQeA41mtAuCcO1yD26g1A+Dz9PTg7AJQwxDI877LhwBgHcExi9EaciuAWjsqAALldysA1td9ItbZbAL2Qu4BkH2oXQkA7ihzFUBvfd2HvshmZwAIRq32JiCBvWd0LQD8UaSWJ4U9vMbrbJYwqAbJMbUrA2CTCTD6qjNHuBEAQ2A+qgBylwmDHCT1HFPrAaAfubYLAIZHADDv3h6AHO8FYOOuAYC7agCZPwmAiH4DSI9D0uN9qGGWgDbuWkLn2AAcOsd1Hee7AWAYAIQDQOoORygDiLKHe4CQGusxNwKQGqFzzq9DcV4D+5z9W8zxwCyGDcA1AgCE0D7OekJHnKdWARAscnhqEfPUOObcgTlPLeEPBhCtAXBwfiPWs4Zz+iLM1jtMKIIg5umJCE0P66gfDCDaAwD15qIZgJjjTmOcGsF64Tyf36yvPbsBxCQGoxg+JQDO1wCwvvYkPPu2mONho5jsBRoB8Bw91E4FwPu2mOORO70GgGAO59peAAlQjUY1yAxAjlmfev5M0uN9W8zx2AqA46oZAM69lwP4Xe2JvjpnAFnPP0m9nhZzPPYCqP8sEdAAeuf02xwAagBEX51bW++eFnM86seup4TgeAYgEI8NgJ5ai2Y11GKOh82NnoQ1APSy3ut6AGKMxzfqAdgCiZrnqlrM8bC5GQD6AJAnJzKcCiBzFQDGAJDfGm7tKak11vXUYo6Hza0BiCoAer2eXub9xNhcwgNg9KWvAFxjPevqX4yoxRwPG60BapAczwBkfi+A/FbjewGg3j4t5njY6OgOWqkbgF8Bw9kCAI0AZM4Acn50AIyYmwHg3D0zAJHnOcac1TNuAA6X+Zynz+Hdk1qLtX8YQI4xzlzCuGcLAO9DSEJEGEcAoI9wPvce7mkxLj8AgHkD4I6OAHCO1gAgAHgufXkKfF7X5rzZPv6YAajhDMw6FECO+QYwVwE0m1c/AFBD1mOfIz8lMZ0P2mUBNFvXPy4LgD9nBOmBQAFQe5qN0w8C9QCMQEQASBjC1TuPDKBd9uaNGtQAeG1cXwOQcwNol7n5wyHXADisAXCeWtv29o01AIQdAWjb3P6xF0BbdvcGAPKXIKoAWtvdHxVAm347rnecnf0H/ruUKfMZS1cAAAAASUVORK5CYII=;" vertex="1" parent="1">
          <mxGeometry x="-752" y="363" width="32" height="32" as="geometry" />
        </mxCell>
        <mxCell id="ZNWlbsZwltuI7lcsnE4K-44" value="" style="shape=image;verticalLabelPosition=bottom;labelBackgroundColor=default;verticalAlign=top;aspect=fixed;imageAspect=0;image=data:image/png,iVBORw0KGgoAAAANSUhEUgAAAEAAAABACAYAAACqaXHeAAAABGdBTUEAALGPC/xhBQAAAAlwSFlzAAAOwgAADsIBFShKgAAAATtJREFUeF7tljFOw0AQRV2HhgaJKkoayAXIGegoOUGK9JyBa0Mzhf20imVtHHs970m/8u5o/ytG7kRERETm4nx6/rtnYmw7lErUJMa2Q6lETWJsO5RK1CTGrhc++PfyNsjP93GQ69f+Znie8z8/Xgbh/XjW4+ADFaCAZAIIH3x43U0KCzEU/L5/GiSesRwKUEByAbVwyXEpUggFxph2UYACkglgYRbkkuN3CmpOiAIUkEwAC0/9sWFBCuH3uLYeFKCAZAJYmA8eK0xYkPP4Pa4thwIUkEwAC09dcmOw4Op+hBSggGQCWJhLqbYwYUEK5ve4Nh8KUEAyASzMB9y78BizFyYKUEAyASw895JbHQpQQDIBLLz0kns4ClBAcgEsyMSx7VIq3U8c2y6l0v3Ese1SKt1PHBMRaZCu+wdfra4r5ssp1AAAAABJRU5ErkJggg==;" vertex="1" parent="1">
          <mxGeometry x="-589" y="298" width="32" height="32" as="geometry" />
        </mxCell>
        <mxCell id="ZNWlbsZwltuI7lcsnE4K-46" value="" style="shape=image;verticalLabelPosition=bottom;labelBackgroundColor=default;verticalAlign=top;aspect=fixed;imageAspect=0;image=data:image/png,iVBORw0KGgoAAAANSUhEUgAAAEAAAABACAYAAACqaXHeAAAABGdBTUEAALGPC/xhBQAAAAlwSFlzAAAOwgAADsIBFShKgAAAB0xJREFUeF7tmF1vVFUYRrnFlg60FVtgWkvLlI9+iQxQjGJFYsTWpDFyIyFoYoIlmnjnjTdeqzHxDxiJF/4WftQ4zz5nnT7z9szUcg7QktnJSmfOnI/9rP3uPXt6bNiGbdiGbdiGbdheeltcaHac/PDr366vLXacq8sXCtorF15fETH4zw/Pd375eiXxxzfzKTzo8/yyo99i8N+/vZTCi7925hMSIPQZ51EV+W2OXvPQgtAKSXD4+8fFhMtBANfntz38jY7TeQKJGPyf72cTCv/b42aBzv3zyXJC9/DpkT/m8LX2aqsDCu/BCSoU3MMy+kj496elAqYGa4TLzR/76hslmkaqG75fcNEvuPDgsVKoBuESXqkIDy4GBfdwMbifF4P7dcKf8cpExAdr4QIPI3zE46j78RjezxMuQe/9mb4+aCDybtbfYnC+tsqCe4eFh3XidTG4nxM/k6hfH7USLJZO3u3q7XJrtiMIzsZFeOeFOkxoOlomIl4Xr+E8wTHQ+bFSWB/UNwTQ3zzG87Xli2+n8IIb6yGYJ8CgDrsAOh6Dg98n3o9r/Hl85gKurbQSCJgcbzy/BAnIJMyk8NxcSAALkncGPBjBgQB8zjUcd8qCA1NQ4d9ZahWof+emJlP42gSAbk41CF+ZXYCIwWMYPzeGi+c6/kwfFIVXcFD4k2Mj1QU8uDPRI0FQYkAZihjcq0GB/H0MNyi4P8NXf+HBxcdr4yl8JQFL3bmPAEAAcrwa1BEWSOFBY9j4mQvz88RBgn90ZTSFR8CpRkUB4vHd0z0SBALAOyUZ3mkPo3IfFNw/i6Xuz4jBN5YbKTwC9FfhaxMgnnwy2VfE0mL33C5eEZoaBNBi5XNeJU5whXVJLu9GN6zP8zNvTSQIzmgj4MPLY4WIygII5wIAAd99Op1AANODtQEZrNj+9emjzYgTnMASIBT27FQWXhAcFBx2BWTkcQ7eELD9/umECwAEgK8PAgGULjs34cHBR1sw0gi4sTiWKAsO6xdPJSoLYMFDwP8R8cPnzYRLEAqPDCEB2rgIBWekKXkvc6ESby+MFgKuz7+RKAsOoyPHE3mcgzcEzM9MJVzCo7vNUhEI6CfCJQgqQyg8JY6Am5dGUngEzE0dT7iAq60TnVtdKQRnA1RZAJ1GwPxsBgJgPxGqDJcgLl1o9uDBhYKDwiss4RGgvwqPAIJDbWvA5q3ZBALAJZRNDS2cCBA6xj3nmlMJSrwsuNBixmgT/unTpwUK/+ZEI0Hw1YWJRGUBS/mChoB7N5qJXhHThYA4Nfj2EAigKqIAFjUPDgh49uxZwcbGRoLwguC9AirtA2a6+4CZzlcfTPUI6K2I6YTCIAAZLgAQwIhHAR4c1uYbiZ2dnc729nbCBazMndwT/t0FTYEa9gEIABewKyITICQFAWUiqI4ogJXcg793ZTzRT0C73U7hXcDNViOFR0AtP4Y0Yi5BRAl32mcKAYCAh7czXIC+0x0XwMKGAOby/fv3U/itra0U3gUoOCi8rqv8Y4hNDWU7SIQEgEsQCHiwcTbRTwDBgbntAhQeAaurqz3BhaYR4moRILTldQllIlxAPxEIECp7wut1WXBoNTM2NzdTeJW/wrsAfVWyjii87lOrAEAApYwARtkFfHY9AwGsEwhw1GF9hXlw5rULYPFDAJskF4DIygJYA1wAIID3CHARCGCaIEAoLOG1GPId7sFdwPLsaCFgfX19jwCtHS9MABsZF0AlxPcuQZXhAlwEgfk20GuFXT4/3hNe5a3wCFB4F+D7BgSwJa4sgH0AAlwEgTnGe44hAKIEjTwC9JrACGBuI0AhXQDBXQDVgIDK+wAEUO79wjrxmEtwEZQ/+Ig7CkZIja6HBoID19ayERIIABegavDATAk/JhDwxa2MKEA/ZgSdV1iFR0ARbkB49hK7Amr6MURYBLCrQ4CH9vccA52PAN8DCAQwjxGgvx6yTACiEMA+oHYBgACIoSOShgB+PUYBHlwoHK/7hSc4cF7tArSdjRIUzCUoZAwOVI4LYPVnCnhwKDsmYnCOu4BrizX8HNbIIABcgNBrBACfUfougPtEAR4QooB+wcHDI+BElf8IeYm6BOECEOISBAKgTAB4EIIDc7tfcKGvPUrfw1cSoOYSzpkIStkFwCAR2gb3E0AJx+AQQwt2fQhojGVlX3n0Y0OA0GsEgAsYJIIfQx5eU4DwIgZHiAdntBGgwAqPgLzb9TcEAAKojEEitFZoL+ACWAMIrhInOGFdAMGBzQ4C8m6++IYAqiJOjTIRCBC6FgF6TWgJiCOu14z23uAVd3tVm08LgQCqwgVoCug4AhyFJ7gLIDACDk3w2GIgBCQJmvcmQDDyQq9jeB9tkQXW/D5kwWNzCaIQ0IXwCHA8OGTBd0O/0MWt7hZFIODL2zOJKICRJnwWHA7xiO/XXML06Yl9BTDSkN/m6DcEICMK2C3zI1bqB20I4B+fvcGPcKkftEUB+eFhG7Zhe5nt2LH/ACGSnGZqPmKGAAAAAElFTkSuQmCC;" vertex="1" parent="1">
          <mxGeometry x="-103" y="46" width="32" height="32" as="geometry" />
        </mxCell>
        <mxCell id="ZNWlbsZwltuI7lcsnE4K-47" value="" style="shape=image;verticalLabelPosition=bottom;labelBackgroundColor=default;verticalAlign=top;aspect=fixed;imageAspect=0;image=data:image/png,iVBORw0KGgoAAAANSUhEUgAAAEAAAABACAYAAACqaXHeAAAABGdBTUEAALGPC/xhBQAAAAlwSFlzAAAOwgAADsIBFShKgAAAAalJREFUeF7tlLFqxDAQRP0J14Q0x4VAnM6FC0OalPn/T0qaLaTH4mVjn07iZmAqSbszr9AkSZIkSZJ0lq7X2+8R25hx5ZXK2MaMK69UxjZmXHmlMrYx44gFlmWpvK7rrnmf82xNv2JgFvJKl+Z9zrM1/YqBWcgrXZr3Oc/W9CsGZiGvdGne5zxb048YcJ7nytu2Vf76/qlMAHxPc5/FeJwYiIEFQACeDAALswAL89OLzjmP+y1WOzGAAAjAkwP4vH3smgUIjJ8kzwmI85jHYt5PXOiVLs3ALCgAAtA5AC5ggOjTygKho/kEdLm8VLYa/5cACIAAVAAYiJ8YAzEw30fm+wioAAiAANwXABd6offM95H5ngAiHwYiAAIgALsAIjMQz6OCvP/2+l45OhcAARCAcwFwQRSY50cd7ee5AAiAABwDQHEgF9IMSEDRfZr3aeaz2OeJC7wQpVlAAARgcAAUF3qhMua8rC1WOzGAVypjzsvaYrUTA3ilMua8rC1WOzGAVypjzsvaYj1OXqiMbcy48kplbGPGlVcqYxszrrxSGdsYSZKkBpqmPxpz68fIrJ3kAAAAAElFTkSuQmCC;" vertex="1" parent="1">
          <mxGeometry x="-494" y="249" width="32" height="32" as="geometry" />
        </mxCell>
        <mxCell id="ZNWlbsZwltuI7lcsnE4K-49" value="" style="shape=image;verticalLabelPosition=bottom;labelBackgroundColor=default;verticalAlign=top;aspect=fixed;imageAspect=0;image=data:image/png,iVBORw0KGgoAAAANSUhEUgAAAEAAAABACAYAAACqaXHeAAAABGdBTUEAALGPC/xhBQAAAAlwSFlzAAAOwgAADsIBFShKgAAABzZJREFUeF7tlj2OVTkQRlkKEQlxExIQMKREpMSIydjCsBJ2wAJndJ580JmS3f16GP5aWPp07XLZt85n39f96Hf7Qe3t27d/Vyv88BuwH//6+EWfPn36ogdtRE9bEwT//Pnzv+b+fP/+4RgBDCrcPH0MQMTMN2dt8+s1ASbQfQ1Qa9ufvwkgxAkI1YCuq8jr57Fe8/O1FknhHVcAFbBzAitvBnJerdf++NaipjxhVdipa9fVILTK+P6tRc3CgOi4J+m8at5t6+ZcDWJ+lfXtGy8v+A5CtVDhVfeY65DrZtx819Sk169ffzsjdgAW1Tii8PY1wCIFn+sd72L0Xbczh30VOavsr28TgP5dAM1xvWMKNE85R9+9lOvpt4buOfepFsb9264Ax26+A7DfmHH3QMTsN69x1HcjDLDvOzq2XufUwrq7zULcoP3GjM8rOPepPEnU/Xa5VdcxPu2vCRphHlqY5/bHy5eXxBbWzee4Ev6k3RrVIqcKNE3rHPvUpOaxz7ObZ9cZ8Pz584tmIVVfhHoDZm5BhVAt8i4Dq7veUb148eKiqwwQHr179+6ibo4K0Bcx1yK7hnFzKbp5NXCurVjrupnH2r7j1atXF93bAMGn+rIdvGqBBUXk7k5trkPEmtv38f4aZh8BijTg6dOnF93bgA8fPlzk+Obm5iJP30ItymIs/gTgenPmfjtzlLnNV0+ePLlIA5QGoIV5bjsD3rx5c5EG+In4YiHva8Acdz/n3Ke59s33emvAbUYszHOrAYJPaYC5AioLE6ZzFl91nYZpQtdplCbM7/vx48cXnYy42gDBBJ6GcAu4GeYhxhTaIgsjxE7CX2Ma+wLcHzgBNWAawRxPYgvz3DQATQP4E4k0QGmA/RY/JbDqjxfwHTcPAeGJT3ghBdWAGV+Y5wac/wtoAOMa4MnvTODpup7q10gAVHgN4Mn1LmjNIeZzYZ6bBtSEjmuAsIIXHpGHeqrzeldc7457kshr39PXCA1ozD7Pqw0ApsBIExyjHfDJAMfzN8G+37YSQAOU8AIJiIRvTBHDIJ4L89xqAEAFYG5CTdUEbhNyzHrUU0b+wO0KRxrQmAJsd/rdwxz6C/PcAKgBiKILUEhzHXe9BmjaXK8BArToijnn55xwfhbVLmdhnlvh6CMLJyaAULcZYI5qjn2LA3Be8c5pgDFznNOAGrHLWZjnZmHIwmvAnGsMCV4D5qdQwwS0+AJMA3amdO6a9Qvz3CwMnSCRp+zY3IIbn59C11kcBXtiBXBeALWLaYDj/2RAi5uQfhKdE6ritvDsuhrgep4WNw2Y8MR4muMPo2PXdR/lHuy5MM+tUEKqGiCEuT1lPxlzu45516ICWnBPrlfaXFQDGJNvnuvdz1xiC/PcCiWIxQpema8BxjWgco589yxUDeDZb9q4uQB1befoz9yrDRC8BkwApCGCaEJzTibUMItEQPrUAPtIqMIhTWqsAt75hXluE7wQwk5wn6oGnEyYBhRqB6/IM5fxvCXIfcxh7moDhGvhxHgKvQMnx7450wD3aW6vJwVSqFACVYVHu7zCIw0gd2GemwagFtw4EkAYcwA2R3DVfXYGtFDkWBDhhdvBzxz3cN+FeW4WiFrwjNcABLjPE7jq3sLWAGHmuKfvOueIM2+O370yd2GemwUWdvZnDHnd6Qs+TXJN19WAntxOnTsZILwGmGfuwjy3FqmA4GnRjqsa0LxdLjFzKcxT1gBPUjjHNWDKeQ0gVvh7GSBAC1YFQ+a4ZqeZwzoN84oKcZtuM8d54ZHgXbMwz01IZJEFRjXFP2euEXCOG7OvARNGUxxbfMeedsdeffeb+6KFeW4UJ7ia33RPUwOcE7B5jivXt1BPbBpQECE1oDoZoK4yANAJrrzKNcBcwZyf/QrD3MPCAKgBxjVgQmqS8Urg3XhhntuERsIWCOgaYK455vlE5NcAJCTFFR5NeHN6S4jxdI+7tDDPbQc+pQGC1wBhC+4n4nrypgGFKrwGOK4BjF3jPkjYrlcL89wstAZYrGNyJrhrhEaC80S7PAsrlCAW33HzUPvmaYpx9nB+YZ4bRRWU58mAAjlXOMGJa4AyRwMEtFDjzqHbbgkyvzk1gvyFeXcTVNUA+sQK7jwxDasBqDfGT6jF+Sx8dbolcx0506yFdf+2M0EDZmz2zakBUwVQgszxPE37jsmhD7wGLIyvb8IKWQOM+VS3GWCsAMqTczwNIOY6JTwCfpX9/7fCVgJVp7mTAT05YZEGIE3ZzTFeZX77Jtw8ZeTcKYeYfYoWSAOEU0LXgMbQKuv7N+GErQHOTdUAQQCdJ78zQBlbZfz4NqHb95ffsSZpAEC9+sLVAJ8asF778zUhBeWpAZ66BiCBevVrwDRivebnbxqA+NGrARqkAfPqe9I1Ym376zUNqAkagITXAG+EBqxtfv2mAdOEE/xa9vCaBszfAA1YaQ+/TQNW+Hf7vu3Ro38Ah+M5//EiY6QAAAAASUVORK5CYII=;" vertex="1" parent="1">
          <mxGeometry x="-554" y="283" width="32" height="32" as="geometry" />
        </mxCell>
        <mxCell id="ZNWlbsZwltuI7lcsnE4K-50" value="" style="shape=image;verticalLabelPosition=bottom;labelBackgroundColor=default;verticalAlign=top;aspect=fixed;imageAspect=0;image=data:image/png,iVBORw0KGgoAAAANSUhEUgAAAEAAAABACAYAAACqaXHeAAAABGdBTUEAALGPC/xhBQAAAAlwSFlzAAAOwgAADsIBFShKgAAAAZRJREFUeF7tmDFOw1AQRH0VupRIET0FbUqK3IEb0FByg0g5B33EXTgEqaBZif0vo/0KkeLYnpFe5fV65xUpMjiO4ziO49xq9k+rn4oYm29U6UyMzTeqdCbG5htVOhNj04kqUXHYPpS8P64a4jO3G1WyQpXOWIAFjCxAHV3x9frcwEL7zX0J57nv6kJUyQoezEKqdIbz3GcBFnChAHV0Re8gwnlVMsN5tTPD+bOFqJIV/KA6KsN5VTrDebUzw3kLsICOABY67t4auFB9tILvq5IZzqudGd5LOH8ixAIswAIaAXyht5CwQA++z+/14D4lNfOyvmuwAAuwgFoAP8ADOE8434Pv8/uEBfkjx+cWYAEWcJ4ALuAB358fDSzEee4jnCecZ2HC9y3AAizgMgFk7MJ8zoIk/gb5iwVYwMIFMBTSO4gC+JxwH+G8KlERNf4fC7CAhQtgKIQH9n40WVAdXRFnjBcLsICFC2BOhABVIhNrphtVOqNKZ2LNdKNKZ1TpTKyZblTpjCqdiTWO4ziO4zgjZxh+ATcHYX7IB0+BAAAAAElFTkSuQmCC;" vertex="1" parent="1">
          <mxGeometry x="-240" y="143" width="32" height="32" as="geometry" />
        </mxCell>
        <mxCell id="ZNWlbsZwltuI7lcsnE4K-51" value="" style="shape=image;verticalLabelPosition=bottom;labelBackgroundColor=default;verticalAlign=top;aspect=fixed;imageAspect=0;image=data:image/png,iVBORw0KGgoAAAANSUhEUgAAAEAAAABACAYAAACqaXHeAAAABGdBTUEAALGPC/xhBQAAAAlwSFlzAAAOwgAADsIBFShKgAAAB4tJREFUeF7tmNFqHVUYRgsa29gmttiGGkoptlosKFZFi0UrglALXggGvBDUi4iXIsUr36D3XvkIPoEvF7uGWeXrnz1zzj6JSVq6YdEzM3v2+b81e+8zzakX7ZjaGxfP7SXj6ee/bZ59ZW/70kYTro3dnr9mQPn3r5+fIq/Rd7zt2W9fXN/cA58ynw3ttTzOfjAO8+y13+9c2wOD/P397QE+//Pr3QGv5XH2A8cZhz35zYLFcITys3z3yY2Bej771vHGrzl5rRaagSoGr7T6Sh1//Nrjb7WwVvHy4NblJzjVJa+17pX6fWMZR99qIa1iJZ9yDTgl4cSKyI0JWsVJBud4KmDrfL13iqyF2sYyD7/xtubODDyxVkGwqHiD2ieDVxaNBdSStR3qm6UvJ76yGr4lIIutofIer2V/sG9S+7T6ObbhwbrHGP3NASRfVmoBWZzFgEGhHkPrfuCcfTxu9c3zQG3WWesfYy1uGtSiAxpe5oohbB5nvwxeyX5Qr6fc2i9ry5rJkJnGmNPt/MaZoaOvpJADGl5qIVPXKnN9ffqS/epMymut8EKmV8+sLSfgtx8+HsgBIC3nF8OyAeb6cm3qKVfqmFlbrfvrT98e6Bbwx4+fDeRs4AuyyFrIXJFJ9uvpW69lLdSW0/2bz28OdAswuPy5e28gLfe+AwhP2vMW7nGdLdk3z1d8BxCDy72Prg50C3AmKEDy5aNHRE51UIDHXk+81qLWUYP75A8soIq4cWlz78FbF/cV0CpSUkTrOqwa/N2tjb2tjfV9wSsrLwEF/PTg1oAC4P0rr+0rqFW0tESsGvzqhfUhvAK+uvPmQCs8LC3g23vX90kABfyyc/uJBARILbAVQlLEKsGlhk8y/Ac3t/oESApwJigAUgC0loZrPdf7FNm3jkPYDA+EnxOwvbk2hO8SwDpPCTz1FODnKQHKyZ35IBhySoCbXIYnuBC+axN0s+NJK0BSAFx+/HubAgwPjpO/zbyY5NtawrV853BTUwBMhVdABofz515+cr1rE1QA8DklICUFiAK8pgDJt7MUQdg8b3AxgAJSiNfeuXbhqeDIILwCujZBBIgCRAFffnhlIAUA/RWwSISzwifuhmXwu+9tDxiSUBkeXN8KILDLQAGOu5IAuLW1vi+EAi5snhlIAaIAx/FePvM9CqAwCrZQAyggzxv87PragAIQZuAMv5IAA6QA4FxKAAWI90IVkPA9QFEKmCIFGFycLSmg4gzqFmCAFAA5I9z8FODyyPvF8FyrAgxYA3vsNDe4G6Hh6VeD379/f6BbgNPbwrdfPz2QAvysAMn9ITfLZQRUCMUSyHVucFFSCjC4eH+3AAKAAgySAvzJU4AzI+/ncwqARQJc/wrwSRvcvSAF1OA7OzsD3QIMYQBRgDJSgHgvEFQBskgAhWZ4g4vBU4D31uDi9W4BooBHjx4N5GyoAjyvAOA4JTBWFeBTUkANTlDWcRVgONjd3R04sAADiMHFpzonAFKAcN+cAEJmcI6d4lMC2Bu4d05A1yaYAVKA5xUA7PwpIAMroEpobYKGVQAvNR4rADI8vwaEXyTAcZYWYMEW//Dhw6cE8BkxChAFzLFIAE/L19kpAf4UKsDZMiegawlksfyLAPCcAoCdPyUgJe93jEoVQIGigAwOhM3w/BoYXgGErQIcd2kBhjAAKAD4nAJEASwRyPvB+2FOgL/nBnd/UIA/hSmAfs4YQudMYEzu7RJgkAzA1FWA51IAIEUBVQT3O0ZLgIEV4E+hAgia4cHQCuDfuhQIv7IA8O8ABgBDufmlAEkJkPdXARbfEuD5FOBGmAKE8AjbWVWARVp4/i0gQ4ACJAVUETlGS4BPWgEZChBgcKl9HCMFuEy6BbheUwDk06wCOMfMaInI+6sAntCcAJfIlIBcKuJS6Bbg9FZAK4DLZEoA8DkFyJQAC00BO4+foJtjS4Bh614BClDSgQVkAAX4k6QA71VAa0YwZhVg0QoguBDetW7w02svDaQA+ziOwbsFWLgCqgiPU4CkACXk50UCCJzwBA0GBk8B3mufnDHg+W4BYuB6DOz8KYDZwTJpSfB+qAIodKcRXgEEZZlkeH4NDA8GVoDBuwTwMkOILDaD5DkFSApwr6j3yZSA/O8s4XNtK8CfQgVMPfGEe6lvjDndFCAUqwCfep5j3acEpngKyHGEMaoAAuT/5wkuCqBPhmcvMDxMBZelBNiyeNZ6CuCzEtz8FOE+ATmG4ywSQNAMDxnS4OL5+uQzOIyx+puFSwqAFABcV4B9UoBUARTpkza4aztDZviWAO4/lOC1ZfGEmRMg9lFIjjEnwODiU50TkPcfavDaFOA6nxPATAEFeH5KgGFq8KQKyND8O5b5/zcFGCQFGFwMLsioAginADE0T94pbnB/dhUwlnX0zSD+QSQFuAQM7vllBUgKsL8CxjKOvynAzS4FiAKgCiBgDZzHPGU2RvuPX3vyWu72uVlWES0BdcoTPjc3BIxfc/KbAhRSJVQBhlcAweVY1/hBW86IFDElgLAZfhzm2W8pAaoAp7kCxtuev6YAN80T83N21K0KGE+/aEfbTp36DxnIIrV7OEM2AAAAAElFTkSuQmCC;" vertex="1" parent="1">
          <mxGeometry x="-614" y="327" width="32" height="32" as="geometry" />
        </mxCell>
        <mxCell id="ZNWlbsZwltuI7lcsnE4K-52" value="" style="shape=image;verticalLabelPosition=bottom;labelBackgroundColor=default;verticalAlign=top;aspect=fixed;imageAspect=0;image=data:image/png,iVBORw0KGgoAAAANSUhEUgAAAEAAAABACAYAAACqaXHeAAAABGdBTUEAALGPC/xhBQAAAAlwSFlzAAAOwgAADsIBFShKgAAABsRJREFUeF7tlbFuFUkQRfkHpBXaACFt4GATB4QEaEMCNib2J/j/tav7XAeOr7rn2RiMbVHS1evuqu6pc6fHfvU7flF8+fLlP2uWX340+KdP/97SlL28CJzBr66uvo4/fPjnlgmZz7bnH4ExYMCRDaCm6+eY5xeAIIO3ASjAHkfUzrFPPxr8+vr6pEAwZm5478kc8NY85ukFbywyOLAo8661vM/KXhs2j/314aaiIxjnbEpkU3pf11rTxuNHGm14y7BWAxi8z2wjLO/JfNr6+ZHG/PBA0LDH1AGeJg2+qkXUs4dxxHk+15o2f3y42SgPA4SHM2+YbrTrODNrhouoPbfm8zOfth8eho78IBphTo3BW6kDfGUAa9STy5jntai1OGcw7h8c4AYiYCMaoCZiX+RGPG71Pis5w0bkep5ndB/UDNb5YGMfgAHIb7yb9L7Idcn1fCfX5Rw/3/mujahzH9Fg7uPz58+nA72JhiIejvzQ1Hp+JJ9/bp+ft4JCqQU88hnJv3v37m4GfPz48SQfELkRfwr+HCLXRc61+nzPW4br5/czrYCjwdzH+/fvvxqQcdQPXoFEeZhrnet9yXejqHM+czVHMcnzN2/+PAn4jAdzHwG+uPj7JAxAdtzyQ6M0tqqL3Dxv1vtW+QaLvOa6yMD3NiBvHgPevv3rpJ0RPNCNNAS1ybPWjTMnnxvSOeTncpuYA2rg7zIAYcDKiBi0aoRxw0bU7+bsjVjrXAxwXXRxcXFSg680mPuwAfmDGGGAPw3GUZoAJvK8wci7xnmMwzxukGsQ4DsDXr/+46R7GQCgDcAQQ7eSB2gFFq3e6EqBB3wFH5Ad/M4AagZzH4HhmmMCBqCGj5x38w3gt9pK3jeg84AZyAY4HwWePDWDuQ+uOgZEHjOPbEDXRAY/B+c635QojTcgawFbXXWDA5/1wdxHf+sGXs1tGHnEmj8Lm9BGZL4CRwbMHHAbcHl5+RXa8OwfzH3w3Ruq5Rx/IKPM2yDL4DYjsM7RsBu3GjwKONoZkPFg7gMDogYAPL/IBtiIldjDbegrb+iowbPW4EDuDPB5mQ/mPlYG8FYN3joyomtZxwCaplHgDN455oa1Ad5jDeY+At7fsOcNg6i1Aau6iNrITQOHADNAm0JNtIP3nsHcB7ArufEVTJS6mHjOAH7TNE02ODIEWtV4HHEee7I2mPsw6Aoc8ZaZUxv5MzK497BGs2nQt8EwAAARuYY6xoAj9kSDuQ+A3KTX0JEBbULmNoBzIzduA9z0XQ2gBvDeEw3mPgLjBi3DZ35kQGQDUBtgiHPwhvG+rmsDUOoGcx82ALjbDd+Ae94GMF8ZgL7t/wbhcUNl7uvsusi1DzKgwVYGRLchbpvAvox3BlDj5lZQnmNAr7OPs1bCkMHch6G44l5DgAQwc4AswzJmjtzkCsrq2tSgXR234c4G0GCgYgAyPMCp9TUHipoVsM+P3BwADeWaaPWfwvXUsS/iD+xg7sMNZ2wT3Dg1NgBR07UWOTcIgMEiarIGSNd4bAMyZ080mPsAIk16jAGtlQHkgLSBiFo3B0ALoCMDkl+NI+8ZzH00CL/R6m22Ac61ATaCeprbQVkNszKAX8t7BnMfNGYYwAFiPXI9exjvDOCM1DRQZGjLMA2Z6+46fiM/YzD3AYQFCFDOAXu0ZnBEzs0BsFNgMAk4/j7YANd7TzSY+3BzbjgCLFe+a5izZgOoWdUCn0YbwGoY1oFf7V/tGcx9dLOWDUBdY2Agnff6Te72G20Qr3fOWuVWewZzHysoRNM2AFHT3/kN5P4s4Lth3moLkNWcMepPI7dtMPdxBEXTyfVNIEetTfA5jKk3SH5pGgNYR/zNYE4eyMhnRNyyexvAlTdU5BxGAARcw+bXZ1BvEDdtqIwBtwH+dKj1OYA/2ADk5jsXAQqcDUCcQa4bbygatwxFXfZyDvtdhwZzH0cGGKRzyDVAtgk5uw1ww4aPVuARdRG3xqLGewbzfNiANG04miffNeRb7LfJNOaGgSK3e/PUkmOtldxg3T8MvgLMdXaNcy1qVgY0VMR8ZwDwNsDnRIPx8EjjAW0T/E2z3t85sgGc1VBRG4Co8/e+M2fa/vHhtx01bOC+1wCgUED9bXuNmjZg2vz5cWTAN7ibNWrYQ94GAGjIhnUOUzBg2nr8aDgbwBo16K4GAHlkwLTx6+PIAIQB3AwMMGBkUzCAMQbMY59e2IA2gTUMiFbgNsBGRPOYpx8rE7wWozCg/5AZnvEc+/zCBtiEGBABbwN42xnPMc8/2oRzBsy2lxe+BVEbMGUvP9qAWf4djxuvXv0P/8CcIhokfBwAAAAASUVORK5CYII=;" vertex="1" parent="1">
          <mxGeometry x="-73" y="34" width="32" height="32" as="geometry" />
        </mxCell>
        <mxCell id="ZNWlbsZwltuI7lcsnE4K-53" value="" style="shape=image;verticalLabelPosition=bottom;labelBackgroundColor=default;verticalAlign=top;aspect=fixed;imageAspect=0;image=data:image/png,iVBORw0KGgoAAAANSUhEUgAAAEAAAABACAYAAACqaXHeAAAABGdBTUEAALGPC/xhBQAAAAlwSFlzAAAOwgAADsIBFShKgAAAAWRJREFUeF7tliFOxVAQRbsFEhRB4FkJ9nsWgWQVWByKBM8S/g5IwCExWAyiCZgx72TSl5f/mrbpuclRTWbuHPHSwRhjjDFmrpzd3f+dQozZbrKjWogx2012VAsxZrvJjmohxmwnPGAcxybexp8Czos16w0LZ0dOoQAFbEwAC/Kgm++PSZ5+vwoo4Or4WnB+eyiIGstFAQrYmYDWg3kg4cH8znmLC1GAAhTQJIDfeXDtO+cRBShAAfMKOPVgfid89MjFy3MBH0F+7y5EAQpQQJOA2iOWHTnF5cNjgQIUoIB1CSAsmB01BYVRAA8mClCAAuYVUHvkSFayBQolFKQABSigrwCGC2oHZ6VbqM1jn6g5X7hQAQrYuYDrz/eCWuFWOI8/TuwTNecLFypAATsTwLAAf0z4SBIeRCiE+6LGcmEhBShgZwIYFuxNrFlvstI9iTXrTVa6J7FmvclK9yTWGGNMhwzDP7Cwp91QXD0eAAAAAElFTkSuQmCC;" vertex="1" parent="1">
          <mxGeometry x="-212" y="126" width="32" height="32" as="geometry" />
        </mxCell>
        <mxCell id="ZNWlbsZwltuI7lcsnE4K-54" value="" style="shape=image;verticalLabelPosition=bottom;labelBackgroundColor=default;verticalAlign=top;aspect=fixed;imageAspect=0;image=data:image/png,iVBORw0KGgoAAAANSUhEUgAAAEAAAABACAYAAACqaXHeAAAABGdBTUEAALGPC/xhBQAAAAlwSFlzAAAOwgAADsIBFShKgAAAAUNJREFUeF7tmTEKwjAUhjsKgpuruEjBUXB1dvEaehSv4BmcvISDN/EWuryh+YmWklaTvu+Df2oS8n/DI9AKAAAAYChmu+2rz9ix5RArkRI7thxiJVJix5ZDrERK7Nh80Qtvno8g6/s1SH27fI2u1/P323mQ02ERxK71O/SCCECAMwGKXniyWnZKTEoz52MdpF5Mg9g1/gcCEOBcQCo65HQoqhAVaMeUCwIQ4EyAFtaHjQ45FaCCihOCAAQ4E6CFuz5stKAK0e+2LR8QgABnArRw25CzbR/RgghAAALyEqCFuw65NrRgdg8hBCDAmQAtnDrk2tCC+iNGv9u24UAAApwJ0MJ9D7muDF5YQQACnAnQwkMPuexAAAKcCdDC/x5yPwcBCHAuQAtqbNl4iZVuxpaNl1jpZmzZeImVbsaWAQAUSFW9AakUXdpMww+IAAAAAElFTkSuQmCC;" vertex="1" parent="1">
          <mxGeometry x="-129" y="67" width="32" height="32" as="geometry" />
        </mxCell>
        <mxCell id="ZNWlbsZwltuI7lcsnE4K-55" value="" style="shape=image;verticalLabelPosition=bottom;labelBackgroundColor=default;verticalAlign=top;aspect=fixed;imageAspect=0;image=data:image/png,iVBORw0KGgoAAAANSUhEUgAAAEAAAABACAYAAACqaXHeAAAABGdBTUEAALGPC/xhBQAAAAlwSFlzAAAOwgAADsIBFShKgAAAB2tJREFUeF7tl02OFUcQBrkSK7Z4jSWEd0gcAF9h5CVecAD2yOew5Qvga3ANrBhXDOF015s35m9mREmfuiozqzrj6+7H8OD7+Ebj/fv3H6oVvv/j9z/+/PDb27dXevfuryuxXmX3b/CUgVevX7++MqFztbbd/TFfdWCVsK7JG7N+HXP3hgBTgPoWCOsncFRvzTr29o9+0xOmuWnArpb8xcXFldZtbt/wNUY2rnziaMJ2X8FRc8D3nHXbbz8Kitr0VOH6VCdcDULzHtVq4+uPwkzNpgtH/sgcRO0O3L29h2K92vryg2ZONdJ11T0IYJ++8IVtrgZW81xiq83PP46aPAVpzPo2yVkFc+25yH1HOdV7z/hq+9PHqUZOwTpvTANm091vbO5jPvfZU/c7Vwvj5sMDbOSUAda07qi2jU31DOqNH+2zzvs0fhRDC+v64cZ5QA9FgiHyzVHbvE15hsah1s1zprpv1vYc7uNviL2rhbkfz58//8/Nejg5DlU9vA3NOtQzp07V9f5z3fuxbj89k/WLFy/OM+Dnly8v1QOu02xkp9ahNky+61Oa5/QeszfA1cLcD+GrHj5vNpvqk2sTbVZZ1/NU63qO/zSq5tjX9ZMnP15K+EePHp1nwNOnTy81jWhTNGKzQDQn2IxPtXGhnbtWwPpda4L7575nz366lAaoswx48+bNlQF8Dv0kLi5+WfrYBBKWZjq3OVQzbNQa183PWu/V+bzHD48fX0oDjoxYmPuBAYKrj+D/iBoMsREboJnZnGsMEEZZc7SeOe/RnAKMV1wDfOU1wPiNDZjgvgkaoIRXAPctsfkdgCYxby3rGuDcM/pkha7M3dgAoGoAsQlNvmvqBDpSwSbcNAn5KR29OcJUPGnB56uvAeQW5n4UlHkNUOT6lmiAmg1PuBpT0Fk3JYgG9CnvDOieswwQWAOOBLg/kkIT7xwVdOqUSbNWsAmPhHSNdvBcF+Z+FABA58icBtSEWYN8kwoHbOH6BpDrGojC8s9YY4U8qmkcnWXAq1e/XgEAh3wbgEPTgJrAlTOQBrjuE+e7d64xSqiCIOEmZPPmWE944gtzP2qAsAWZsRqACuw5rq3xV79vBirMkR4+fPgvyIo88dYXHp1lgE1rAGJeMEHRrG1squchwWfjhUJC1wDhrG29Z0wD0MLcjzY6G0Ya4JNvDp0yQAMbE4jmnAskgHEMMDalAe7tfvahswwA4JQBamcA9dMEwRU17hX+6Okq49QZm5ATHrnvxga0UYF2UK6tbb2Q8zykgTSlATYulKCnDFA1wL8D3Nf9C3M/aG42LJDxQglirWZogLl5HlcNAIgGBZiQ5rieMsCcBhBDGkBuYe6HDdqkjaIaoAmFRBqANKHrXpFNC+kasfaPGiSItYqa7lMaoIgtzP2wwUpI1xqAzAvk/nnO0Rq1WeeufZJAEmNeA7ha073K3I0M8I+bNusfPW2eqwag+aRbp1qvgTZrg0DZ8ARjbV4jjuAFV55F/cLcj/51Z8MaIOARpHv4LJprvdBVGxdKM46kOUfw5gpP3PlZBtCo33YbrQHCFNI9/Y0wp4y7F/kd0ygNOt8JQGomILFpgHvM8y/NwtwPDVCzaUC4Nk7sqL75GiA8ojGhO7fxggiPzCliR+ZoKjrLAJusCTZv0/PtaP2MH+U4Q1ParI3OJ9k415qjpjnC1wBiC3M/2jjSAAS4Bhhr3QSdOfZ5hvsFODJAFUC5T0jrWtO4uYW5HzQ3AQQWoL8H1tSAmVPdrwkTHhWqKpyyVsDG3dezF+Z+7Ayw8V7RrK0BnNXzXGsAsuE2WSh0yoDuM+Z+9ylqFuZ+tGGfaA0oPJpPmxhn1ADPcW0NomGa400QxP+8uCavIUL6CVhD/joD0MLcDxtEs/EaYE4DXBdOE8wd1dgYMM5rAGuBhEUa4J4aYI25rhfmfthgm1R9yhNKaQj10xzlWVxt0GYR8IC4Bo5YTWi9Nc6tmYZg2MLcDxusBNEAaibYrLW+de6lzrNszuZtWgOE14D55NFce2bPsW5h7kdhfBMEEgQVsnvcZ05RczS3WeAKb0wDCi8wdV0775noRgbQ1DRAFf4Icu5rDhnjDGv6dAUqgDkkYI1qzLnA7mNu/cLcDxoURFAlSOPUGUeFM+bcePdrgM2jwtcA4oIo9zDXuBpQeLQwrx8a4FMWQvmkNcs4BsyYsO7hTP9FsdmCCDzN0YBCuQfVAOGtXVg3HxowJaRgxmtAa6xDRwYIgTTAtQZMqMKjwlu7MD59FB5NOMA1YNb4JnVtTQFUIZFPViiummINc/eRX21//mHjgKIaUPjWnGuAUIK4nq92DajIrza//BDu/xhQEwCn8RogsGsNqgHMkTWrra8/NECwGiC4Mq4BSBABkQYIfsqA1ca3HxrQN0HIaY6xGlAoIacBPGlz67a3b2gAElIDfFsam9DVkQHrNrd/aIDgNYC5eeABmyZM+HXs3RsTvAYgf8Q0YH7765i7PwRH/A4cGdAfv7Xt/g0NUD5pDVhl939MA1b4+/i648GDvwF7lUeaRB0spQAAAABJRU5ErkJggg==;" vertex="1" parent="1">
          <mxGeometry x="-434" y="216" width="32" height="32" as="geometry" />
        </mxCell>
        <mxCell id="ZNWlbsZwltuI7lcsnE4K-56" value="" style="shape=image;verticalLabelPosition=bottom;labelBackgroundColor=default;verticalAlign=top;aspect=fixed;imageAspect=0;image=data:image/png,iVBORw0KGgoAAAANSUhEUgAAAEAAAABACAYAAACqaXHeAAAAAXNSR0IArs4c6QAAAARnQU1BAACxjwv8YQUAAAAJcEhZcwAADsMAAA7DAcdvqGQAABZwSURBVHhexZtZbJzXdccP9+E+3ClxEUlTa+OE8pKwchqlTZXoJbaRxAXiAo381IcmiAwURfpSWS36EPShMvrUp7QvNVDUqVMDQQu0cBLEgh7sSk4lihLVaCEpSlyHw33v/3fuXGpIkVpiSj3Cp2/mm/vde87//M9yvxnm2P+TvPL1ryd1OqVjUseZn7z/forrT1ueOgAyvE2n7+s4kZObm1xbXfXrkjM6Tj9tIJ4aAFkeP6EjWVJaasUlJXxkc7OzNjsz468lTxWIJw5Atsd1JEvLyqyqusZKZPzi4oLl5ORYfn6BLS8v28jduzY9PcVttrK6enpiInXmw7MfPlEgnhgALx15qStZWfGd/Pz8E7m5ecmiRJF17t1nRUVFtrS05GP0mQOwuLhoqdSEX5+fn7fJiZSNjo3ZaggPGPG2gLjBm52WHQcAqs8vLJycnp7B68mGhnrb3dRkxcUllpeXZxUVFbayshIGb5K7d+5YejLlhjNmIjVpU1OBERIPjZ1mxI4BsJnqorAlEgmrqa01Ep1Y4ECUl5eL5tM2q7gnDNbW1pz+6fSkzc3NCaR83b62DhLsGB4etpRYkZHTOnYsND41AKJ6Mjc391R5WekJGZwsl4fLyyvs7t07tiLDdu1u8nGTojjC52s6Q/0y5YNEothpX1hYqPAoFAjzDghCjlhYWHAwJlMpU05w4AoK8q28rOyM1v3UyfI3BiCT1U/Ozy98f2FxMVlVVWUtra1WXV3l3sZzGIKXMXZBRk6Mj7un8xT7ZWXlVl1T44ZzEB4yyOcGEKhPTiAcqBDTU2mfD5bAmiz5VFXjsQGQx53qSmCvlpYUt5WqnJVXVro3iXMoTnKLsct1jAOQSHdCYGlp0UFgPABE47MFb8/IeIxeWFByFAsAMllVbUUKL/JFepI+ysVD43GBeGQAoLpOXsdlUBKjSoqL5eFipzWxjkFkeQzC65slZvnoxYKCAmfIdgBAfe4BhPHxMe8XlvWeHoJSyloAOzjQb3eUQAkfMeZMbU31IzMiL3PeVqD6gf37fyBD35HCX1acJ1paW6y2rtaN9FKVoSQGAYxTV8qr01s3jHEwA6UxHhYQDpwLCwv8+lYSQSA5MhfvS0sDqxDONFSKQVtUvpBK3fl5eT+Qzjk6Lly5enXeB24j2zIgK6u/qqMN7+JlqEdyQmhg1tZWLa1yNT8/59cqK5NWXFri8Q5d6xsara6+3qkPABjPASApUTo3l2RYvm4QIYU4sJJo9Jj6Ahol1oEBrD03O+Pg0FwVFiX0etHXXFxYXG+oJITFm5nX98l9AGSSm1NdHk4WiJ719Q2+KB6PCiEez0pOUBMDMD5ZXe1MmEqnpfSoK5Srz6gGMzPE/pLnCgyF1hhaU1PrYTErg4pkSKVySmRKZMuk4j1r3+DsWhL98XqUajmooCCE07Ry0OjoSPbnWybLDQB87dixV8XwH+klILgSMZ5JPDAAQ1dWSGTKzEKZz/Bsk2o8ymMQyYskyGsUqUySJMvdGECjGWIexvEehfkMQMgRvC4pUXJVguR9BJ4zACKhqoz5WIQKBNtwzl0xZfjOkM/NwRyI9ElpzTf+64MP3vMLkg05oLW19Y+Xlpe/zKQYxc1TQp8Yy8snthflvWJXniaHhgVvUgIjECgKaCQ3gCKBocDSUjAcoxiDwBRA5j1gYEsAvcjnZD7Wi/fBGub2+fUakJa1BkyAhdw3rfUAPkelmKpBknRHyA6114nZuTnlyzv/4QpINgDQ3tZ2XMZ3g6JquyuuOu+xqvbWlaKsAUxaFIfSTB6zeYxjBKNgBMouKCYpY1NTYTzXNo9FmBPwmY9rrMXY+DkCKFxDaJJIjuQhwo9cAPP6rl61CeUMHDAyOurXAsDOlnMPBECnbhRwFOXVqOgCQExMuNH6wBVZXQ3K4pk4lnMU4hoGIKxNB8cYAGZcHAvQeAglMQ6PM2c2SFsJ8xCGhMOwaN/T02O3bt3yeSakKy00r9E1S6+HA1CZrPIWdVXIsggewOtMwpkYGxWy+QoL5p1SIszJyXUwGE+cRq8BJJmba3R0swDIdc19e3DAxuWpcN+y05XXhBfGPwgAvAkDZmbULIlZKSVJmEaFAvTocYAkrAAB3STbA1CVrFIIWDeNDTdA4RKVNFpbJp3xScnELK4trHrz6GGy7d2hIc8TuQKj/+YNGxkZYagDMKdx7A3I0ngZADCAAwZwBlDCDKVZHwOi5yIjoxDfN69fl+dpgOb8PSziHgzl/ipVpDLNFe/FeZLtAdjVuOu4bu5OSEFuYBK8QFnypKYJVldX3EvROwAxlZ7yLixRnPBsv+qKhyRXmElyzNfauseampsziS/PkmJalaoLrwEARRnLgREwAvDwMvmB9xj68ccf28WLF+UQOUVGDwwOevJjDZIm8+I4119HvrOqWKxwZ20PwN7OvcfVmHR7hpcRlcmkG8HEnPEORpJ1s5X1hRNF3v0tiILsBqntZcrcESjYRO0GSABA0QgyACe1FvdTvkZHhgXorBs/JFaR0GBW39U+u6oEB+v4nDgnweF15sXjJENNrBXDNQxnHcZkHrttD8AzHR3HpVA3mxtuSkhJ6FqjXRv0wSsY7mVKi60pCaIY8TuucAiA5Hh9pv5jHHQGPMbF0oZED3MGJOan6SqlX+BzrcNac7Nz7n3KHEapjDkwhA33Aib9CRWA7hAdCCVKZFwLYQ2aM8nDkyC1HdqgMECwCAqSyDCGhQEG49SrSdE1j0OUom/gHpSlEyRhojQg0c7Ois5sopiHOVGY+ZmTbo9+wXOE3t++PahMPuIh4HHuYaB+HyNlEP0//QHGBSbSnZKA83x+BF34HAZMTIxjwzmVxgcDQFwisbajKF6IyrIoNOT9ysqqv8cL7NRC7zDv8QkwUJQ+Yk25A4/Oi7qULMrp8vKKx+WokuWY2tY57lNZ4zXVAVDSqjAYHTvA0Cprv5EJIXSA5ugJAKxBRYIlMAAwAAV9cYA+Pzc+Pr41AC3NLcoBud0kEQzFE8GbJm/ctps3bvgCxGtMSowDXRTyRklgoDgeSygvEBJ5UoK5MILPUJo8grFQO8S7egGBhaLMSxkjufEeb3I/rS5URyfWJFdFqjMvZ9gL+5gjsDV0gTiHs2R7AGqqa44rq3fX1dU5oiyKoXRWbESYYEC1u7e315XA8xiOIiwGONzDtdg+06SkZVgMDcYBBKxiDWeFxqBwZNqEGIPhvMcgQCU3MC/3AhpMYF3mDJ4m9kPDE8ewCWO7w3uqDE6RPIgBzcel0DoAKICCdFf9A/1OR5AHbWhNhoZi1UqIMIHWFQPxHoo4I6S413sZiaH07nlSlvlRjIP5AJdH4YxhDYypq6u3CiVkSi9MYhwhQ0hQjaA6oIRQvPekGTBZL189B+yiVLIO9kivc2PbAbB/3z6vAiQXFMQLNDN4HaWIZ4zhNYtyJtENDAxq8iVrbGx0BngZlQACAjiepR3UEMvadPn9eGVc5Sx2bgAIe3juUFAY+g28ifJ8jkOYNzw9NgeAa4zj4DVrMJ77ABRBXz6XLhuqwL1dRkYijaIwIfV28t6zN0cTcFCaz0H58uXL9uMfv6vwuOxjqBC1lCedmY9z65491qA4joqy4YLuKIuCGMMuj88dCOgv4PAuxhPHeuEVijlhBt5GH+6JwmvGaJDPgVM4otOyZQMAqdSkjApPdh5FUAwgQJnXKPPRRx/Ze+/9q127ds3HwAaMRykWR4mE4pfEGIVrUcEAVpnCqsYBQQgjniBHIBiDl1kPILmWFeOSUB2oZoRQNJwxOC1b7mNAnBThxu0Eo1AawQNMjALcy/tf/eoT+8Uvfm79yh8ISgMWrSmvt3oYR9IiuWF4MDI80KhVToq60OzE7g5hmx2/VMHI0JjRICXWASWkytSdohdjsmV7CyWtra1+eHuZERJbpDWxTSWIQKBsdmjMa3/ArjEmR4RzbX29G7JZtEH2eSObmA+FOeO9KG6UqF1RUelrMYZ7SJAkU5ouxrAWOkYweB1ZFeWBACC7dzfZd7/7PTt27Kuh3EnxRsUxQMRktxkIlPEEqoYmUo4xABElO2ajUDYZh0RPcWYuQKADJPvzvIBxGEXOYu9BZQB0rtGqo0tcg3v5HEA2r7vhXUd7uz8RInkxMFIIBFtaWuzIkZe8O6SsBJqBrhoh/WMRlGERPkNxvIjyzANYnKFhKItzfg/5g7XCviMovlm4h4YG0PEg45mf9WLSZgzMhBnxGvOH9UJpzTwg3b4KYEx5eZkdOnTIu72Ifl/fVacy8uyzn7Vvfutb9uLnP+/KslgFuz8lrWgkR7bQgt66edNfMycHW+YoKMsR8wcAIoyjwkwpxqE187ohApbxvGcsHWRtbZ13hVyPwnyMx2mNjbsyVzfKBgbEvcBzzz/vsc8EHNCYUjigZihXC4B0Q0ODwHjWQeDrKdAGQGo3SqEkwnWkUvFKwzSvZEUbHPqJ0AViSFQbQHlPMostLHPALJJfBBBhjRFtnakIbN0j86LAll27div0QhUaUjuvMeeGh4e3boQiAM0trV6K5AOnHcb6llTK0xgxEVtX4p6uEcYQ33wZghIAxIEBKISRPKDo7Ox0RkFFdnY8cAVgBKPpKuMzBZiAxKpRsCk8ABBgFkVvGrfIICR6vF7JFqewPsfNmze4Z0MrvGUSZHIeKLI1RQiHI0eO2AsvvODNDV5km/vJJ594m4xgXHZoFEnhbAEIQEGhKJEdUfA6uzhAYA4ozSM0kt9mcWClx+6mZk+CvMdwvp9okQN5DSDYAlOYkzHZIYJsCQAdFoI32YtPTqb9Na3ul44etSNf/KIzA+nv77ezZ896jGMQbPj266/bSxqTzCqf2wnKoSQCCzC6rr7BnyhBW45swQjWIRHHLS+5B8M5aJr4HMbCwBiKESCckC1bhgBx49tYLQ5iTEgZYRJikTIEGDCDTRE5gj1+/F0Pj7iI98PPPe9jbt266eHS2bnXn8pAR8KJeTljBMrxMJZkFrM8Z5gQKokyvYPFN0W5blhFRbntaWvXGlUax7Y8AMp4wIm/NkE/9h481pc8/IkQtR+laFZgA/HIN7goFRqN8E0vSu9Rf4/BGIJX+Jw8EZqQhPf+lE8SEkcEAAEsFKZT4zPoTogADGuyBuLPHpzKC54nYF9r6x5ra+/wMXEemARTOdAVRsUw4EyOkjwcALaheB6jearDlw94mIlRlMWuXetzQwABL7e1t3vLirIhdGZUNQbci9AOanKff43l3sfA8CUJRrD748y6KM8R2ty0b20R1mnv6BDVm12PaDh6MA8SHtuHcEIYA5iPBQAZFMVBji0lXsW713/9azt//rw/0yfunPpKlowjLKgEMAK6syg7SLbQHNRxDMS7VJCJ8Qk3EjDwavwuAsUxhvtjQmS+/QcOWltbhwMeDY8eR7jG6wgAwlpc43gsAOJXzMQfxvde7rH9pUOWbyv2v0OTdunSRf8ainHEOkZoUl8IEDjIEXgpeCfsEeglGMPcYYuddhDjb4ZQMh4IzGnd02btojo9ANc3G47BhGm24VGi4egAmA99KlxfVy8A1rp55M3NoA0APE19seqmvdZy0f6nf9H60/lukD8p6r/lbAEIrgEEsc8vvqAsDRXnmJVjfM+L3gBHXPOgpFDjYQRzASB5qLk5UB1dMHqzxzE8grWVeMhlmMR9dIySDQBsKIMM5nkAdI4bHRS8oHqfWgq/KyjMCd+9vb4v3zorc01NhX344S/t3Xf/Zf0ZAMaOjIy6dzEKALq7u72P4DXXoHtlZYWPp3fjGqBRgajjJFau4T2+e8R4HytPA2Lw+r2uLwrXsCOCBUCMR5etZMs+AC8Agv+EZSXsrxerVE9fMOv6Qmhenq3Jte99rtD++muz1lkTnukBxPvv/5tdudLrY1ACgNJpfiyx5mHBXoKmiTViU1IssPftO2AHD/6WexxBYebEmGAoW94Q0wGy+4Wx3IPnEcDjRxfMtR1TNoQA3w3q1I3xKMKNydW0vVw5ZE0dS7arbdn2PrNqb3xjwXJu59rsTIF9Ye+UvXJoybp2L9u1sTwbHF/wPQMg/G6nMnnRbgcCuseeghKJYjAJpak6HR3PuFfjN7xxT4/x2Z7mNXPwWQQQwWiuAxCG86yS6oXh7sB74bN9CEh+zn9kbeKb7wK4qTqRY81lmaGFDX5qbpi2wweHRYUv+fvDu1fsL38nx/5wf4Ed3L3qYXBg4p/s4PDfr9OXMw8taHmjE2ECazCeqpGdzLgOKNkSYj/s8jIGuUSqx6oDIFyjXaaCZVhBHIdtaUY2MEDI9IoF/6g4nZRiXYMDA4ni5dt2tGXMCutXLFGrBZNf0XHUbPSS2bTC4dgfmTWp5V28YunhQqvKKbJvfDNtBz8zZw15K1Kq2K4s73dl6NbwLF6npMbySL+R/YVHtnejYZwBi895HQ9yCbSPHWlkCL8gC/2GhyyG/1DHt89fuPAzLkTZAAAiEFK9vb0/6+m59MPGhsZkbfFi91efuWuJWRnPXI2fUX1qNys4a1anC7Xf0UWBWnDJKg4oXyzmWFH5qnUeWLDCpjUbWcy3nqG9HlJ0liiElwcHB11phITLji4aR5mMhuDlCEr8PApepZwCANdhGNTnGSFjJSzw5zrelOHvybb7fjO4ZRKMcv7C+Tff+aAPV5zWkbLb+n+sS//pyK+U5nppL4b3GWn+7WmrfPEVs0qFhvBZTqx4H3Hj+nX3UBS+NqPPwEDiPlswHJZkG8vrEBKhF+ABDcbzGsP5fpFfjFLr1TxhOD+La5fhZ3Rs+7cGDwQgStff2Fs6HdZx2vKLNfleZcw/Mat52T/XDjycymR4ye+F14TJpYSt3AqdGNWATRGJCYHO/MwWmtJZRgORjPf8fSZ2XRjLPLGhAiR+lY7h/MGF5sDw07p+WEbj9UCxB8gjAYAIhBsA0fXyn7IPhhEy+HN+MnIc4VGwX2Eh4CMIuj47MOt9RPxiJRqZLRiPMdHwKFznGlkdQ0mUMSz4EWS/AHWPZwzXcbjv2rW3dDzyX5c8MgDZ0tX12be6uv6C0IBmKeOHF+d0jBMj4TdDLgeFRU1IZrNzs75PIGltNhThGiBA52g47zH6zp0hZ0J4P+nG09VlGd7+uIZH+Y0AiNLV9Vf8BvewjV8JjJhXWbSfqhVUmV1VvlGaaDqUY3/2XKF1lPsIT3DByAACyY3njDz8pDxifKR6qBIh7kl03tSod1iT4Zon2+MPpfp2cq+T2AG58J9v/K3VNp+0kX+Wy6+Y3TKbzimwvn+vsrGiRrtS3e17eYzuu3rFYxlD2fSwlY5054EHOQKP86sRfpyVYQ2G/oOOtx+U2B5HPhUDNkvX7/8IRihH5BEaRtUoSy3ZnqNpKyyjJwj1nIcekQEwgt8D0RXicYzmSTBUH9BGi1+Fyfj1GM8ktx37C7IdBQBRWKS6jvUEIJZDsqzeN29lhwb8uSGUxmhimj0Cwo8vItXp3MjomV90rce4jH5rJw2PsqMhsJVc+In/8vzkf/dWnvq7dzqsvqFB+/t2B4MfWNATkxihPKBkU13v377U07PjRmfLEwcgyuGuwwBxSgCcZLOF8fTo65uCINHj7z0Jb28lTw2AKK+99gfOCAFwKguAmNxOy3BePzV56gBEESP4k5wTAkDF8ukbHsTs/wCNULKNiDv4QAAAAABJRU5ErkJggg==;" vertex="1" parent="1">
          <mxGeometry x="-378" y="174" width="32" height="32" as="geometry" />
        </mxCell>
        <mxCell id="ZNWlbsZwltuI7lcsnE4K-58" value="" style="shape=image;verticalLabelPosition=bottom;labelBackgroundColor=default;verticalAlign=top;aspect=fixed;imageAspect=0;image=data:image/png,iVBORw0KGgoAAAANSUhEUgAAAEAAAABACAYAAACqaXHeAAAABGdBTUEAALGPC/xhBQAAAAlwSFlzAAAOwgAADsIBFShKgAAAAZRJREFUeF7tmLFNxFAQRE90gBA1UAtNkNACpdAH9EJEcCkFkCCdLEGyEuvH8Bdzts/2zUgv8np3ZgIH3lmWZVmWZS1Vz/eXny1ibLtSoTMxtl2p0JkY265U6EyMrUcqRIuPl9smnI8zyxUNV6jQGc7HmeWKhitU6Azn48xyRcMVKnSG83FmPtFAxeH9blJ4L2xOJx6sUKbHhPfC5nTiwQplekx4L2xOJx6sUKbHhPfC5t/FBRX8KClTc0I/DzcXPSLm71IhW/CgMjUn9OMCXEBRAAN1h30PdWRJ0C/h/I9CXIALcAG9AvgRqRaODe9V8P3Xx6sezOMCXIALGFYAD1QGCOcr+P7b03UPBqxgHhfgAlzAcQXwedd1fSYORLiP/ogLcAEuoF0AFzIAF/I531emh8B9vE8YkMRvkG+5ABdw5gVQVSE8eGwBnCcqRIuI8X+5ABdw5gVQQwvhc6JMtwgbp5MLcAFnXgDFQogKkYk165UKnVGhM7FmvVKhMyp0JtasVyp0RoXOxBrLsizLsqwTa7f7Amv+lwoopQIbAAAAAElFTkSuQmCC;" vertex="1" parent="1">
          <mxGeometry x="-160" y="84" width="32" height="32" as="geometry" />
        </mxCell>
        <mxCell id="ZNWlbsZwltuI7lcsnE4K-61" value="" style="shape=image;verticalLabelPosition=bottom;labelBackgroundColor=default;verticalAlign=top;aspect=fixed;imageAspect=0;image=data:image/png,iVBORw0KGgoAAAANSUhEUgAAAEAAAABACAYAAACqaXHeAAAABGdBTUEAALGPC/xhBQAAAAlwSFlzAAAOwgAADsIBFShKgAAAAVdJREFUeF7tmMFthEAQBAmKXHgRBBkQDRmRDZL9Wcmz7dasMBYcUC3V6+Zmp+txj+sIIYQQQj414zh+ZZSx58aVjpSx58aVjpSx58aVjpSx+8SVyFiWJWWaporyzOfGlcxwpSMIQMDFAtzRGVpgXddD6L7ThbiSGXqwK7UH3YcABBwU4I7O0APckWei9+wW4kpm6IPuqDPRexCAgIYALbRtW4V75JPQexWd/yUEAQhAQCVAf0RaC/8bfa+Ffl8Lap++7ysQgAAE5AKU1gGKzrfQ78/zXKEFFZ3X+xGAAAQcE6C4EpGjhVq4mzIQgAAE5AL0QLckcnVBfU8LKuVvkJ8gAAEvF6DZK+SoAJ1XXImMUuPvQQACXi5As1eIfj4MQ4U7OqOccV0QgICXC9CoEMWViJQ1940rHXGlI2XNfeNKR1zpSFlz37jSEVc6UtYQQgghhFycrvsGbAmsyq3/MOkAAAAASUVORK5CYII=;" vertex="1" parent="1">
          <mxGeometry x="-341" y="173" width="32" height="32" as="geometry" />
        </mxCell>
        <mxCell id="ZNWlbsZwltuI7lcsnE4K-62" value="" style="shape=image;verticalLabelPosition=bottom;labelBackgroundColor=default;verticalAlign=top;aspect=fixed;imageAspect=0;image=data:image/png,iVBORw0KGgoAAAANSUhEUgAAAEAAAABACAYAAACqaXHeAAAABGdBTUEAALGPC/xhBQAAAAlwSFlzAAAOwgAADsIBFShKgAAAATpJREFUeF7tmbsNgzAURelTR6KiZYJMQJMmaySjZCymYBukpHkFvnKCkPnYvHOkW2Fbvqd4skQFAAAAsBVd133WjB1bDrESKbFjyyFWIiV2bDnESqTEjs0XvfA4jkGGYQjS9/3f6Ho9/367Bnk9miB2rf3QCyIAAc4EKHrhuq4XJSZlmvezDdI2lyB2jeNAAAKcC0hFh5wORRWiAu2YckEAApwJ0ML6sNEhpwJUUHFCEIAAZwK08NKHjRZUIfrdtuUDAhDgTIAWnhtytu0nWhABCEBAXgK08NIhN4cWzO4hhAAEOBOghVOH3BxaUH/E6Hfbth0IQIAzAVp47SG3lM0LKwhAgDMBWnjrIZcdCECAMwFa+OghtzsIQIBzAVpQY8vOS6z0NLbsvMRKT2PLzkus9DS2DACgQKrqCyWtTomuyIhYAAAAAElFTkSuQmCC;" vertex="1" parent="1">
          <mxGeometry x="-279" y="148" width="32" height="32" as="geometry" />
        </mxCell>
        <mxCell id="ZNWlbsZwltuI7lcsnE4K-63" value="" style="shape=image;verticalLabelPosition=bottom;labelBackgroundColor=default;verticalAlign=top;aspect=fixed;imageAspect=0;image=data:image/png,iVBORw0KGgoAAAANSUhEUgAAAEAAAABACAYAAACqaXHeAAAABGdBTUEAALGPC/xhBQAAAAlwSFlzAAAOwgAADsIBFShKgAAAATlJREFUeF7tlLENwjAUBdOwACWiZANaJHago6BhBRagpaBkBfZgEkrGgMYFPllYFkqMyT3pVfn5+XdFOmOMMcaYoTJbnZ/fdLLYRw1r20kKqqQKUEBjAggw31yjbo/3j13ublH5/s8LUYACRiaAwAQg4OHyiMp5Ak/Xp6h8Xl2IAhQwMgGlwLnnBMoBc58CFKCAugL4U8sBEoDPKYDz3K8ABSigrgAexFJQKTDL/QpQgAL6FUBgHkQgHsj5nwdmFKCAkQnIAfOnxgMpJAece59VgAIUMKwAAvBgAnGeAJxnOd87MKMABYxcAD/IAwnIcj4nrDowwwN4cAr6vZxXgAIaF8ADCUBAznNfruGMeuFBBFKAAv5cAJM6sqRhTbtJQZU0rGk3KaiShjXtJgVV0rDGGGOMMaZyuu4FpOWsFIi1OQ4AAAAASUVORK5CYII=;" vertex="1" parent="1">
          <mxGeometry x="-308" y="160" width="32" height="32" as="geometry" />
        </mxCell>
        <mxCell id="ZNWlbsZwltuI7lcsnE4K-67" value="" style="shape=image;verticalLabelPosition=bottom;labelBackgroundColor=default;verticalAlign=top;aspect=fixed;imageAspect=0;image=data:image/png,iVBORw0KGgoAAAANSUhEUgAAAEAAAABACAYAAACqaXHeAAAABGdBTUEAALGPC/xhBQAAAAlwSFlzAAAOwgAADsIBFShKgAAAAg1JREFUeF7tmD1KQ0EUhd9WBAlYx0YR7cRCBLETbFKns9FOLGzsLHQBbsHCViyyDDvBFYhYaHPhvfsxzp0xTyIv58DXZOb+nFMMSRpJkiRJkqRSrR3tftVgZcVi/dX2aC6sbX/ighFWVizWp0zVYG37ExeMsLJisT5lqgZr25+4YISVFYv1KVM1WNvfiwvtX585Nk4nWVgfcTPdcryeHzo+7i6yzE7WHXMHwgUVgAIYeABc6ODxNgsD4TkD4f1aw59PDw6es346XnGYzZ+lABSAAnABXL48O2bvbw6eMwBCw4SPGKFBnvPRUwAKQAHkA2ABHy0uSEN81FhP2O9+b+TgPoT3GUBomOKAaGEFoAAGHkD0xYKGaeivDUcoAAWgAPoNgDAQPkI0zHMuzPkkuk/DEWa7FRumTHdRAApgYAHwAg0yABrifZ5HBgjv185nPaFfBcAP2LB2AZ5zgZTpLrxfO5/1hH4VAMULHMAFCAdGBnlOw/wTNNqH/SfHO47VzbHDbLdSAApgyQPgBTbgABqIzkkUOAMhnMd9+eOM/sx2K15gQw6koeicKAAF8M8D4B8gbMiBkcEIPmqEhjmP+xH6M9uteEEBKIAlC4BiQQQNWZtisZ4B0DBJ7dTFxpQr1SQHDVibYrFeASiABQewaKVM5LCy4ShlMoeVDUcpkzmsbDhKmcxhZZIkSQVqmm8SpXsbOJJi0gAAAABJRU5ErkJggg==;" vertex="1" parent="1">
          <mxGeometry x="-466" y="233" width="32" height="32" as="geometry" />
        </mxCell>
        <mxCell id="ZNWlbsZwltuI7lcsnE4K-68" value="" style="shape=image;verticalLabelPosition=bottom;labelBackgroundColor=default;verticalAlign=top;aspect=fixed;imageAspect=0;image=data:image/png,iVBORw0KGgoAAAANSUhEUgAAAEAAAABACAYAAACqaXHeAAAABGdBTUEAALGPC/xhBQAAAAlwSFlzAAAOwgAADsIBFShKgAAAAlxJREFUeF7t1sGJFVEQheG3MAF3JiEYhYm4NRcDMAljMBGXJjAgyAPdFEz3N9Vdfdu+wwPrwL/qW+ecqoHH3FqtVqvVarVm6dunt39ek4h9HGUlZxKxj6Os5Ewi9nGUlZxJxL6eshJLfnx5s+Lp+4dd7k9fV/z6+X6FfmJ+1JwnA8WC2dJL+gB9gAc/gAEWcCEXqL6L78V8sW+scV4aGmjBaiG/i+/FfLFvrHFeGhpowWohv4vvxXyxb6xxXhoaaMFqIb+L78V8sW+scVwa+CN1v/9eUS3gd/G9jL7//PHdiljruPoAfYD/7AAvFmbBkuJAL/A9VAtnP3xL+gB9gD7A5AMkpUcYXbD6bv8+QB+gD/BvB7Dg6ALVd3GhCvtKH6AP0AcYO4ADBlYLVd9F/wrnzfMP5Hv3i7Wf5QMLGGhA9V30r3DevD5AH2DyAcQCBorz/mj5Xn8X9B8z581zv1j7WT7QQCxoAXG+D9AHeLADKAeqgAoXFv0l89xDf/eJNbflwNWFRH/JPPfQ331izW05cHUh0V8yzz30d59Yc1sOXF1I9JfMcw/93SfW3JYDBlQFLSCj/uL7LGOJebHmthww8OpCzusvvs8ylpgXa27LAQOvLuS8/uL7LGOJebHmthww8OpCzusvvs8ylpgXax6XBhaQ0QJ+r/wq9IuY89LQgjJayO+VX4V+EXNeGlpQRgv5vfKr0C9izktDC8poIb9XfhX6Rcx1MqAixg4r8xghbOYpC90jxg4r8xghbOYpC90jxg4r8xghbOYpC90jxg4r8xghbFqtVivR7fYXzyEXRwavXUwAAAAASUVORK5CYII=;" vertex="1" parent="1">
          <mxGeometry x="-188" y="105" width="32" height="32" as="geometry" />
        </mxCell>
        <mxCell id="ZNWlbsZwltuI7lcsnE4K-69" value="" style="shape=image;verticalLabelPosition=bottom;labelBackgroundColor=default;verticalAlign=top;aspect=fixed;imageAspect=0;image=data:image/png,iVBORw0KGgoAAAANSUhEUgAAAEAAAABACAYAAACqaXHeAAAABGdBTUEAALGPC/xhBQAAAAlwSFlzAAAOwgAADsIBFShKgAAAAldJREFUeF7tlzFOQzEQRHMcehrEGSgRF0HiCFQ0HCTiFrkBFT0FHTVFaFby/ueJV5bzwzfakV7D7h/vTIFgl0qlUi093N0cz4nZziMVYgSznUcqxAhmO49UiBHMdrviwe/71wU/H4cmn4e3Bfye/hF21uXEAxhAhfZkAVnAPyugCvn9taRzzoI4//PCaMgDo4DRPAvIAjZWAA2qAxkoAoGG54D3RYVZzNPiB3ygOjCCR4/OAe/LArKAlQvgA5xXAYgI4an8gnl0D+fMZ7GLuBAZci5DexCIVH7BPLqHc+az2EVciAw5l6E9CEQqv2Ae3cM581nsIi5EhpzL0B4EIpVfMI/u4Zz5LHbR7fXV0UPD/ctTE+7zAPWN5/nxvgn3I3/Os4AsIAvoK4AGowdF0J8HE+4rTw+/t9hFWUAWkAV0FUC4r47w8HseOAr9mc9iF3GBgWhIuK9Ce/i9CjEC/ZnPYhdxgYFoSLivQnv4vQoxAv2Zz2IXcYGBaEi4r0J7+L0KMQL9mc9iF3EhOjhCHdUD/xniP1f8w4v3Euaz2EVcoIEK2UKF6iELyAI2VgBRoT0qVAsGimBB0S9h3se8WQB/QANCQ6JCtlAhW2QB5y6A4kJkGEE/Qn8V2sPAfE+V7OH7FruICzyQD0bQj9BfhfZkAVnAygVQ/KAXszkp7rOQiCwgC8gC1i3g0uKBKrRHhfTQz57ZrniwCu1RoT30s2e2Kx6sQntUaA/97Jntiger0B4V2kM/e2YeMUAvZjOvVKgezGZeqVA9mM28UqF6MJtUKpUS2u1+AfUBrSdYIqqjAAAAAElFTkSuQmCC;" vertex="1" parent="1">
          <mxGeometry x="-401" y="201" width="32" height="32" as="geometry" />
        </mxCell>
        <mxCell id="ZNWlbsZwltuI7lcsnE4K-70" value="" style="shape=image;verticalLabelPosition=bottom;labelBackgroundColor=default;verticalAlign=top;aspect=fixed;imageAspect=0;image=data:image/png,iVBORw0KGgoAAAANSUhEUgAAAEAAAABACAYAAACqaXHeAAAABGdBTUEAALGPC/xhBQAAAAlwSFlzAAAOwgAADsIBFShKgAAAATdJREFUeF7tmTsOgzAQBelTR6Ki5QS5A02ukZyCmitw26TZwn5ygpD52OyM9Cpsy2+KlSUaAAAAgL0YhuGzZezYekiVyIkdWw+pEjmxY+shVSIndmy56IXneY4yTVOUcRz/Rtfr+cPjHuX97KLYtY5DL4gABDgToOiF27ZdlZSUMNOrj9J3tyh2jfNAAAKcC8hFh5wORRWiAu2YekEAApwJ0ML6sNEhpwJUUHVCEIAAZwK08NqHjRZUIfrdtpUDAhDgTIAWXhpytu0nWhABCEBAWQK08Noht4QWLO4hhAAEOBOghXOH3BJaUH/E6Hfbth8IQIAzAVp46yG3lt0LKwhAgDMBWnjvIVccCECAMwFa+OwhdzgIQIBzAVpQY8uuS6p0GFt2XVKlw9iy65IqHcaWAQBUSNN8AbDZhFryr3+TAAAAAElFTkSuQmCC;" vertex="1" parent="1">
          <mxGeometry x="-522" y="268" width="32" height="32" as="geometry" />
        </mxCell>
        <mxCell id="ZNWlbsZwltuI7lcsnE4K-75" value="" style="shape=curlyBracket;whiteSpace=wrap;html=1;rounded=1;labelPosition=left;verticalLabelPosition=middle;align=right;verticalAlign=middle;rotation=-90;size=0.5;fillColor=#e1d5e7;strokeColor=#9673a6;" vertex="1" parent="1">
          <mxGeometry x="-290.38" y="150.39" width="18" height="237" as="geometry" />
        </mxCell>
        <mxCell id="ZNWlbsZwltuI7lcsnE4K-76" value="" style="shape=image;verticalLabelPosition=bottom;labelBackgroundColor=default;verticalAlign=top;aspect=fixed;imageAspect=0;image=data:image/png,iVBORw0KGgoAAAANSUhEUgAAAEAAAABACAYAAACqaXHeAAAABGdBTUEAALGPC/xhBQAAAAlwSFlzAAAOwgAADsIBFShKgAAAAldJREFUeF7tlzFOQzEQRHMcehrEGSgRF0HiCFQ0HCTiFrkBFT0FHTVFaFby/ueJV5bzwzfakV7D7h/vTIFgl0qlUi093N0cz4nZziMVYgSznUcqxAhmO49UiBHMdrviwe/71wU/H4cmn4e3Bfye/hF21uXEAxhAhfZkAVnAPyugCvn9taRzzoI4//PCaMgDo4DRPAvIAjZWAA2qAxkoAoGG54D3RYVZzNPiB3ygOjCCR4/OAe/LArKAlQvgA5xXAYgI4an8gnl0D+fMZ7GLuBAZci5DexCIVH7BPLqHc+az2EVciAw5l6E9CEQqv2Ae3cM581nsIi5EhpzL0B4EIpVfMI/u4Zz5LHbR7fXV0UPD/ctTE+7zAPWN5/nxvgn3I3/Os4AsIAvoK4AGowdF0J8HE+4rTw+/t9hFWUAWkAV0FUC4r47w8HseOAr9mc9iF3GBgWhIuK9Ce/i9CjEC/ZnPYhdxgYFoSLivQnv4vQoxAv2Zz2IXcYGBaEi4r0J7+L0KMQL9mc9iF3EhOjhCHdUD/xniP1f8w4v3Euaz2EVcoIEK2UKF6iELyAI2VgBRoT0qVAsGimBB0S9h3se8WQB/QANCQ6JCtlAhW2QB5y6A4kJkGEE/Qn8V2sPAfE+V7OH7FruICzyQD0bQj9BfhfZkAVnAygVQ/KAXszkp7rOQiCwgC8gC1i3g0uKBKrRHhfTQz57ZrniwCu1RoT30s2e2Kx6sQntUaA/97Jntiger0B4V2kM/e2YeMUAvZjOvVKgezGZeqVA9mM28UqF6MJtUKpUS2u1+AfUBrSdYIqqjAAAAAElFTkSuQmCC;" vertex="1" parent="1">
          <mxGeometry x="-186" y="212" width="32" height="32" as="geometry" />
        </mxCell>
        <mxCell id="ZNWlbsZwltuI7lcsnE4K-78" value="Repeated mining of copper" style="text;html=1;align=center;verticalAlign=middle;whiteSpace=wrap;rounded=0;fontSize=15;fontColor=light-dark(#75147c, #ededed);" vertex="1" parent="1">
          <mxGeometry x="-400" y="272" width="240" height="30" as="geometry" />
        </mxCell>
        <mxCell id="ZNWlbsZwltuI7lcsnE4K-79" value="" style="shape=curlyBracket;whiteSpace=wrap;html=1;rounded=1;labelPosition=left;verticalLabelPosition=middle;align=right;verticalAlign=middle;rotation=-90;size=0.5;fillColor=#e1d5e7;strokeColor=#9673a6;" vertex="1" parent="1">
          <mxGeometry x="-93.5" y="191.5" width="18" height="124" as="geometry" />
        </mxCell>
        <mxCell id="ZNWlbsZwltuI7lcsnE4K-80" value="Repeated mining &lt;br&gt;of coal" style="text;html=1;align=center;verticalAlign=middle;whiteSpace=wrap;rounded=0;fontSize=15;fontColor=light-dark(#75147c, #ededed);" vertex="1" parent="1">
          <mxGeometry x="-150" y="264" width="130" height="30" as="geometry" />
        </mxCell>
        <mxCell id="ZNWlbsZwltuI7lcsnE4K-100" value="" style="group" vertex="1" connectable="0" parent="1">
          <mxGeometry x="-616" y="228" width="80" height="69" as="geometry" />
        </mxCell>
        <mxCell id="ZNWlbsZwltuI7lcsnE4K-98" value="" style="endArrow=block;html=1;rounded=0;strokeWidth=2;endFill=1;" edge="1" parent="ZNWlbsZwltuI7lcsnE4K-100">
          <mxGeometry width="50" height="50" relative="1" as="geometry">
            <mxPoint x="40" y="37" as="sourcePoint" />
            <mxPoint x="40" y="69" as="targetPoint" />
          </mxGeometry>
        </mxCell>
        <mxCell id="ZNWlbsZwltuI7lcsnE4K-99" value="Wooden&lt;br&gt;Tool" style="text;html=1;align=center;verticalAlign=middle;whiteSpace=wrap;rounded=0;fontSize=17;" vertex="1" parent="ZNWlbsZwltuI7lcsnE4K-100">
          <mxGeometry width="80" height="30" as="geometry" />
        </mxCell>
        <mxCell id="ZNWlbsZwltuI7lcsnE4K-101" value="" style="group" vertex="1" connectable="0" parent="1">
          <mxGeometry x="-305" y="78" width="80" height="69" as="geometry" />
        </mxCell>
        <mxCell id="ZNWlbsZwltuI7lcsnE4K-91" value="" style="endArrow=block;html=1;rounded=0;strokeWidth=2;endFill=1;" edge="1" parent="ZNWlbsZwltuI7lcsnE4K-101">
          <mxGeometry width="50" height="50" relative="1" as="geometry">
            <mxPoint x="40" y="37" as="sourcePoint" />
            <mxPoint x="40" y="69" as="targetPoint" />
          </mxGeometry>
        </mxCell>
        <mxCell id="ZNWlbsZwltuI7lcsnE4K-92" value="Iron&lt;br&gt;Tool" style="text;html=1;align=center;verticalAlign=middle;whiteSpace=wrap;rounded=0;fontSize=17;" vertex="1" parent="ZNWlbsZwltuI7lcsnE4K-101">
          <mxGeometry width="80" height="30" as="geometry" />
        </mxCell>
        <mxCell id="ZNWlbsZwltuI7lcsnE4K-102" value="" style="group" vertex="1" connectable="0" parent="1">
          <mxGeometry x="-548" y="198" width="80" height="69" as="geometry" />
        </mxCell>
        <mxCell id="ZNWlbsZwltuI7lcsnE4K-81" value="" style="endArrow=block;html=1;rounded=0;strokeWidth=2;endFill=1;" edge="1" parent="ZNWlbsZwltuI7lcsnE4K-102">
          <mxGeometry width="50" height="50" relative="1" as="geometry">
            <mxPoint x="40" y="37" as="sourcePoint" />
            <mxPoint x="40" y="69" as="targetPoint" />
          </mxGeometry>
        </mxCell>
        <mxCell id="ZNWlbsZwltuI7lcsnE4K-86" value="Stone&lt;br&gt;Tool" style="text;html=1;align=center;verticalAlign=middle;whiteSpace=wrap;rounded=0;fontSize=17;" vertex="1" parent="ZNWlbsZwltuI7lcsnE4K-102">
          <mxGeometry width="80" height="30" as="geometry" />
        </mxCell>
        <mxCell id="ZNWlbsZwltuI7lcsnE4K-103" value="" style="group" vertex="1" connectable="0" parent="1">
          <mxGeometry x="-168.5" y="9" width="120" height="58" as="geometry" />
        </mxCell>
        <mxCell id="ZNWlbsZwltuI7lcsnE4K-89" value="" style="endArrow=block;html=1;rounded=0;strokeWidth=2;endFill=1;" edge="1" parent="ZNWlbsZwltuI7lcsnE4K-103">
          <mxGeometry width="50" height="50" relative="1" as="geometry">
            <mxPoint x="52" y="26" as="sourcePoint" />
            <mxPoint x="52" y="58" as="targetPoint" />
          </mxGeometry>
        </mxCell>
        <mxCell id="ZNWlbsZwltuI7lcsnE4K-90" value="Diamond Tool" style="text;html=1;align=center;verticalAlign=middle;whiteSpace=wrap;rounded=0;fontSize=17;" vertex="1" parent="ZNWlbsZwltuI7lcsnE4K-103">
          <mxGeometry x="-8" width="120" height="30" as="geometry" />
        </mxCell>
      </root>
    </mxGraphModel>
  </diagram>
</mxfile>
